# Wavefront OBJ file automatically generated by Tiled2Unity

# Vertices (Count = 415)
v -16 -2.56 0
v -16.32 -2.56 0
v -16.32 -2.24 0
v -16 -2.24 0
v -16.64 -2.56 0
v -16.64 -2.24 0
v -16.96 -2.56 0
v -16.96 -2.24 0
v -17.28 -2.56 0
v -17.28 -2.24 0
v -15.36 -2.88 0
v -15.68 -2.88 0
v -15.68 -2.56 0
v -15.36 -2.56 0
v -16 -2.88 0
v -16.32 -2.88 0
v -16.64 -2.88 0
v -16.96 -2.88 0
v -17.28 -2.88 0
v -17.6 -2.88 0
v -17.6 -2.56 0
v -15.04 -3.2 0
v -15.36 -3.2 0
v -15.04 -2.88 0
v -15.68 -3.2 0
v -16 -3.2 0
v -16.32 -3.2 0
v -16.64 -3.2 0
v -16.96 -3.2 0
v -17.28 -3.2 0
v -17.6 -3.2 0
v -15.04 -3.52 0
v -15.36 -3.52 0
v -15.68 -3.52 0
v -16 -3.52 0
v -16.32 -3.52 0
v -16.64 -3.52 0
v -16.96 -3.52 0
v -17.28 -3.52 0
v -17.6 -3.52 0
v -17.92 -3.52 0
v -17.92 -3.2 0
v -15.04 -3.84 0
v -15.36 -3.84 0
v -15.68 -3.84 0
v -16 -3.84 0
v -16.32 -3.84 0
v -16.64 -3.84 0
v -16.96 -3.84 0
v -17.28 -3.84 0
v -17.6 -3.84 0
v -17.92 -3.84 0
v -18.24 -3.84 0
v -18.24 -3.52 0
v -15.04 -4.16 0
v -15.36 -4.16 0
v -15.68 -4.16 0
v -16 -4.16 0
v -16.32 -4.16 0
v -16.64 -4.16 0
v -16.96 -4.16 0
v -17.28 -4.16 0
v -17.6 -4.16 0
v -17.92 -4.16 0
v -18.24 -4.16 0
v -15.04 -4.48 0
v -15.36 -4.48 0
v -15.68 -4.48 0
v -16 -4.48 0
v -16.32 -4.48 0
v -16.64 -4.48 0
v -16.96 -4.48 0
v -17.28 -4.48 0
v -17.6 -4.48 0
v -17.92 -4.48 0
v -18.24 -4.48 0
v -18.56 -4.48 0
v -18.56 -4.16 0
v -18.88 -4.48 0
v -18.88 -4.16 0
v -19.2 -4.48 0
v -19.2 -4.16 0
v -15.04 -4.8 0
v -15.36 -4.8 0
v -15.68 -4.8 0
v -16 -4.8 0
v -16.32 -4.8 0
v -16.64 -4.8 0
v -16.96 -4.8 0
v -17.28 -4.8 0
v -17.6 -4.8 0
v -17.92 -4.8 0
v -18.24 -4.8 0
v -18.56 -4.8 0
v -18.88 -4.8 0
v -19.2 -4.8 0
v -19.52 -4.8 0
v -19.52 -4.48 0
v -19.84 -4.8 0
v -19.84 -4.48 0
v -8.639999 -5.12 0
v -8.96 -5.12 0
v -8.96 -4.8 0
v -8.639999 -4.8 0
v -9.28 -5.12 0
v -9.28 -4.8 0
v -9.599999 -5.12 0
v -9.599999 -4.8 0
v -9.92 -5.12 0
v -9.92 -4.8 0
v -10.24 -5.12 0
v -10.24 -4.8 0
v -10.56 -5.12 0
v -10.56 -4.8 0
v -10.88 -5.12 0
v -10.88 -4.8 0
v -11.2 -5.12 0
v -11.2 -4.8 0
v -15.04 -5.12 0
v -15.36 -5.12 0
v -15.68 -5.12 0
v -16 -5.12 0
v -16.32 -5.12 0
v -16.64 -5.12 0
v -16.96 -5.12 0
v -17.28 -5.12 0
v -17.6 -5.12 0
v -17.92 -5.12 0
v -18.24 -5.12 0
v -18.56 -5.12 0
v -18.88 -5.12 0
v -19.2 -5.12 0
v -19.52 -5.12 0
v -19.84 -5.12 0
v -20.16 -5.12 0
v -20.16 -4.8 0
v -20.48 -5.12 0
v -20.48 -4.8 0
v -20.8 -5.12 0
v -20.8 -4.8 0
v -21.12 -5.12 0
v -21.12 -4.8 0
v -2.88 -5.44 0
v -3.2 -5.44 0
v -3.2 -5.12 0
v -2.88 -5.12 0
v -3.52 -5.44 0
v -3.52 -5.12 0
v -3.84 -5.44 0
v -3.84 -5.12 0
v -4.16 -5.44 0
v -4.16 -5.12 0
v -4.48 -5.44 0
v -4.48 -5.12 0
v -4.8 -5.44 0
v -4.8 -5.12 0
v -8.639999 -5.44 0
v -8.96 -5.44 0
v -9.28 -5.44 0
v -9.599999 -5.44 0
v -9.92 -5.44 0
v -10.24 -5.44 0
v -10.56 -5.44 0
v -10.88 -5.44 0
v -11.2 -5.44 0
v -15.04 -5.44 0
v -15.36 -5.44 0
v -15.68 -5.44 0
v -16 -5.44 0
v -16.32 -5.44 0
v -16.64 -5.44 0
v -16.96 -5.44 0
v -17.28 -5.44 0
v -17.6 -5.44 0
v -17.92 -5.44 0
v -18.24 -5.44 0
v -18.56 -5.44 0
v -18.88 -5.44 0
v -19.2 -5.44 0
v -19.52 -5.44 0
v -19.84 -5.44 0
v -20.16 -5.44 0
v -20.48 -5.44 0
v -20.8 -5.44 0
v -21.12 -5.44 0
v 0 -5.76 0
v -0.32 -5.76 0
v -0.32 -5.44 0
v 0 -5.44 0
v -0.64 -5.76 0
v -0.64 -5.44 0
v -0.96 -5.76 0
v -0.96 -5.44 0
v -1.92 -5.76 0
v -2.24 -5.76 0
v -2.24 -5.44 0
v -1.92 -5.44 0
v -2.56 -5.76 0
v -2.56 -5.44 0
v -2.88 -5.76 0
v -3.2 -5.76 0
v -3.52 -5.76 0
v -3.84 -5.76 0
v -4.16 -5.76 0
v -4.48 -5.76 0
v -4.8 -5.76 0
v -5.12 -5.76 0
v -5.12 -5.44 0
v -5.44 -5.76 0
v -5.44 -5.44 0
v -5.76 -5.76 0
v -5.76 -5.44 0
v -6.08 -5.76 0
v -6.08 -5.44 0
v -6.4 -5.76 0
v -6.4 -5.44 0
v -6.72 -5.76 0
v -6.72 -5.44 0
v -7.04 -5.76 0
v -7.04 -5.44 0
v -7.36 -5.76 0
v -7.36 -5.44 0
v -7.68 -5.76 0
v -7.68 -5.44 0
v -8 -5.76 0
v -8 -5.44 0
v -8.32 -5.76 0
v -8.32 -5.44 0
v -8.639999 -5.76 0
v -8.96 -5.76 0
v -9.28 -5.76 0
v -9.599999 -5.76 0
v -9.92 -5.76 0
v -10.24 -5.76 0
v -10.56 -5.76 0
v -10.88 -5.76 0
v -11.2 -5.76 0
v -11.52 -5.76 0
v -11.52 -5.44 0
v -11.84 -5.76 0
v -11.84 -5.44 0
v -12.16 -5.76 0
v -12.16 -5.44 0
v -12.48 -5.76 0
v -12.48 -5.44 0
v -12.8 -5.76 0
v -12.8 -5.44 0
v -13.12 -5.76 0
v -13.12 -5.44 0
v -13.44 -5.76 0
v -13.44 -5.44 0
v -13.76 -5.76 0
v -13.76 -5.44 0
v -14.08 -5.76 0
v -14.08 -5.44 0
v -14.4 -5.76 0
v -14.4 -5.44 0
v -14.72 -5.76 0
v -14.72 -5.44 0
v -15.04 -5.76 0
v -15.36 -5.76 0
v -15.68 -5.76 0
v -16 -5.76 0
v -16.32 -5.76 0
v -16.64 -5.76 0
v -16.96 -5.76 0
v -17.28 -5.76 0
v -17.6 -5.76 0
v -17.92 -5.76 0
v -18.24 -5.76 0
v -18.56 -5.76 0
v -18.88 -5.76 0
v -19.2 -5.76 0
v -19.52 -5.76 0
v -19.84 -5.76 0
v -20.16 -5.76 0
v -20.48 -5.76 0
v -20.8 -5.76 0
v -21.12 -5.76 0
v 0 -6.08 0
v -0.32 -6.08 0
v -0.64 -6.08 0
v -0.96 -6.08 0
v -1.28 -6.08 0
v -1.28 -5.76 0
v -1.6 -6.08 0
v -1.6 -5.76 0
v -1.92 -6.08 0
v -2.24 -6.08 0
v -2.56 -6.08 0
v -2.88 -6.08 0
v -3.2 -6.08 0
v -3.52 -6.08 0
v -3.84 -6.08 0
v -4.16 -6.08 0
v -4.48 -6.08 0
v -4.8 -6.08 0
v -5.12 -6.08 0
v -5.44 -6.08 0
v -5.76 -6.08 0
v -6.08 -6.08 0
v -6.4 -6.08 0
v -6.72 -6.08 0
v -7.04 -6.08 0
v -7.36 -6.08 0
v -7.68 -6.08 0
v -8 -6.08 0
v -8.32 -6.08 0
v -8.639999 -6.08 0
v -8.96 -6.08 0
v -9.28 -6.08 0
v -9.599999 -6.08 0
v -9.92 -6.08 0
v -10.24 -6.08 0
v -10.56 -6.08 0
v -10.88 -6.08 0
v -11.2 -6.08 0
v -11.52 -6.08 0
v -11.84 -6.08 0
v -12.16 -6.08 0
v -12.48 -6.08 0
v -12.8 -6.08 0
v -13.12 -6.08 0
v -13.44 -6.08 0
v -13.76 -6.08 0
v -14.08 -6.08 0
v -14.4 -6.08 0
v -14.72 -6.08 0
v -15.04 -6.08 0
v -15.36 -6.08 0
v -15.68 -6.08 0
v -16 -6.08 0
v -16.32 -6.08 0
v -16.64 -6.08 0
v -16.96 -6.08 0
v -17.28 -6.08 0
v -17.6 -6.08 0
v -17.92 -6.08 0
v -18.24 -6.08 0
v -18.56 -6.08 0
v -18.88 -6.08 0
v -19.2 -6.08 0
v -19.52 -6.08 0
v -19.84 -6.08 0
v -20.16 -6.08 0
v -20.48 -6.08 0
v -20.8 -6.08 0
v -21.12 -6.08 0
v 0 -6.4 0
v -0.32 -6.4 0
v -0.64 -6.4 0
v -0.96 -6.4 0
v -1.28 -6.4 0
v -1.6 -6.4 0
v -1.92 -6.4 0
v -2.24 -6.4 0
v -2.56 -6.4 0
v -2.88 -6.4 0
v -3.2 -6.4 0
v -3.52 -6.4 0
v -3.84 -6.4 0
v -4.16 -6.4 0
v -4.48 -6.4 0
v -4.8 -6.4 0
v -5.12 -6.4 0
v -5.44 -6.4 0
v -5.76 -6.4 0
v -6.08 -6.4 0
v -6.4 -6.4 0
v -6.72 -6.4 0
v -7.04 -6.4 0
v -7.36 -6.4 0
v -7.68 -6.4 0
v -8 -6.4 0
v -8.32 -6.4 0
v -8.639999 -6.4 0
v -8.96 -6.4 0
v -9.28 -6.4 0
v -9.599999 -6.4 0
v -9.92 -6.4 0
v -10.24 -6.4 0
v -10.56 -6.4 0
v -10.88 -6.4 0
v -11.2 -6.4 0
v -11.52 -6.4 0
v -11.84 -6.4 0
v -12.16 -6.4 0
v -12.48 -6.4 0
v -12.8 -6.4 0
v -13.12 -6.4 0
v -13.44 -6.4 0
v -13.76 -6.4 0
v -14.08 -6.4 0
v -14.4 -6.4 0
v -14.72 -6.4 0
v -15.04 -6.4 0
v -15.36 -6.4 0
v -15.68 -6.4 0
v -16 -6.4 0
v -16.32 -6.4 0
v -16.64 -6.4 0
v -16.96 -6.4 0
v -17.28 -6.4 0
v -17.6 -6.4 0
v -17.92 -6.4 0
v -18.24 -6.4 0
v -18.56 -6.4 0
v -18.88 -6.4 0
v -19.2 -6.4 0
v -19.52 -6.4 0
v -19.84 -6.4 0
v -20.16 -6.4 0
v -20.48 -6.4 0
v -20.8 -6.4 0
v -21.12 -6.4 0

# Texture cooridinates (Count = 36)
vt 2.034505E-05 0.8333537
vt 0.1666463 0.8333537
vt 0.1666463 0.9999797
vt 2.034505E-05 0.9999797
vt 0.166687 0.8333537
vt 0.333313 0.8333537
vt 0.333313 0.9999797
vt 0.166687 0.9999797
vt 0.3333537 0.8333537
vt 0.4999796 0.8333537
vt 0.4999796 0.9999797
vt 0.3333537 0.9999797
vt 0.166687 0.666687
vt 0.333313 0.666687
vt 0.333313 0.833313
vt 0.166687 0.833313
vt 2.034505E-05 0.666687
vt 0.1666463 0.666687
vt 0.1666463 0.833313
vt 2.034505E-05 0.833313
vt 0.3333537 0.666687
vt 0.4999796 0.666687
vt 0.4999796 0.833313
vt 0.3333537 0.833313
vt 0.5000203 0.8333537
vt 0.6666463 0.8333537
vt 0.6666463 0.9999797
vt 0.5000203 0.9999797
vt 0.666687 0.8333537
vt 0.833313 0.8333537
vt 0.833313 0.9999797
vt 0.666687 0.9999797
vt 0.8333537 0.8333537
vt 0.9999797 0.8333537
vt 0.9999797 0.9999797
vt 0.8333537 0.9999797

# Normal
vn 0 0 -1

# Groups (Count = 2)

g mesh_0001
f 1/1/1 2/2/1 3/3/1 4/4/1
f 2/5/1 5/6/1 6/7/1 3/8/1
f 5/5/1 7/6/1 8/7/1 6/8/1
f 7/9/1 9/10/1 10/11/1 8/12/1
f 11/1/1 12/2/1 13/3/1 14/4/1
f 12/5/1 15/6/1 1/7/1 13/8/1
f 15/13/1 16/14/1 2/15/1 1/16/1
f 16/13/1 17/14/1 5/15/1 2/16/1
f 17/13/1 18/14/1 7/15/1 5/16/1
f 18/13/1 19/14/1 9/15/1 7/16/1
f 19/9/1 20/10/1 21/11/1 9/12/1
f 22/1/1 23/2/1 11/3/1 24/4/1
f 23/13/1 25/14/1 12/15/1 11/16/1
f 25/13/1 26/14/1 15/15/1 12/16/1
f 26/13/1 27/14/1 16/15/1 15/16/1
f 27/13/1 28/14/1 17/15/1 16/16/1
f 28/13/1 29/14/1 18/15/1 17/16/1
f 29/13/1 30/14/1 19/15/1 18/16/1
f 30/13/1 31/14/1 20/15/1 19/16/1
f 32/17/1 33/18/1 23/19/1 22/20/1
f 33/13/1 34/14/1 25/15/1 23/16/1
f 34/13/1 35/14/1 26/15/1 25/16/1
f 35/13/1 36/14/1 27/15/1 26/16/1
f 36/13/1 37/14/1 28/15/1 27/16/1
f 37/13/1 38/14/1 29/15/1 28/16/1
f 38/13/1 39/14/1 30/15/1 29/16/1
f 39/13/1 40/14/1 31/15/1 30/16/1
f 40/9/1 41/10/1 42/11/1 31/12/1
f 43/17/1 44/18/1 33/19/1 32/20/1
f 44/13/1 45/14/1 34/15/1 33/16/1
f 45/13/1 46/14/1 35/15/1 34/16/1
f 46/13/1 47/14/1 36/15/1 35/16/1
f 47/13/1 48/14/1 37/15/1 36/16/1
f 48/13/1 49/14/1 38/15/1 37/16/1
f 49/13/1 50/14/1 39/15/1 38/16/1
f 50/13/1 51/14/1 40/15/1 39/16/1
f 51/13/1 52/14/1 41/15/1 40/16/1
f 52/9/1 53/10/1 54/11/1 41/12/1
f 55/17/1 56/18/1 44/19/1 43/20/1
f 56/13/1 57/14/1 45/15/1 44/16/1
f 57/13/1 58/14/1 46/15/1 45/16/1
f 58/13/1 59/14/1 47/15/1 46/16/1
f 59/13/1 60/14/1 48/15/1 47/16/1
f 60/13/1 61/14/1 49/15/1 48/16/1
f 61/13/1 62/14/1 50/15/1 49/16/1
f 62/13/1 63/14/1 51/15/1 50/16/1
f 63/13/1 64/14/1 52/15/1 51/16/1
f 64/13/1 65/14/1 53/15/1 52/16/1
f 66/17/1 67/18/1 56/19/1 55/20/1
f 67/13/1 68/14/1 57/15/1 56/16/1
f 68/13/1 69/14/1 58/15/1 57/16/1
f 69/13/1 70/14/1 59/15/1 58/16/1
f 70/13/1 71/14/1 60/15/1 59/16/1
f 71/13/1 72/14/1 61/15/1 60/16/1
f 72/13/1 73/14/1 62/15/1 61/16/1
f 73/13/1 74/14/1 63/15/1 62/16/1
f 74/13/1 75/14/1 64/15/1 63/16/1
f 75/13/1 76/14/1 65/15/1 64/16/1
f 76/5/1 77/6/1 78/7/1 65/8/1
f 77/5/1 79/6/1 80/7/1 78/8/1
f 79/9/1 81/10/1 82/11/1 80/12/1
f 83/17/1 84/18/1 67/19/1 66/20/1
f 84/13/1 85/14/1 68/15/1 67/16/1
f 85/13/1 86/14/1 69/15/1 68/16/1
f 86/13/1 87/14/1 70/15/1 69/16/1
f 87/13/1 88/14/1 71/15/1 70/16/1
f 88/13/1 89/14/1 72/15/1 71/16/1
f 89/13/1 90/14/1 73/15/1 72/16/1
f 90/13/1 91/14/1 74/15/1 73/16/1
f 91/13/1 92/14/1 75/15/1 74/16/1
f 92/13/1 93/14/1 76/15/1 75/16/1
f 93/13/1 94/14/1 77/15/1 76/16/1
f 94/13/1 95/14/1 79/15/1 77/16/1
f 95/13/1 96/14/1 81/15/1 79/16/1
f 96/5/1 97/6/1 98/7/1 81/8/1
f 97/9/1 99/10/1 100/11/1 98/12/1
f 101/1/1 102/2/1 103/3/1 104/4/1
f 102/5/1 105/6/1 106/7/1 103/8/1
f 105/5/1 107/6/1 108/7/1 106/8/1
f 107/5/1 109/6/1 110/7/1 108/8/1
f 109/5/1 111/6/1 112/7/1 110/8/1
f 111/5/1 113/6/1 114/7/1 112/8/1
f 113/5/1 115/6/1 116/7/1 114/8/1
f 115/9/1 117/10/1 118/11/1 116/12/1
f 119/17/1 120/18/1 84/19/1 83/20/1
f 120/13/1 121/14/1 85/15/1 84/16/1
f 121/13/1 122/14/1 86/15/1 85/16/1
f 122/13/1 123/14/1 87/15/1 86/16/1
f 123/13/1 124/14/1 88/15/1 87/16/1
f 124/13/1 125/14/1 89/15/1 88/16/1
f 125/13/1 126/14/1 90/15/1 89/16/1
f 126/13/1 127/14/1 91/15/1 90/16/1
f 127/13/1 128/14/1 92/15/1 91/16/1
f 128/13/1 129/14/1 93/15/1 92/16/1
f 129/13/1 130/14/1 94/15/1 93/16/1
f 130/13/1 131/14/1 95/15/1 94/16/1
f 131/13/1 132/14/1 96/15/1 95/16/1
f 132/13/1 133/14/1 97/15/1 96/16/1
f 133/13/1 134/14/1 99/15/1 97/16/1
f 134/5/1 135/6/1 136/7/1 99/8/1
f 135/5/1 137/6/1 138/7/1 136/8/1
f 137/5/1 139/6/1 140/7/1 138/8/1
f 139/5/1 141/6/1 142/7/1 140/8/1
f 143/1/1 144/2/1 145/3/1 146/4/1
f 144/5/1 147/6/1 148/7/1 145/8/1
f 147/5/1 149/6/1 150/7/1 148/8/1
f 149/5/1 151/6/1 152/7/1 150/8/1
f 151/5/1 153/6/1 154/7/1 152/8/1
f 153/9/1 155/10/1 156/11/1 154/12/1
f 157/17/1 158/18/1 102/19/1 101/20/1
f 158/13/1 159/14/1 105/15/1 102/16/1
f 159/13/1 160/14/1 107/15/1 105/16/1
f 160/13/1 161/14/1 109/15/1 107/16/1
f 161/13/1 162/14/1 111/15/1 109/16/1
f 162/13/1 163/14/1 113/15/1 111/16/1
f 163/13/1 164/14/1 115/15/1 113/16/1
f 164/21/1 165/22/1 117/23/1 115/24/1
f 166/17/1 167/18/1 120/19/1 119/20/1
f 167/13/1 168/14/1 121/15/1 120/16/1
f 168/13/1 169/14/1 122/15/1 121/16/1
f 169/13/1 170/14/1 123/15/1 122/16/1
f 170/13/1 171/14/1 124/15/1 123/16/1
f 171/13/1 172/14/1 125/15/1 124/16/1
f 172/13/1 173/14/1 126/15/1 125/16/1
f 173/13/1 174/14/1 127/15/1 126/16/1
f 174/13/1 175/14/1 128/15/1 127/16/1
f 175/13/1 176/14/1 129/15/1 128/16/1
f 176/13/1 177/14/1 130/15/1 129/16/1
f 177/13/1 178/14/1 131/15/1 130/16/1
f 178/13/1 179/14/1 132/15/1 131/16/1
f 179/13/1 180/14/1 133/15/1 132/16/1
f 180/13/1 181/14/1 134/15/1 133/16/1
f 181/13/1 182/14/1 135/15/1 134/16/1
f 182/13/1 183/14/1 137/15/1 135/16/1
f 183/13/1 184/14/1 139/15/1 137/16/1
f 184/13/1 185/14/1 141/15/1 139/16/1
f 186/5/1 187/6/1 188/7/1 189/8/1
f 187/5/1 190/6/1 191/7/1 188/8/1
f 190/9/1 192/10/1 193/11/1 191/12/1
f 194/1/1 195/2/1 196/3/1 197/4/1
f 195/5/1 198/6/1 199/7/1 196/8/1
f 198/5/1 200/6/1 143/7/1 199/8/1
f 200/13/1 201/14/1 144/15/1 143/16/1
f 201/13/1 202/14/1 147/15/1 144/16/1
f 202/13/1 203/14/1 149/15/1 147/16/1
f 203/13/1 204/14/1 151/15/1 149/16/1
f 204/13/1 205/14/1 153/15/1 151/16/1
f 205/13/1 206/14/1 155/15/1 153/16/1
f 206/5/1 207/6/1 208/7/1 155/8/1
f 207/25/1 209/26/1 210/27/1 208/28/1
f 209/29/1 211/30/1 212/31/1 210/32/1
f 211/29/1 213/30/1 214/31/1 212/32/1
f 213/33/1 215/34/1 216/35/1 214/36/1
f 215/5/1 217/6/1 218/7/1 216/8/1
f 217/5/1 219/6/1 220/7/1 218/8/1
f 219/5/1 221/6/1 222/7/1 220/8/1
f 221/5/1 223/6/1 224/7/1 222/8/1
f 223/5/1 225/6/1 226/7/1 224/8/1
f 225/5/1 227/6/1 228/7/1 226/8/1
f 227/5/1 229/6/1 157/7/1 228/8/1
f 229/5/1 230/6/1 158/7/1 157/8/1
f 230/5/1 231/6/1 159/7/1 158/8/1
f 231/5/1 232/6/1 160/7/1 159/8/1
f 232/5/1 233/6/1 161/7/1 160/8/1
f 233/5/1 234/6/1 162/7/1 161/8/1
f 234/5/1 235/6/1 163/7/1 162/8/1
f 235/5/1 236/6/1 164/7/1 163/8/1
f 236/5/1 237/6/1 165/7/1 164/8/1
f 237/5/1 238/6/1 239/7/1 165/8/1
f 238/5/1 240/6/1 241/7/1 239/8/1
f 240/5/1 242/6/1 243/7/1 241/8/1
f 242/5/1 244/6/1 245/7/1 243/8/1
f 244/5/1 246/6/1 247/7/1 245/8/1
f 246/5/1 248/6/1 249/7/1 247/8/1
f 248/5/1 250/6/1 251/7/1 249/8/1
f 250/5/1 252/6/1 253/7/1 251/8/1
f 252/5/1 254/6/1 255/7/1 253/8/1
f 254/5/1 256/6/1 257/7/1 255/8/1
f 256/5/1 258/6/1 259/7/1 257/8/1
f 258/5/1 260/6/1 166/7/1 259/8/1
f 260/13/1 261/14/1 167/15/1 166/16/1
f 261/13/1 262/14/1 168/15/1 167/16/1
f 262/13/1 263/14/1 169/15/1 168/16/1
f 263/13/1 264/14/1 170/15/1 169/16/1
f 264/13/1 265/14/1 171/15/1 170/16/1
f 265/13/1 266/14/1 172/15/1 171/16/1
f 266/13/1 267/14/1 173/15/1 172/16/1
f 267/13/1 268/14/1 174/15/1 173/16/1
f 268/13/1 269/14/1 175/15/1 174/16/1
f 269/13/1 270/14/1 176/15/1 175/16/1
f 270/13/1 271/14/1 177/15/1 176/16/1
f 271/13/1 272/14/1 178/15/1 177/16/1
f 272/13/1 273/14/1 179/15/1 178/16/1
f 273/13/1 274/14/1 180/15/1 179/16/1
f 274/13/1 275/14/1 181/15/1 180/16/1
f 275/13/1 276/14/1 182/15/1 181/16/1
f 276/13/1 277/14/1 183/15/1 182/16/1
f 277/13/1 278/14/1 184/15/1 183/16/1
f 278/13/1 279/14/1 185/15/1 184/16/1
f 280/13/1 281/14/1 187/15/1 186/16/1
f 281/13/1 282/14/1 190/15/1 187/16/1
f 282/13/1 283/14/1 192/15/1 190/16/1
f 283/5/1 284/6/1 285/7/1 192/8/1
f 284/5/1 286/6/1 287/7/1 285/8/1
f 286/5/1 288/6/1 194/7/1 287/8/1
f 288/13/1 289/14/1 195/15/1 194/16/1
f 289/13/1 290/14/1 198/15/1 195/16/1
f 290/13/1 291/14/1 200/15/1 198/16/1
f 291/13/1 292/14/1 201/15/1 200/16/1
f 292/13/1 293/14/1 202/15/1 201/16/1
f 293/13/1 294/14/1 203/15/1 202/16/1
f 294/13/1 295/14/1 204/15/1 203/16/1
f 295/13/1 296/14/1 205/15/1 204/16/1
f 296/13/1 297/14/1 206/15/1 205/16/1
f 297/13/1 298/14/1 207/15/1 206/16/1
f 298/13/1 299/14/1 209/15/1 207/16/1
f 299/13/1 300/14/1 211/15/1 209/16/1
f 300/13/1 301/14/1 213/15/1 211/16/1
f 301/13/1 302/14/1 215/15/1 213/16/1
f 302/13/1 303/14/1 217/15/1 215/16/1
f 303/13/1 304/14/1 219/15/1 217/16/1
f 304/13/1 305/14/1 221/15/1 219/16/1
f 305/13/1 306/14/1 223/15/1 221/16/1
f 306/13/1 307/14/1 225/15/1 223/16/1
f 307/13/1 308/14/1 227/15/1 225/16/1
f 308/13/1 309/14/1 229/15/1 227/16/1
f 309/13/1 310/14/1 230/15/1 229/16/1
f 310/13/1 311/14/1 231/15/1 230/16/1
f 311/13/1 312/14/1 232/15/1 231/16/1
f 312/13/1 313/14/1 233/15/1 232/16/1
f 313/13/1 314/14/1 234/15/1 233/16/1
f 314/13/1 315/14/1 235/15/1 234/16/1
f 315/13/1 316/14/1 236/15/1 235/16/1
f 316/13/1 317/14/1 237/15/1 236/16/1
f 317/13/1 318/14/1 238/15/1 237/16/1
f 318/13/1 319/14/1 240/15/1 238/16/1
f 319/13/1 320/14/1 242/15/1 240/16/1
f 320/13/1 321/14/1 244/15/1 242/16/1
f 321/13/1 322/14/1 246/15/1 244/16/1
f 322/13/1 323/14/1 248/15/1 246/16/1
f 323/13/1 324/14/1 250/15/1 248/16/1
f 324/13/1 325/14/1 252/15/1 250/16/1
f 325/13/1 326/14/1 254/15/1 252/16/1
f 326/13/1 327/14/1 256/15/1 254/16/1
f 327/13/1 328/14/1 258/15/1 256/16/1
f 328/13/1 329/14/1 260/15/1 258/16/1
f 329/13/1 330/14/1 261/15/1 260/16/1
f 330/13/1 331/14/1 262/15/1 261/16/1
f 331/13/1 332/14/1 263/15/1 262/16/1
f 332/13/1 333/14/1 264/15/1 263/16/1
f 333/13/1 334/14/1 265/15/1 264/16/1
f 334/13/1 335/14/1 266/15/1 265/16/1
f 335/13/1 336/14/1 267/15/1 266/16/1
f 336/13/1 337/14/1 268/15/1 267/16/1
f 337/13/1 338/14/1 269/15/1 268/16/1
f 338/13/1 339/14/1 270/15/1 269/16/1
f 339/13/1 340/14/1 271/15/1 270/16/1
f 340/13/1 341/14/1 272/15/1 271/16/1
f 341/13/1 342/14/1 273/15/1 272/16/1
f 342/13/1 343/14/1 274/15/1 273/16/1
f 343/13/1 344/14/1 275/15/1 274/16/1
f 344/13/1 345/14/1 276/15/1 275/16/1
f 345/13/1 346/14/1 277/15/1 276/16/1
f 346/13/1 347/14/1 278/15/1 277/16/1
f 347/13/1 348/14/1 279/15/1 278/16/1
f 349/13/1 350/14/1 281/15/1 280/16/1
f 350/13/1 351/14/1 282/15/1 281/16/1
f 351/13/1 352/14/1 283/15/1 282/16/1
f 352/13/1 353/14/1 284/15/1 283/16/1
f 353/13/1 354/14/1 286/15/1 284/16/1
f 354/13/1 355/14/1 288/15/1 286/16/1
f 355/13/1 356/14/1 289/15/1 288/16/1
f 356/13/1 357/14/1 290/15/1 289/16/1
f 357/13/1 358/14/1 291/15/1 290/16/1
f 358/13/1 359/14/1 292/15/1 291/16/1
f 359/13/1 360/14/1 293/15/1 292/16/1
f 360/13/1 361/14/1 294/15/1 293/16/1
f 361/13/1 362/14/1 295/15/1 294/16/1
f 362/13/1 363/14/1 296/15/1 295/16/1
f 363/13/1 364/14/1 297/15/1 296/16/1
f 364/13/1 365/14/1 298/15/1 297/16/1
f 365/13/1 366/14/1 299/15/1 298/16/1
f 366/13/1 367/14/1 300/15/1 299/16/1
f 367/13/1 368/14/1 301/15/1 300/16/1
f 368/13/1 369/14/1 302/15/1 301/16/1
f 369/13/1 370/14/1 303/15/1 302/16/1
f 370/13/1 371/14/1 304/15/1 303/16/1
f 371/13/1 372/14/1 305/15/1 304/16/1
f 372/13/1 373/14/1 306/15/1 305/16/1
f 373/13/1 374/14/1 307/15/1 306/16/1
f 374/13/1 375/14/1 308/15/1 307/16/1
f 375/13/1 376/14/1 309/15/1 308/16/1
f 376/13/1 377/14/1 310/15/1 309/16/1
f 377/13/1 378/14/1 311/15/1 310/16/1
f 378/13/1 379/14/1 312/15/1 311/16/1
f 379/13/1 380/14/1 313/15/1 312/16/1
f 380/13/1 381/14/1 314/15/1 313/16/1
f 381/13/1 382/14/1 315/15/1 314/16/1
f 382/13/1 383/14/1 316/15/1 315/16/1
f 383/13/1 384/14/1 317/15/1 316/16/1
f 384/13/1 385/14/1 318/15/1 317/16/1
f 385/13/1 386/14/1 319/15/1 318/16/1
f 386/13/1 387/14/1 320/15/1 319/16/1
f 387/13/1 388/14/1 321/15/1 320/16/1
f 388/13/1 389/14/1 322/15/1 321/16/1
f 389/13/1 390/14/1 323/15/1 322/16/1
f 390/13/1 391/14/1 324/15/1 323/16/1
f 391/13/1 392/14/1 325/15/1 324/16/1
f 392/13/1 393/14/1 326/15/1 325/16/1
f 393/13/1 394/14/1 327/15/1 326/16/1
f 394/13/1 395/14/1 328/15/1 327/16/1
f 395/13/1 396/14/1 329/15/1 328/16/1
f 396/13/1 397/14/1 330/15/1 329/16/1
f 397/13/1 398/14/1 331/15/1 330/16/1
f 398/13/1 399/14/1 332/15/1 331/16/1
f 399/13/1 400/14/1 333/15/1 332/16/1
f 400/13/1 401/14/1 334/15/1 333/16/1
f 401/13/1 402/14/1 335/15/1 334/16/1
f 402/13/1 403/14/1 336/15/1 335/16/1
f 403/13/1 404/14/1 337/15/1 336/16/1
f 404/13/1 405/14/1 338/15/1 337/16/1
f 405/13/1 406/14/1 339/15/1 338/16/1
f 406/13/1 407/14/1 340/15/1 339/16/1
f 407/13/1 408/14/1 341/15/1 340/16/1
f 408/13/1 409/14/1 342/15/1 341/16/1
f 409/13/1 410/14/1 343/15/1 342/16/1
f 410/13/1 411/14/1 344/15/1 343/16/1
f 411/13/1 412/14/1 345/15/1 344/16/1
f 412/13/1 413/14/1 346/15/1 345/16/1
f 413/13/1 414/14/1 347/15/1 346/16/1
f 414/13/1 415/14/1 348/15/1 347/16/1

