# Wavefront OBJ file automatically generated by Tiled2Unity

# Vertices (Count = 197)
v -2.88 -4.8 0
v -3.2 -4.8 0
v -3.2 -4.48 0
v -2.88 -4.48 0
v -3.52 -4.8 0
v -3.52 -4.48 0
v -3.84 -4.8 0
v -3.84 -4.48 0
v -4.16 -4.8 0
v -4.16 -4.48 0
v -4.48 -4.8 0
v -4.48 -4.48 0
v -7.04 -4.8 0
v -7.36 -4.8 0
v -7.36 -4.48 0
v -7.04 -4.48 0
v -7.68 -4.8 0
v -7.68 -4.48 0
v -8 -4.8 0
v -8 -4.48 0
v -8.32 -4.8 0
v -8.32 -4.48 0
v -8.639999 -4.8 0
v -8.639999 -4.48 0
v -8.96 -4.8 0
v -8.96 -4.48 0
v -2.88 -5.12 0
v -3.2 -5.12 0
v -3.52 -5.12 0
v -3.84 -5.12 0
v -4.16 -5.12 0
v -4.48 -5.12 0
v -7.04 -5.12 0
v -7.36 -5.12 0
v -7.68 -5.12 0
v -8 -5.12 0
v -8.32 -5.12 0
v -8.639999 -5.12 0
v -8.96 -5.12 0
v -1.92 -5.44 0
v -2.24 -5.44 0
v -2.24 -5.12 0
v -1.92 -5.12 0
v -2.56 -5.44 0
v -2.56 -5.12 0
v -2.88 -5.44 0
v -3.2 -5.44 0
v -3.52 -5.44 0
v -3.84 -5.44 0
v -4.16 -5.44 0
v -4.48 -5.44 0
v -4.8 -5.44 0
v -4.8 -5.12 0
v -5.12 -5.44 0
v -5.12 -5.12 0
v -5.44 -5.44 0
v -5.44 -5.12 0
v -7.04 -5.44 0
v -7.36 -5.44 0
v -7.68 -5.44 0
v -8 -5.44 0
v -8.32 -5.44 0
v -8.639999 -5.44 0
v -8.96 -5.44 0
v -9.28 -5.44 0
v -9.28 -5.12 0
v -9.599999 -5.44 0
v -9.599999 -5.12 0
v -9.92 -5.44 0
v -9.92 -5.12 0
v -10.24 -5.44 0
v -10.24 -5.12 0
v -10.56 -5.44 0
v -10.56 -5.12 0
v -1.92 -5.76 0
v -2.24 -5.76 0
v -2.56 -5.76 0
v -2.88 -5.76 0
v -3.2 -5.76 0
v -3.52 -5.76 0
v -3.84 -5.76 0
v -4.16 -5.76 0
v -4.48 -5.76 0
v -4.8 -5.76 0
v -5.12 -5.76 0
v -5.44 -5.76 0
v -7.04 -5.76 0
v -7.36 -5.76 0
v -7.68 -5.76 0
v -8 -5.76 0
v -8.32 -5.76 0
v -8.639999 -5.76 0
v -8.96 -5.76 0
v -9.28 -5.76 0
v -9.599999 -5.76 0
v -9.92 -5.76 0
v -10.24 -5.76 0
v -10.56 -5.76 0
v 0 -6.08 0
v -0.32 -6.08 0
v -0.32 -5.76 0
v 0 -5.76 0
v -0.64 -6.08 0
v -0.64 -5.76 0
v -0.96 -6.08 0
v -0.96 -5.76 0
v -1.28 -6.08 0
v -1.28 -5.76 0
v -1.6 -6.08 0
v -1.6 -5.76 0
v -1.92 -6.08 0
v -2.24 -6.08 0
v -2.56 -6.08 0
v -2.88 -6.08 0
v -3.2 -6.08 0
v -3.52 -6.08 0
v -3.84 -6.08 0
v -4.16 -6.08 0
v -4.48 -6.08 0
v -4.8 -6.08 0
v -5.12 -6.08 0
v -5.44 -6.08 0
v -5.76 -6.08 0
v -5.76 -5.76 0
v -6.08 -6.08 0
v -6.08 -5.76 0
v -6.4 -6.08 0
v -6.4 -5.76 0
v -6.72 -6.08 0
v -6.72 -5.76 0
v -7.04 -6.08 0
v -7.36 -6.08 0
v -7.68 -6.08 0
v -8 -6.08 0
v -8.32 -6.08 0
v -8.639999 -6.08 0
v -8.96 -6.08 0
v -9.28 -6.08 0
v -9.599999 -6.08 0
v -9.92 -6.08 0
v -10.24 -6.08 0
v -10.56 -6.08 0
v -10.88 -6.08 0
v -10.88 -5.76 0
v -11.2 -6.08 0
v -11.2 -5.76 0
v -11.52 -6.08 0
v -11.52 -5.76 0
v -11.84 -6.08 0
v -11.84 -5.76 0
v -12.16 -6.08 0
v -12.16 -5.76 0
v -12.48 -6.08 0
v -12.48 -5.76 0
v -12.8 -6.08 0
v -12.8 -5.76 0
v 0 -6.4 0
v -0.32 -6.4 0
v -0.64 -6.4 0
v -0.96 -6.4 0
v -1.28 -6.4 0
v -1.6 -6.4 0
v -1.92 -6.4 0
v -2.24 -6.4 0
v -2.56 -6.4 0
v -2.88 -6.4 0
v -3.2 -6.4 0
v -3.52 -6.4 0
v -3.84 -6.4 0
v -4.16 -6.4 0
v -4.48 -6.4 0
v -4.8 -6.4 0
v -5.12 -6.4 0
v -5.44 -6.4 0
v -5.76 -6.4 0
v -6.08 -6.4 0
v -6.4 -6.4 0
v -6.72 -6.4 0
v -7.04 -6.4 0
v -7.36 -6.4 0
v -7.68 -6.4 0
v -8 -6.4 0
v -8.32 -6.4 0
v -8.639999 -6.4 0
v -8.96 -6.4 0
v -9.28 -6.4 0
v -9.599999 -6.4 0
v -9.92 -6.4 0
v -10.24 -6.4 0
v -10.56 -6.4 0
v -10.88 -6.4 0
v -11.2 -6.4 0
v -11.52 -6.4 0
v -11.84 -6.4 0
v -12.16 -6.4 0
v -12.48 -6.4 0
v -12.8 -6.4 0

# Texture cooridinates (Count = 36)
vt 2.034505E-05 0.8333537
vt 0.1666463 0.8333537
vt 0.1666463 0.9999797
vt 2.034505E-05 0.9999797
vt 0.166687 0.8333537
vt 0.333313 0.8333537
vt 0.333313 0.9999797
vt 0.166687 0.9999797
vt 0.3333537 0.8333537
vt 0.4999796 0.8333537
vt 0.4999796 0.9999797
vt 0.3333537 0.9999797
vt 2.034505E-05 0.666687
vt 0.1666463 0.666687
vt 0.1666463 0.833313
vt 2.034505E-05 0.833313
vt 0.166687 0.666687
vt 0.333313 0.666687
vt 0.333313 0.833313
vt 0.166687 0.833313
vt 0.3333537 0.666687
vt 0.4999796 0.666687
vt 0.4999796 0.833313
vt 0.3333537 0.833313
vt 0.8333537 0.166687
vt 0.9999797 0.166687
vt 0.9999797 0.333313
vt 0.8333537 0.333313
vt 0.5000203 0.166687
vt 0.6666463 0.166687
vt 0.6666463 0.333313
vt 0.5000203 0.333313
vt 0.666687 0.166687
vt 0.833313 0.166687
vt 0.833313 0.333313
vt 0.666687 0.333313

# Normal
vn 0 0 -1

# Groups (Count = 2)

g mesh_0001
f 1/1/1 2/2/1 3/3/1 4/4/1
f 2/5/1 5/6/1 6/7/1 3/8/1
f 5/5/1 7/6/1 8/7/1 6/8/1
f 7/5/1 9/6/1 10/7/1 8/8/1
f 9/9/1 11/10/1 12/11/1 10/12/1
f 13/1/1 14/2/1 15/3/1 16/4/1
f 14/5/1 17/6/1 18/7/1 15/8/1
f 17/5/1 19/6/1 20/7/1 18/8/1
f 19/5/1 21/6/1 22/7/1 20/8/1
f 21/5/1 23/6/1 24/7/1 22/8/1
f 23/9/1 25/10/1 26/11/1 24/12/1
f 27/13/1 28/14/1 2/15/1 1/16/1
f 28/17/1 29/18/1 5/19/1 2/20/1
f 29/17/1 30/18/1 7/19/1 5/20/1
f 30/17/1 31/18/1 9/19/1 7/20/1
f 31/21/1 32/22/1 11/23/1 9/24/1
f 33/13/1 34/14/1 14/15/1 13/16/1
f 34/17/1 35/18/1 17/19/1 14/20/1
f 35/17/1 36/18/1 19/19/1 17/20/1
f 36/17/1 37/18/1 21/19/1 19/20/1
f 37/17/1 38/18/1 23/19/1 21/20/1
f 38/21/1 39/22/1 25/23/1 23/24/1
f 40/1/1 41/2/1 42/3/1 43/4/1
f 41/5/1 44/6/1 45/7/1 42/8/1
f 44/5/1 46/6/1 27/7/1 45/8/1
f 46/17/1 47/18/1 28/19/1 27/20/1
f 47/17/1 48/18/1 29/19/1 28/20/1
f 48/17/1 49/18/1 30/19/1 29/20/1
f 49/17/1 50/18/1 31/19/1 30/20/1
f 50/17/1 51/18/1 32/19/1 31/20/1
f 51/5/1 52/6/1 53/7/1 32/8/1
f 52/5/1 54/6/1 55/7/1 53/8/1
f 54/9/1 56/10/1 57/11/1 55/12/1
f 58/13/1 59/14/1 34/15/1 33/16/1
f 59/17/1 60/18/1 35/19/1 34/20/1
f 60/17/1 61/18/1 36/19/1 35/20/1
f 61/17/1 62/18/1 37/19/1 36/20/1
f 62/17/1 63/18/1 38/19/1 37/20/1
f 63/17/1 64/18/1 39/19/1 38/20/1
f 64/5/1 65/6/1 66/7/1 39/8/1
f 65/5/1 67/6/1 68/7/1 66/8/1
f 67/5/1 69/6/1 70/7/1 68/8/1
f 69/5/1 71/6/1 72/7/1 70/8/1
f 71/9/1 73/10/1 74/11/1 72/12/1
f 75/13/1 76/14/1 41/15/1 40/16/1
f 76/17/1 77/18/1 44/19/1 41/20/1
f 77/17/1 78/18/1 46/19/1 44/20/1
f 78/17/1 79/18/1 47/19/1 46/20/1
f 79/17/1 80/18/1 48/19/1 47/20/1
f 80/17/1 81/18/1 49/19/1 48/20/1
f 81/17/1 82/18/1 50/19/1 49/20/1
f 82/17/1 83/18/1 51/19/1 50/20/1
f 83/17/1 84/18/1 52/19/1 51/20/1
f 84/17/1 85/18/1 54/19/1 52/20/1
f 85/21/1 86/22/1 56/23/1 54/24/1
f 87/13/1 88/14/1 59/15/1 58/16/1
f 88/17/1 89/18/1 60/19/1 59/20/1
f 89/17/1 90/18/1 61/19/1 60/20/1
f 90/17/1 91/18/1 62/19/1 61/20/1
f 91/17/1 92/18/1 63/19/1 62/20/1
f 92/17/1 93/18/1 64/19/1 63/20/1
f 93/17/1 94/18/1 65/19/1 64/20/1
f 94/17/1 95/18/1 67/19/1 65/20/1
f 95/17/1 96/18/1 69/19/1 67/20/1
f 96/17/1 97/18/1 71/19/1 69/20/1
f 97/21/1 98/22/1 73/23/1 71/24/1
f 99/1/1 100/2/1 101/3/1 102/4/1
f 100/5/1 103/6/1 104/7/1 101/8/1
f 103/5/1 105/6/1 106/7/1 104/8/1
f 105/5/1 107/6/1 108/7/1 106/8/1
f 107/5/1 109/6/1 110/7/1 108/8/1
f 109/5/1 111/6/1 75/7/1 110/8/1
f 111/17/1 112/18/1 76/19/1 75/20/1
f 112/17/1 113/18/1 77/19/1 76/20/1
f 113/17/1 114/18/1 78/19/1 77/20/1
f 114/17/1 115/18/1 79/19/1 78/20/1
f 115/17/1 116/18/1 80/19/1 79/20/1
f 116/17/1 117/18/1 81/19/1 80/20/1
f 117/17/1 118/18/1 82/19/1 81/20/1
f 118/17/1 119/18/1 83/19/1 82/20/1
f 119/17/1 120/18/1 84/19/1 83/20/1
f 120/17/1 121/18/1 85/19/1 84/20/1
f 121/17/1 122/18/1 86/19/1 85/20/1
f 122/5/1 123/6/1 124/7/1 86/8/1
f 123/5/1 125/6/1 126/7/1 124/8/1
f 125/5/1 127/6/1 128/7/1 126/8/1
f 127/5/1 129/6/1 130/7/1 128/8/1
f 129/5/1 131/6/1 87/7/1 130/8/1
f 131/17/1 132/18/1 88/19/1 87/20/1
f 132/17/1 133/18/1 89/19/1 88/20/1
f 133/17/1 134/18/1 90/19/1 89/20/1
f 134/17/1 135/18/1 91/19/1 90/20/1
f 135/17/1 136/18/1 92/19/1 91/20/1
f 136/17/1 137/18/1 93/19/1 92/20/1
f 137/17/1 138/18/1 94/19/1 93/20/1
f 138/17/1 139/18/1 95/19/1 94/20/1
f 139/17/1 140/18/1 96/19/1 95/20/1
f 140/17/1 141/18/1 97/19/1 96/20/1
f 141/17/1 142/18/1 98/19/1 97/20/1
f 142/5/1 143/6/1 144/7/1 98/8/1
f 143/5/1 145/6/1 146/7/1 144/8/1
f 145/5/1 147/6/1 148/7/1 146/8/1
f 147/5/1 149/6/1 150/7/1 148/8/1
f 149/5/1 151/6/1 152/7/1 150/8/1
f 151/5/1 153/6/1 154/7/1 152/8/1
f 153/5/1 155/6/1 156/7/1 154/8/1
f 157/17/1 158/18/1 100/19/1 99/20/1
f 158/17/1 159/18/1 103/19/1 100/20/1
f 159/17/1 160/18/1 105/19/1 103/20/1
f 160/17/1 161/18/1 107/19/1 105/20/1
f 161/17/1 162/18/1 109/19/1 107/20/1
f 162/17/1 163/18/1 111/19/1 109/20/1
f 163/17/1 164/18/1 112/19/1 111/20/1
f 164/17/1 165/18/1 113/19/1 112/20/1
f 165/17/1 166/18/1 114/19/1 113/20/1
f 166/17/1 167/18/1 115/19/1 114/20/1
f 167/17/1 168/18/1 116/19/1 115/20/1
f 168/17/1 169/18/1 117/19/1 116/20/1
f 169/17/1 170/18/1 118/19/1 117/20/1
f 170/17/1 171/18/1 119/19/1 118/20/1
f 171/17/1 172/18/1 120/19/1 119/20/1
f 172/17/1 173/18/1 121/19/1 120/20/1
f 173/17/1 174/18/1 122/19/1 121/20/1
f 174/17/1 175/18/1 123/19/1 122/20/1
f 175/17/1 176/18/1 125/19/1 123/20/1
f 176/17/1 177/18/1 127/19/1 125/20/1
f 177/17/1 178/18/1 129/19/1 127/20/1
f 178/17/1 179/18/1 131/19/1 129/20/1
f 179/17/1 180/18/1 132/19/1 131/20/1
f 180/17/1 181/18/1 133/19/1 132/20/1
f 181/17/1 182/18/1 134/19/1 133/20/1
f 182/17/1 183/18/1 135/19/1 134/20/1
f 183/17/1 184/18/1 136/19/1 135/20/1
f 184/17/1 185/18/1 137/19/1 136/20/1
f 185/17/1 186/18/1 138/19/1 137/20/1
f 186/17/1 187/18/1 139/19/1 138/20/1
f 187/17/1 188/18/1 140/19/1 139/20/1
f 188/17/1 189/18/1 141/19/1 140/20/1
f 189/17/1 190/18/1 142/19/1 141/20/1
f 190/17/1 191/18/1 143/19/1 142/20/1
f 191/17/1 192/18/1 145/19/1 143/20/1
f 192/17/1 193/18/1 147/19/1 145/20/1
f 193/17/1 194/18/1 149/19/1 147/20/1
f 194/17/1 195/18/1 151/19/1 149/20/1
f 195/17/1 196/18/1 153/19/1 151/20/1
f 196/17/1 197/18/1 155/19/1 153/20/1

g mesh_0002
f 127/25/1 129/26/1 130/27/1 128/28/1
f 132/25/1 133/26/1 89/27/1 88/28/1
f 153/25/1 155/26/1 156/27/1 154/28/1
f 177/25/1 178/26/1 129/27/1 127/28/1
f 180/29/1 181/30/1 133/31/1 132/32/1
f 181/33/1 182/34/1 134/35/1 133/36/1
f 196/25/1 197/26/1 155/27/1 153/28/1

