# Wavefront OBJ file automatically generated by Tiled2Unity

# Vertices (Count = 237)
v -7.36 -1.6 0
v -7.68 -1.6 0
v -7.68 -1.28 0
v -7.36 -1.28 0
v -8 -1.6 0
v -8 -1.28 0
v -8.32 -1.6 0
v -8.32 -1.28 0
v -8.639999 -1.6 0
v -8.96 -1.6 0
v -8.96 -1.28 0
v -8.639999 -1.28 0
v -9.28 -1.6 0
v -9.28 -1.28 0
v -9.599999 -1.6 0
v -9.599999 -1.28 0
v -7.36 -1.92 0
v -7.68 -1.92 0
v -8 -1.92 0
v -8.32 -1.92 0
v -8.639999 -1.92 0
v -8.96 -1.92 0
v -9.28 -1.92 0
v -9.599999 -1.92 0
v -8.639999 -2.24 0
v -8.96 -2.24 0
v -9.28 -2.24 0
v -9.599999 -2.24 0
v -8.639999 -2.56 0
v -8.96 -2.56 0
v -9.28 -2.56 0
v -9.599999 -2.56 0
v -10.56 -2.56 0
v -10.88 -2.56 0
v -10.88 -2.24 0
v -10.56 -2.24 0
v -11.2 -2.56 0
v -11.2 -2.24 0
v -11.52 -2.56 0
v -11.52 -2.24 0
v -8.639999 -2.88 0
v -8.96 -2.88 0
v -9.28 -2.88 0
v -9.599999 -2.88 0
v -10.56 -2.88 0
v -10.88 -2.88 0
v -11.2 -2.88 0
v -11.52 -2.88 0
v -2.24 -3.2 0
v -2.56 -3.2 0
v -2.56 -2.88 0
v -2.24 -2.88 0
v -2.88 -3.2 0
v -2.88 -2.88 0
v -3.2 -3.2 0
v -3.2 -2.88 0
v -3.52 -3.2 0
v -3.52 -2.88 0
v -3.84 -3.2 0
v -3.84 -2.88 0
v -4.16 -3.2 0
v -4.16 -2.88 0
v -8.639999 -3.2 0
v -8.96 -3.2 0
v -9.28 -3.2 0
v -9.599999 -3.2 0
v -2.24 -3.52 0
v -2.56 -3.52 0
v -2.88 -3.52 0
v -3.2 -3.52 0
v -3.52 -3.52 0
v -3.84 -3.52 0
v -4.16 -3.52 0
v -8.639999 -3.52 0
v -8.96 -3.52 0
v -9.28 -3.52 0
v -9.599999 -3.52 0
v -8.639999 -3.84 0
v -8.96 -3.84 0
v -9.28 -3.84 0
v -9.599999 -3.84 0
v -5.44 -4.16 0
v -5.76 -4.16 0
v -5.76 -3.84 0
v -5.44 -3.84 0
v -6.08 -4.16 0
v -6.08 -3.84 0
v -6.4 -4.16 0
v -6.4 -3.84 0
v -6.72 -4.16 0
v -6.72 -3.84 0
v -7.04 -4.16 0
v -7.04 -3.84 0
v -7.36 -4.16 0
v -7.36 -3.84 0
v -8.639999 -4.16 0
v -8.96 -4.16 0
v -9.28 -4.16 0
v -9.599999 -4.16 0
v -5.44 -4.48 0
v -5.76 -4.48 0
v -6.08 -4.48 0
v -6.4 -4.48 0
v -6.72 -4.48 0
v -7.04 -4.48 0
v -7.36 -4.48 0
v -8.639999 -4.48 0
v -8.96 -4.48 0
v -9.28 -4.48 0
v -9.599999 -4.48 0
v -8.639999 -4.8 0
v -8.96 -4.8 0
v -9.28 -4.8 0
v -9.599999 -4.8 0
v -8.639999 -5.12 0
v -8.96 -5.12 0
v -9.28 -5.12 0
v -9.599999 -5.12 0
v -8.639999 -5.44 0
v -8.96 -5.44 0
v -9.28 -5.44 0
v -9.599999 -5.44 0
v -8.639999 -5.76 0
v -8.96 -5.76 0
v -9.28 -5.76 0
v -9.599999 -5.76 0
v -9.92 -5.76 0
v -9.92 -5.44 0
v -10.24 -5.76 0
v -10.24 -5.44 0
v -10.56 -5.76 0
v -10.56 -5.44 0
v -10.88 -5.76 0
v -10.88 -5.44 0
v -11.2 -5.76 0
v -11.2 -5.44 0
v -11.52 -5.76 0
v -11.52 -5.44 0
v -11.84 -5.76 0
v -11.84 -5.44 0
v -12.16 -5.76 0
v -12.16 -5.44 0
v -12.48 -5.76 0
v -12.48 -5.44 0
v -12.8 -5.76 0
v -12.8 -5.44 0
v 0 -6.08 0
v -0.32 -6.08 0
v -0.32 -5.76 0
v 0 -5.76 0
v -0.64 -6.08 0
v -0.64 -5.76 0
v -0.96 -6.08 0
v -0.96 -5.76 0
v -1.28 -6.08 0
v -1.28 -5.76 0
v -1.6 -6.08 0
v -1.6 -5.76 0
v -1.92 -6.08 0
v -1.92 -5.76 0
v -2.24 -6.08 0
v -2.24 -5.76 0
v -2.56 -6.08 0
v -2.56 -5.76 0
v -2.88 -6.08 0
v -2.88 -5.76 0
v -3.2 -6.08 0
v -3.2 -5.76 0
v -3.52 -6.08 0
v -3.52 -5.76 0
v -3.84 -6.08 0
v -3.84 -5.76 0
v -4.16 -6.08 0
v -4.16 -5.76 0
v -4.48 -6.08 0
v -4.48 -5.76 0
v -4.8 -6.08 0
v -4.8 -5.76 0
v -5.12 -6.08 0
v -5.12 -5.76 0
v -5.44 -6.08 0
v -5.44 -5.76 0
v -5.76 -6.08 0
v -5.76 -5.76 0
v -6.08 -6.08 0
v -6.08 -5.76 0
v -6.4 -6.08 0
v -6.4 -5.76 0
v -8.639999 -6.08 0
v -8.96 -6.08 0
v -9.28 -6.08 0
v -9.599999 -6.08 0
v -9.92 -6.08 0
v -10.24 -6.08 0
v -10.56 -6.08 0
v -10.88 -6.08 0
v -11.2 -6.08 0
v -11.52 -6.08 0
v -11.84 -6.08 0
v -12.16 -6.08 0
v -12.48 -6.08 0
v -12.8 -6.08 0
v 0 -6.4 0
v -0.32 -6.4 0
v -0.64 -6.4 0
v -0.96 -6.4 0
v -1.28 -6.4 0
v -1.6 -6.4 0
v -1.92 -6.4 0
v -2.24 -6.4 0
v -2.56 -6.4 0
v -2.88 -6.4 0
v -3.2 -6.4 0
v -3.52 -6.4 0
v -3.84 -6.4 0
v -4.16 -6.4 0
v -4.48 -6.4 0
v -4.8 -6.4 0
v -5.12 -6.4 0
v -5.44 -6.4 0
v -5.76 -6.4 0
v -6.08 -6.4 0
v -6.4 -6.4 0
v -8.639999 -6.4 0
v -8.96 -6.4 0
v -9.28 -6.4 0
v -9.599999 -6.4 0
v -9.92 -6.4 0
v -10.24 -6.4 0
v -10.56 -6.4 0
v -10.88 -6.4 0
v -11.2 -6.4 0
v -11.52 -6.4 0
v -11.84 -6.4 0
v -12.16 -6.4 0
v -12.48 -6.4 0
v -12.8 -6.4 0

# Texture cooridinates (Count = 48)
vt 2.034505E-05 0.6667074
vt 0.1666463 0.6667074
vt 0.1666463 0.9999593
vt 2.034505E-05 0.9999593
vt 0.166687 0.6667074
vt 0.333313 0.6667074
vt 0.333313 0.9999593
vt 0.166687 0.9999593
vt 0.3333537 0.6667074
vt 0.4999796 0.6667074
vt 0.4999796 0.9999593
vt 0.3333537 0.9999593
vt 2.034505E-05 4.070997E-05
vt 0.1666463 4.070997E-05
vt 0.1666463 0.3332927
vt 2.034505E-05 0.3332927
vt 0.166687 4.070997E-05
vt 0.333313 4.070997E-05
vt 0.333313 0.3332927
vt 0.166687 0.3332927
vt 0.3333537 4.070997E-05
vt 0.4999796 4.070997E-05
vt 0.4999796 0.3332927
vt 0.3333537 0.3332927
vt 2.034505E-05 0.333374
vt 0.1666463 0.333374
vt 0.1666463 0.666626
vt 2.034505E-05 0.666626
vt 0.166687 0.333374
vt 0.333313 0.333374
vt 0.333313 0.666626
vt 0.166687 0.666626
vt 0.3333537 0.333374
vt 0.4999796 0.333374
vt 0.4999796 0.666626
vt 0.3333537 0.666626
vt 0.5000203 0.6667074
vt 0.6666463 0.6667074
vt 0.6666463 0.9999593
vt 0.5000203 0.9999593
vt 0.666687 0.6667074
vt 0.833313 0.6667074
vt 0.833313 0.9999593
vt 0.666687 0.9999593
vt 0.8333537 0.6667074
vt 0.9999797 0.6667074
vt 0.9999797 0.9999593
vt 0.8333537 0.9999593

# Normal
vn 0 0 -1

# Groups (Count = 1)

g mesh_0001
f 1/1/1 2/2/1 3/3/1 4/4/1
f 2/5/1 5/6/1 6/7/1 3/8/1
f 5/9/1 7/10/1 8/11/1 6/12/1
f 9/1/1 10/2/1 11/3/1 12/4/1
f 10/5/1 13/6/1 14/7/1 11/8/1
f 13/9/1 15/10/1 16/11/1 14/12/1
f 17/13/1 18/14/1 2/15/1 1/16/1
f 18/17/1 19/18/1 5/19/1 2/20/1
f 19/21/1 20/22/1 7/23/1 5/24/1
f 21/25/1 22/26/1 10/27/1 9/28/1
f 22/29/1 23/30/1 13/31/1 10/32/1
f 23/33/1 24/34/1 15/35/1 13/36/1
f 25/25/1 26/26/1 22/27/1 21/28/1
f 26/29/1 27/30/1 23/31/1 22/32/1
f 27/33/1 28/34/1 24/35/1 23/36/1
f 29/25/1 30/26/1 26/27/1 25/28/1
f 30/29/1 31/30/1 27/31/1 26/32/1
f 31/33/1 32/34/1 28/35/1 27/36/1
f 33/1/1 34/2/1 35/3/1 36/4/1
f 34/5/1 37/6/1 38/7/1 35/8/1
f 37/9/1 39/10/1 40/11/1 38/12/1
f 41/25/1 42/26/1 30/27/1 29/28/1
f 42/29/1 43/30/1 31/31/1 30/32/1
f 43/33/1 44/34/1 32/35/1 31/36/1
f 45/13/1 46/14/1 34/15/1 33/16/1
f 46/17/1 47/18/1 37/19/1 34/20/1
f 47/21/1 48/22/1 39/23/1 37/24/1
f 49/1/1 50/2/1 51/3/1 52/4/1
f 50/5/1 53/6/1 54/7/1 51/8/1
f 53/5/1 55/6/1 56/7/1 54/8/1
f 55/5/1 57/6/1 58/7/1 56/8/1
f 57/5/1 59/6/1 60/7/1 58/8/1
f 59/9/1 61/10/1 62/11/1 60/12/1
f 63/25/1 64/26/1 42/27/1 41/28/1
f 64/29/1 65/30/1 43/31/1 42/32/1
f 65/33/1 66/34/1 44/35/1 43/36/1
f 67/13/1 68/14/1 50/15/1 49/16/1
f 68/17/1 69/18/1 53/19/1 50/20/1
f 69/17/1 70/18/1 55/19/1 53/20/1
f 70/17/1 71/18/1 57/19/1 55/20/1
f 71/17/1 72/18/1 59/19/1 57/20/1
f 72/21/1 73/22/1 61/23/1 59/24/1
f 74/1/1 75/2/1 64/3/1 63/4/1
f 75/5/1 76/6/1 65/7/1 64/8/1
f 76/9/1 77/10/1 66/11/1 65/12/1
f 78/25/1 79/26/1 75/27/1 74/28/1
f 79/29/1 80/30/1 76/31/1 75/32/1
f 80/33/1 81/34/1 77/35/1 76/36/1
f 82/1/1 83/2/1 84/3/1 85/4/1
f 83/5/1 86/6/1 87/7/1 84/8/1
f 86/5/1 88/6/1 89/7/1 87/8/1
f 88/5/1 90/6/1 91/7/1 89/8/1
f 90/5/1 92/6/1 93/7/1 91/8/1
f 92/9/1 94/10/1 95/11/1 93/12/1
f 96/25/1 97/26/1 79/27/1 78/28/1
f 97/29/1 98/30/1 80/31/1 79/32/1
f 98/33/1 99/34/1 81/35/1 80/36/1
f 100/13/1 101/14/1 83/15/1 82/16/1
f 101/17/1 102/18/1 86/19/1 83/20/1
f 102/17/1 103/18/1 88/19/1 86/20/1
f 103/17/1 104/18/1 90/19/1 88/20/1
f 104/17/1 105/18/1 92/19/1 90/20/1
f 105/21/1 106/22/1 94/23/1 92/24/1
f 107/25/1 108/26/1 97/27/1 96/28/1
f 108/29/1 109/30/1 98/31/1 97/32/1
f 109/33/1 110/34/1 99/35/1 98/36/1
f 111/25/1 112/26/1 108/27/1 107/28/1
f 112/29/1 113/30/1 109/31/1 108/32/1
f 113/33/1 114/34/1 110/35/1 109/36/1
f 115/25/1 116/26/1 112/27/1 111/28/1
f 116/29/1 117/30/1 113/31/1 112/32/1
f 117/33/1 118/34/1 114/35/1 113/36/1
f 119/25/1 120/26/1 116/27/1 115/28/1
f 120/29/1 121/30/1 117/31/1 116/32/1
f 121/33/1 122/34/1 118/35/1 117/36/1
f 123/25/1 124/26/1 120/27/1 119/28/1
f 124/29/1 125/30/1 121/31/1 120/32/1
f 125/29/1 126/30/1 122/31/1 121/32/1
f 126/5/1 127/6/1 128/7/1 122/8/1
f 127/5/1 129/6/1 130/7/1 128/8/1
f 129/5/1 131/6/1 132/7/1 130/8/1
f 131/5/1 133/6/1 134/7/1 132/8/1
f 133/5/1 135/6/1 136/7/1 134/8/1
f 135/5/1 137/6/1 138/7/1 136/8/1
f 137/5/1 139/6/1 140/7/1 138/8/1
f 139/5/1 141/6/1 142/7/1 140/8/1
f 141/5/1 143/6/1 144/7/1 142/8/1
f 143/5/1 145/6/1 146/7/1 144/8/1
f 147/1/1 148/2/1 149/3/1 150/4/1
f 148/5/1 151/6/1 152/7/1 149/8/1
f 151/5/1 153/6/1 154/7/1 152/8/1
f 153/5/1 155/6/1 156/7/1 154/8/1
f 155/5/1 157/6/1 158/7/1 156/8/1
f 157/5/1 159/6/1 160/7/1 158/8/1
f 159/5/1 161/6/1 162/7/1 160/8/1
f 161/37/1 163/38/1 164/39/1 162/40/1
f 163/41/1 165/42/1 166/43/1 164/44/1
f 165/41/1 167/42/1 168/43/1 166/44/1
f 167/45/1 169/46/1 170/47/1 168/48/1
f 169/5/1 171/6/1 172/7/1 170/8/1
f 171/5/1 173/6/1 174/7/1 172/8/1
f 173/5/1 175/6/1 176/7/1 174/8/1
f 175/5/1 177/6/1 178/7/1 176/8/1
f 177/5/1 179/6/1 180/7/1 178/8/1
f 179/5/1 181/6/1 182/7/1 180/8/1
f 181/5/1 183/6/1 184/7/1 182/8/1
f 183/5/1 185/6/1 186/7/1 184/8/1
f 185/9/1 187/10/1 188/11/1 186/12/1
f 189/25/1 190/26/1 124/27/1 123/28/1
f 190/29/1 191/30/1 125/31/1 124/32/1
f 191/29/1 192/30/1 126/31/1 125/32/1
f 192/29/1 193/30/1 127/31/1 126/32/1
f 193/29/1 194/30/1 129/31/1 127/32/1
f 194/29/1 195/30/1 131/31/1 129/32/1
f 195/29/1 196/30/1 133/31/1 131/32/1
f 196/29/1 197/30/1 135/31/1 133/32/1
f 197/29/1 198/30/1 137/31/1 135/32/1
f 198/29/1 199/30/1 139/31/1 137/32/1
f 199/29/1 200/30/1 141/31/1 139/32/1
f 200/29/1 201/30/1 143/31/1 141/32/1
f 201/29/1 202/30/1 145/31/1 143/32/1
f 203/29/1 204/30/1 148/31/1 147/32/1
f 204/29/1 205/30/1 151/31/1 148/32/1
f 205/29/1 206/30/1 153/31/1 151/32/1
f 206/29/1 207/30/1 155/31/1 153/32/1
f 207/29/1 208/30/1 157/31/1 155/32/1
f 208/29/1 209/30/1 159/31/1 157/32/1
f 209/29/1 210/30/1 161/31/1 159/32/1
f 210/29/1 211/30/1 163/31/1 161/32/1
f 211/29/1 212/30/1 165/31/1 163/32/1
f 212/29/1 213/30/1 167/31/1 165/32/1
f 213/29/1 214/30/1 169/31/1 167/32/1
f 214/29/1 215/30/1 171/31/1 169/32/1
f 215/29/1 216/30/1 173/31/1 171/32/1
f 216/29/1 217/30/1 175/31/1 173/32/1
f 217/29/1 218/30/1 177/31/1 175/32/1
f 218/29/1 219/30/1 179/31/1 177/32/1
f 219/29/1 220/30/1 181/31/1 179/32/1
f 220/29/1 221/30/1 183/31/1 181/32/1
f 221/29/1 222/30/1 185/31/1 183/32/1
f 222/33/1 223/34/1 187/35/1 185/36/1
f 224/25/1 225/26/1 190/27/1 189/28/1
f 225/29/1 226/30/1 191/31/1 190/32/1
f 226/29/1 227/30/1 192/31/1 191/32/1
f 227/29/1 228/30/1 193/31/1 192/32/1
f 228/29/1 229/30/1 194/31/1 193/32/1
f 229/29/1 230/30/1 195/31/1 194/32/1
f 230/29/1 231/30/1 196/31/1 195/32/1
f 231/29/1 232/30/1 197/31/1 196/32/1
f 232/29/1 233/30/1 198/31/1 197/32/1
f 233/29/1 234/30/1 199/31/1 198/32/1
f 234/29/1 235/30/1 200/31/1 199/32/1
f 235/29/1 236/30/1 201/31/1 200/32/1
f 236/29/1 237/30/1 202/31/1 201/32/1

