# Wavefront OBJ file automatically generated by Tiled2Unity

# Vertices (Count = 218)
v -2.88 -3.84 0
v -3.2 -3.84 0
v -3.2 -3.52 0
v -2.88 -3.52 0
v -3.52 -3.84 0
v -3.52 -3.52 0
v -3.84 -3.84 0
v -3.84 -3.52 0
v -4.16 -3.84 0
v -4.16 -3.52 0
v -2.88 -4.16 0
v -3.2 -4.16 0
v -3.52 -4.16 0
v -3.84 -4.16 0
v -4.16 -4.16 0
v -2.88 -4.48 0
v -3.2 -4.48 0
v -3.52 -4.48 0
v -3.84 -4.48 0
v -4.16 -4.48 0
v -1.6 -4.8 0
v -1.92 -4.8 0
v -1.92 -4.48 0
v -1.6 -4.48 0
v -2.24 -4.8 0
v -2.24 -4.48 0
v -2.56 -4.8 0
v -2.56 -4.48 0
v -2.88 -4.8 0
v -3.2 -4.8 0
v -3.52 -4.8 0
v -3.84 -4.8 0
v -4.16 -4.8 0
v -5.44 -4.8 0
v -5.76 -4.8 0
v -5.76 -4.48 0
v -5.44 -4.48 0
v -6.08 -4.8 0
v -6.08 -4.48 0
v -6.4 -4.8 0
v -6.4 -4.48 0
v -6.72 -4.8 0
v -6.72 -4.48 0
v -1.6 -5.12 0
v -1.92 -5.12 0
v -2.24 -5.12 0
v -2.56 -5.12 0
v -2.88 -5.12 0
v -3.2 -5.12 0
v -3.52 -5.12 0
v -3.84 -5.12 0
v -4.16 -5.12 0
v -5.44 -5.12 0
v -5.76 -5.12 0
v -6.08 -5.12 0
v -6.4 -5.12 0
v -6.72 -5.12 0
v -1.6 -5.44 0
v -1.92 -5.44 0
v -2.24 -5.44 0
v -2.56 -5.44 0
v -2.88 -5.44 0
v -3.2 -5.44 0
v -3.52 -5.44 0
v -3.84 -5.44 0
v -4.16 -5.44 0
v -4.48 -5.44 0
v -4.48 -5.12 0
v -4.8 -5.44 0
v -4.8 -5.12 0
v -5.12 -5.44 0
v -5.12 -5.12 0
v -5.44 -5.44 0
v -5.76 -5.44 0
v -6.08 -5.44 0
v -6.4 -5.44 0
v -6.72 -5.44 0
v -7.04 -5.44 0
v -7.36 -5.44 0
v -7.36 -5.12 0
v -7.04 -5.12 0
v -7.68 -5.44 0
v -7.68 -5.12 0
v -8 -5.44 0
v -8 -5.12 0
v -8.32 -5.44 0
v -8.32 -5.12 0
v -8.639999 -5.44 0
v -8.639999 -5.12 0
v -8.96 -5.44 0
v -8.96 -5.12 0
v -9.28 -5.44 0
v -9.28 -5.12 0
v -9.599999 -5.44 0
v -9.599999 -5.12 0
v -1.6 -5.76 0
v -1.92 -5.76 0
v -2.24 -5.76 0
v -2.56 -5.76 0
v -2.88 -5.76 0
v -3.2 -5.76 0
v -3.52 -5.76 0
v -3.84 -5.76 0
v -4.16 -5.76 0
v -4.48 -5.76 0
v -4.8 -5.76 0
v -5.12 -5.76 0
v -5.44 -5.76 0
v -5.76 -5.76 0
v -6.08 -5.76 0
v -6.4 -5.76 0
v -6.72 -5.76 0
v -7.04 -5.76 0
v -7.36 -5.76 0
v -7.68 -5.76 0
v -8 -5.76 0
v -8.32 -5.76 0
v -8.639999 -5.76 0
v -8.96 -5.76 0
v -9.28 -5.76 0
v -9.599999 -5.76 0
v 0 -6.08 0
v -0.32 -6.08 0
v -0.32 -5.76 0
v 0 -5.76 0
v -0.64 -6.08 0
v -0.64 -5.76 0
v -0.96 -6.08 0
v -0.96 -5.76 0
v -1.28 -6.08 0
v -1.28 -5.76 0
v -1.6 -6.08 0
v -1.92 -6.08 0
v -2.24 -6.08 0
v -2.56 -6.08 0
v -2.88 -6.08 0
v -3.2 -6.08 0
v -3.52 -6.08 0
v -3.84 -6.08 0
v -4.16 -6.08 0
v -4.48 -6.08 0
v -4.8 -6.08 0
v -5.12 -6.08 0
v -5.44 -6.08 0
v -5.76 -6.08 0
v -6.08 -6.08 0
v -6.4 -6.08 0
v -6.72 -6.08 0
v -7.04 -6.08 0
v -7.36 -6.08 0
v -7.68 -6.08 0
v -8 -6.08 0
v -8.32 -6.08 0
v -8.639999 -6.08 0
v -8.96 -6.08 0
v -9.28 -6.08 0
v -9.599999 -6.08 0
v -9.92 -6.08 0
v -9.92 -5.76 0
v -10.24 -6.08 0
v -10.24 -5.76 0
v -10.56 -6.08 0
v -10.56 -5.76 0
v -10.88 -6.08 0
v -10.88 -5.76 0
v -11.2 -6.08 0
v -11.2 -5.76 0
v -11.52 -6.08 0
v -11.52 -5.76 0
v -11.84 -6.08 0
v -11.84 -5.76 0
v -12.16 -6.08 0
v -12.16 -5.76 0
v -12.48 -6.08 0
v -12.48 -5.76 0
v -12.8 -6.08 0
v -12.8 -5.76 0
v 0 -6.4 0
v -0.32 -6.4 0
v -0.64 -6.4 0
v -0.96 -6.4 0
v -1.28 -6.4 0
v -1.6 -6.4 0
v -1.92 -6.4 0
v -2.24 -6.4 0
v -2.56 -6.4 0
v -2.88 -6.4 0
v -3.2 -6.4 0
v -3.52 -6.4 0
v -3.84 -6.4 0
v -4.16 -6.4 0
v -4.48 -6.4 0
v -4.8 -6.4 0
v -5.12 -6.4 0
v -5.44 -6.4 0
v -5.76 -6.4 0
v -6.08 -6.4 0
v -6.4 -6.4 0
v -6.72 -6.4 0
v -7.04 -6.4 0
v -7.36 -6.4 0
v -7.68 -6.4 0
v -8 -6.4 0
v -8.32 -6.4 0
v -8.639999 -6.4 0
v -8.96 -6.4 0
v -9.28 -6.4 0
v -9.599999 -6.4 0
v -9.92 -6.4 0
v -10.24 -6.4 0
v -10.56 -6.4 0
v -10.88 -6.4 0
v -11.2 -6.4 0
v -11.52 -6.4 0
v -11.84 -6.4 0
v -12.16 -6.4 0
v -12.48 -6.4 0
v -12.8 -6.4 0

# Texture cooridinates (Count = 36)
vt 2.034505E-05 0.8333537
vt 0.1666463 0.8333537
vt 0.1666463 0.9999797
vt 2.034505E-05 0.9999797
vt 0.166687 0.8333537
vt 0.333313 0.8333537
vt 0.333313 0.9999797
vt 0.166687 0.9999797
vt 0.3333537 0.8333537
vt 0.4999796 0.8333537
vt 0.4999796 0.9999797
vt 0.3333537 0.9999797
vt 2.034505E-05 0.666687
vt 0.1666463 0.666687
vt 0.1666463 0.833313
vt 2.034505E-05 0.833313
vt 0.166687 0.666687
vt 0.333313 0.666687
vt 0.333313 0.833313
vt 0.166687 0.833313
vt 0.3333537 0.666687
vt 0.4999796 0.666687
vt 0.4999796 0.833313
vt 0.3333537 0.833313
vt 0.8333537 0.166687
vt 0.9999797 0.166687
vt 0.9999797 0.333313
vt 0.8333537 0.333313
vt 0.5000203 0.166687
vt 0.6666463 0.166687
vt 0.6666463 0.333313
vt 0.5000203 0.333313
vt 0.666687 0.166687
vt 0.833313 0.166687
vt 0.833313 0.333313
vt 0.666687 0.333313

# Normal
vn 0 0 -1

# Groups (Count = 2)

g mesh_0001
f 1/1/1 2/2/1 3/3/1 4/4/1
f 2/5/1 5/6/1 6/7/1 3/8/1
f 5/5/1 7/6/1 8/7/1 6/8/1
f 7/9/1 9/10/1 10/11/1 8/12/1
f 11/13/1 12/14/1 2/15/1 1/16/1
f 12/17/1 13/18/1 5/19/1 2/20/1
f 13/17/1 14/18/1 7/19/1 5/20/1
f 14/21/1 15/22/1 9/23/1 7/24/1
f 16/13/1 17/14/1 12/15/1 11/16/1
f 17/17/1 18/18/1 13/19/1 12/20/1
f 18/17/1 19/18/1 14/19/1 13/20/1
f 19/21/1 20/22/1 15/23/1 14/24/1
f 21/1/1 22/2/1 23/3/1 24/4/1
f 22/5/1 25/6/1 26/7/1 23/8/1
f 25/5/1 27/6/1 28/7/1 26/8/1
f 27/5/1 29/6/1 16/7/1 28/8/1
f 29/17/1 30/18/1 17/19/1 16/20/1
f 30/17/1 31/18/1 18/19/1 17/20/1
f 31/17/1 32/18/1 19/19/1 18/20/1
f 32/21/1 33/22/1 20/23/1 19/24/1
f 34/1/1 35/2/1 36/3/1 37/4/1
f 35/5/1 38/6/1 39/7/1 36/8/1
f 38/5/1 40/6/1 41/7/1 39/8/1
f 40/9/1 42/10/1 43/11/1 41/12/1
f 44/13/1 45/14/1 22/15/1 21/16/1
f 45/17/1 46/18/1 25/19/1 22/20/1
f 46/17/1 47/18/1 27/19/1 25/20/1
f 47/17/1 48/18/1 29/19/1 27/20/1
f 48/17/1 49/18/1 30/19/1 29/20/1
f 49/17/1 50/18/1 31/19/1 30/20/1
f 50/17/1 51/18/1 32/19/1 31/20/1
f 51/21/1 52/22/1 33/23/1 32/24/1
f 53/13/1 54/14/1 35/15/1 34/16/1
f 54/17/1 55/18/1 38/19/1 35/20/1
f 55/17/1 56/18/1 40/19/1 38/20/1
f 56/21/1 57/22/1 42/23/1 40/24/1
f 58/13/1 59/14/1 45/15/1 44/16/1
f 59/17/1 60/18/1 46/19/1 45/20/1
f 60/17/1 61/18/1 47/19/1 46/20/1
f 61/17/1 62/18/1 48/19/1 47/20/1
f 62/17/1 63/18/1 49/19/1 48/20/1
f 63/17/1 64/18/1 50/19/1 49/20/1
f 64/17/1 65/18/1 51/19/1 50/20/1
f 65/17/1 66/18/1 52/19/1 51/20/1
f 66/5/1 67/6/1 68/7/1 52/8/1
f 67/5/1 69/6/1 70/7/1 68/8/1
f 69/5/1 71/6/1 72/7/1 70/8/1
f 71/5/1 73/6/1 53/7/1 72/8/1
f 73/17/1 74/18/1 54/19/1 53/20/1
f 74/17/1 75/18/1 55/19/1 54/20/1
f 75/17/1 76/18/1 56/19/1 55/20/1
f 76/21/1 77/22/1 57/23/1 56/24/1
f 78/1/1 79/2/1 80/3/1 81/4/1
f 79/5/1 82/6/1 83/7/1 80/8/1
f 82/5/1 84/6/1 85/7/1 83/8/1
f 84/5/1 86/6/1 87/7/1 85/8/1
f 86/5/1 88/6/1 89/7/1 87/8/1
f 88/5/1 90/6/1 91/7/1 89/8/1
f 90/5/1 92/6/1 93/7/1 91/8/1
f 92/9/1 94/10/1 95/11/1 93/12/1
f 96/13/1 97/14/1 59/15/1 58/16/1
f 97/17/1 98/18/1 60/19/1 59/20/1
f 98/17/1 99/18/1 61/19/1 60/20/1
f 99/17/1 100/18/1 62/19/1 61/20/1
f 100/17/1 101/18/1 63/19/1 62/20/1
f 101/17/1 102/18/1 64/19/1 63/20/1
f 102/17/1 103/18/1 65/19/1 64/20/1
f 103/17/1 104/18/1 66/19/1 65/20/1
f 104/17/1 105/18/1 67/19/1 66/20/1
f 105/17/1 106/18/1 69/19/1 67/20/1
f 106/17/1 107/18/1 71/19/1 69/20/1
f 107/17/1 108/18/1 73/19/1 71/20/1
f 108/17/1 109/18/1 74/19/1 73/20/1
f 109/17/1 110/18/1 75/19/1 74/20/1
f 110/17/1 111/18/1 76/19/1 75/20/1
f 111/17/1 112/18/1 77/19/1 76/20/1
f 112/5/1 113/6/1 78/7/1 77/8/1
f 113/17/1 114/18/1 79/19/1 78/20/1
f 114/17/1 115/18/1 82/19/1 79/20/1
f 115/17/1 116/18/1 84/19/1 82/20/1
f 116/17/1 117/18/1 86/19/1 84/20/1
f 117/17/1 118/18/1 88/19/1 86/20/1
f 118/17/1 119/18/1 90/19/1 88/20/1
f 119/17/1 120/18/1 92/19/1 90/20/1
f 120/21/1 121/22/1 94/23/1 92/24/1
f 122/1/1 123/2/1 124/3/1 125/4/1
f 123/5/1 126/6/1 127/7/1 124/8/1
f 126/5/1 128/6/1 129/7/1 127/8/1
f 128/5/1 130/6/1 131/7/1 129/8/1
f 130/5/1 132/6/1 96/7/1 131/8/1
f 132/17/1 133/18/1 97/19/1 96/20/1
f 133/17/1 134/18/1 98/19/1 97/20/1
f 134/17/1 135/18/1 99/19/1 98/20/1
f 135/17/1 136/18/1 100/19/1 99/20/1
f 136/17/1 137/18/1 101/19/1 100/20/1
f 137/17/1 138/18/1 102/19/1 101/20/1
f 138/17/1 139/18/1 103/19/1 102/20/1
f 139/17/1 140/18/1 104/19/1 103/20/1
f 140/17/1 141/18/1 105/19/1 104/20/1
f 141/17/1 142/18/1 106/19/1 105/20/1
f 142/17/1 143/18/1 107/19/1 106/20/1
f 143/17/1 144/18/1 108/19/1 107/20/1
f 144/17/1 145/18/1 109/19/1 108/20/1
f 145/17/1 146/18/1 110/19/1 109/20/1
f 146/17/1 147/18/1 111/19/1 110/20/1
f 147/17/1 148/18/1 112/19/1 111/20/1
f 148/17/1 149/18/1 113/19/1 112/20/1
f 149/17/1 150/18/1 114/19/1 113/20/1
f 150/17/1 151/18/1 115/19/1 114/20/1
f 151/17/1 152/18/1 116/19/1 115/20/1
f 152/17/1 153/18/1 117/19/1 116/20/1
f 153/17/1 154/18/1 118/19/1 117/20/1
f 154/17/1 155/18/1 119/19/1 118/20/1
f 155/17/1 156/18/1 120/19/1 119/20/1
f 156/17/1 157/18/1 121/19/1 120/20/1
f 157/5/1 158/6/1 159/7/1 121/8/1
f 158/5/1 160/6/1 161/7/1 159/8/1
f 160/5/1 162/6/1 163/7/1 161/8/1
f 162/5/1 164/6/1 165/7/1 163/8/1
f 164/5/1 166/6/1 167/7/1 165/8/1
f 166/5/1 168/6/1 169/7/1 167/8/1
f 168/5/1 170/6/1 171/7/1 169/8/1
f 170/5/1 172/6/1 173/7/1 171/8/1
f 172/5/1 174/6/1 175/7/1 173/8/1
f 174/5/1 176/6/1 177/7/1 175/8/1
f 178/17/1 179/18/1 123/19/1 122/20/1
f 179/17/1 180/18/1 126/19/1 123/20/1
f 180/17/1 181/18/1 128/19/1 126/20/1
f 181/17/1 182/18/1 130/19/1 128/20/1
f 182/17/1 183/18/1 132/19/1 130/20/1
f 183/17/1 184/18/1 133/19/1 132/20/1
f 184/17/1 185/18/1 134/19/1 133/20/1
f 185/17/1 186/18/1 135/19/1 134/20/1
f 186/17/1 187/18/1 136/19/1 135/20/1
f 187/17/1 188/18/1 137/19/1 136/20/1
f 188/17/1 189/18/1 138/19/1 137/20/1
f 189/17/1 190/18/1 139/19/1 138/20/1
f 190/17/1 191/18/1 140/19/1 139/20/1
f 191/17/1 192/18/1 141/19/1 140/20/1
f 192/17/1 193/18/1 142/19/1 141/20/1
f 193/17/1 194/18/1 143/19/1 142/20/1
f 194/17/1 195/18/1 144/19/1 143/20/1
f 195/17/1 196/18/1 145/19/1 144/20/1
f 196/17/1 197/18/1 146/19/1 145/20/1
f 197/17/1 198/18/1 147/19/1 146/20/1
f 198/17/1 199/18/1 148/19/1 147/20/1
f 199/17/1 200/18/1 149/19/1 148/20/1
f 200/17/1 201/18/1 150/19/1 149/20/1
f 201/17/1 202/18/1 151/19/1 150/20/1
f 202/17/1 203/18/1 152/19/1 151/20/1
f 203/17/1 204/18/1 153/19/1 152/20/1
f 204/17/1 205/18/1 154/19/1 153/20/1
f 205/17/1 206/18/1 155/19/1 154/20/1
f 206/17/1 207/18/1 156/19/1 155/20/1
f 207/17/1 208/18/1 157/19/1 156/20/1
f 208/17/1 209/18/1 158/19/1 157/20/1
f 209/17/1 210/18/1 160/19/1 158/20/1
f 210/17/1 211/18/1 162/19/1 160/20/1
f 211/17/1 212/18/1 164/19/1 162/20/1
f 212/17/1 213/18/1 166/19/1 164/20/1
f 213/17/1 214/18/1 168/19/1 166/20/1
f 214/17/1 215/18/1 170/19/1 168/20/1
f 215/17/1 216/18/1 172/19/1 170/20/1
f 216/17/1 217/18/1 174/19/1 172/20/1
f 217/17/1 218/18/1 176/19/1 174/20/1

g mesh_0002
f 147/25/1 148/26/1 112/27/1 111/28/1
f 150/25/1 151/26/1 115/27/1 114/28/1
f 174/25/1 176/26/1 177/27/1 175/28/1
f 198/25/1 199/26/1 148/27/1 147/28/1
f 201/29/1 202/30/1 151/31/1 150/32/1
f 202/33/1 203/34/1 152/35/1 151/36/1
f 217/25/1 218/26/1 176/27/1 174/28/1

