# Wavefront OBJ file automatically generated by Tiled2Unity

# Vertices (Count = 312)
v -9.599999 -1.28 0
v -9.92 -1.28 0
v -9.92 -0.96 0
v -9.599999 -0.96 0
v -10.24 -1.28 0
v -10.24 -0.96 0
v -10.56 -1.28 0
v -10.56 -0.96 0
v -9.599999 -1.6 0
v -9.92 -1.6 0
v -10.24 -1.6 0
v -10.56 -1.6 0
v -9.599999 -1.92 0
v -9.92 -1.92 0
v -10.24 -1.92 0
v -10.56 -1.92 0
v -5.44 -2.24 0
v -5.76 -2.24 0
v -5.76 -1.92 0
v -5.44 -1.92 0
v -6.08 -2.24 0
v -6.08 -1.92 0
v -6.4 -2.24 0
v -6.4 -1.92 0
v -9.599999 -2.24 0
v -9.92 -2.24 0
v -10.24 -2.24 0
v -10.56 -2.24 0
v -5.44 -2.56 0
v -5.76 -2.56 0
v -6.08 -2.56 0
v -6.4 -2.56 0
v -9.599999 -2.56 0
v -9.92 -2.56 0
v -10.24 -2.56 0
v -10.56 -2.56 0
v -4.16 -2.88 0
v -4.48 -2.88 0
v -4.48 -2.56 0
v -4.16 -2.56 0
v -4.8 -2.88 0
v -4.8 -2.56 0
v -5.12 -2.88 0
v -5.12 -2.56 0
v -5.44 -2.88 0
v -5.76 -2.88 0
v -6.08 -2.88 0
v -6.4 -2.88 0
v -9.599999 -2.88 0
v -9.92 -2.88 0
v -10.24 -2.88 0
v -10.56 -2.88 0
v -4.16 -3.2 0
v -4.48 -3.2 0
v -4.8 -3.2 0
v -5.12 -3.2 0
v -5.44 -3.2 0
v -5.76 -3.2 0
v -6.08 -3.2 0
v -6.4 -3.2 0
v -7.36 -3.2 0
v -7.68 -3.2 0
v -7.68 -2.88 0
v -7.36 -2.88 0
v -8 -3.2 0
v -8 -2.88 0
v -8.32 -3.2 0
v -8.32 -2.88 0
v -8.639999 -3.2 0
v -8.639999 -2.88 0
v -9.599999 -3.2 0
v -9.92 -3.2 0
v -10.24 -3.2 0
v -10.56 -3.2 0
v -4.16 -3.52 0
v -4.48 -3.52 0
v -4.8 -3.52 0
v -5.12 -3.52 0
v -5.44 -3.52 0
v -5.76 -3.52 0
v -6.08 -3.52 0
v -6.4 -3.52 0
v -7.36 -3.52 0
v -7.68 -3.52 0
v -8 -3.52 0
v -8.32 -3.52 0
v -8.639999 -3.52 0
v -9.599999 -3.52 0
v -9.92 -3.52 0
v -10.24 -3.52 0
v -10.56 -3.52 0
v -2.88 -3.84 0
v -3.2 -3.84 0
v -3.2 -3.52 0
v -2.88 -3.52 0
v -3.52 -3.84 0
v -3.52 -3.52 0
v -3.84 -3.84 0
v -3.84 -3.52 0
v -4.16 -3.84 0
v -4.48 -3.84 0
v -4.8 -3.84 0
v -5.12 -3.84 0
v -5.44 -3.84 0
v -5.76 -3.84 0
v -6.08 -3.84 0
v -9.599999 -3.84 0
v -9.92 -3.84 0
v -10.24 -3.84 0
v -10.56 -3.84 0
v -2.88 -4.16 0
v -3.2 -4.16 0
v -3.52 -4.16 0
v -3.84 -4.16 0
v -4.16 -4.16 0
v -4.48 -4.16 0
v -4.8 -4.16 0
v -5.12 -4.16 0
v -5.44 -4.16 0
v -5.76 -4.16 0
v -6.08 -4.16 0
v -9.599999 -4.16 0
v -9.92 -4.16 0
v -10.24 -4.16 0
v -10.56 -4.16 0
v -2.88 -4.48 0
v -3.2 -4.48 0
v -3.52 -4.48 0
v -3.84 -4.48 0
v -4.16 -4.48 0
v -4.48 -4.48 0
v -4.8 -4.48 0
v -5.12 -4.48 0
v -5.44 -4.48 0
v -5.76 -4.48 0
v -9.599999 -4.48 0
v -9.92 -4.48 0
v -10.24 -4.48 0
v -10.56 -4.48 0
v -1.92 -4.8 0
v -2.24 -4.8 0
v -2.24 -4.48 0
v -1.92 -4.48 0
v -2.56 -4.8 0
v -2.56 -4.48 0
v -2.88 -4.8 0
v -3.2 -4.8 0
v -3.52 -4.8 0
v -3.84 -4.8 0
v -4.16 -4.8 0
v -4.48 -4.8 0
v -4.8 -4.8 0
v -5.12 -4.8 0
v -5.44 -4.8 0
v -5.76 -4.8 0
v -9.599999 -4.8 0
v -9.92 -4.8 0
v -10.24 -4.8 0
v -10.56 -4.8 0
v -1.92 -5.12 0
v -2.24 -5.12 0
v -2.56 -5.12 0
v -2.88 -5.12 0
v -3.2 -5.12 0
v -3.52 -5.12 0
v -3.84 -5.12 0
v -4.16 -5.12 0
v -4.48 -5.12 0
v -4.8 -5.12 0
v -5.12 -5.12 0
v -5.44 -5.12 0
v -9.599999 -5.12 0
v -9.92 -5.12 0
v -10.24 -5.12 0
v -10.56 -5.12 0
v 0 -5.44 0
v -0.32 -5.44 0
v -0.32 -5.12 0
v 0 -5.12 0
v -0.64 -5.44 0
v -0.64 -5.12 0
v -9.599999 -5.44 0
v -9.92 -5.44 0
v -10.24 -5.44 0
v -10.56 -5.44 0
v 0 -5.76 0
v -0.32 -5.76 0
v -0.64 -5.76 0
v -8.639999 -5.76 0
v -8.96 -5.76 0
v -8.96 -5.44 0
v -8.639999 -5.44 0
v -9.28 -5.76 0
v -9.28 -5.44 0
v -9.599999 -5.76 0
v -9.92 -5.76 0
v -10.24 -5.76 0
v -10.56 -5.76 0
v -10.88 -5.76 0
v -10.88 -5.44 0
v -11.2 -5.76 0
v -11.2 -5.44 0
v -11.52 -5.76 0
v -11.52 -5.44 0
v -11.84 -5.76 0
v -11.84 -5.44 0
v -12.16 -5.76 0
v -12.16 -5.44 0
v -12.48 -5.76 0
v -12.48 -5.44 0
v -12.8 -5.76 0
v -12.8 -5.44 0
v 0 -6.08 0
v -0.32 -6.08 0
v -0.64 -6.08 0
v -0.96 -6.08 0
v -0.96 -5.76 0
v -1.28 -6.08 0
v -1.28 -5.76 0
v -1.6 -6.08 0
v -1.6 -5.76 0
v -1.92 -6.08 0
v -1.92 -5.76 0
v -2.24 -6.08 0
v -2.24 -5.76 0
v -2.56 -6.08 0
v -2.56 -5.76 0
v -2.88 -6.08 0
v -2.88 -5.76 0
v -3.2 -6.08 0
v -3.2 -5.76 0
v -3.52 -6.08 0
v -3.52 -5.76 0
v -3.84 -6.08 0
v -3.84 -5.76 0
v -4.16 -6.08 0
v -4.16 -5.76 0
v -4.48 -6.08 0
v -4.48 -5.76 0
v -4.8 -6.08 0
v -4.8 -5.76 0
v -5.12 -6.08 0
v -5.12 -5.76 0
v -5.44 -6.08 0
v -5.44 -5.76 0
v -5.76 -6.08 0
v -5.76 -5.76 0
v -6.08 -6.08 0
v -6.08 -5.76 0
v -6.4 -6.08 0
v -6.4 -5.76 0
v -8.639999 -6.08 0
v -8.96 -6.08 0
v -9.28 -6.08 0
v -9.599999 -6.08 0
v -9.92 -6.08 0
v -10.24 -6.08 0
v -10.56 -6.08 0
v -10.88 -6.08 0
v -11.2 -6.08 0
v -11.52 -6.08 0
v -11.84 -6.08 0
v -12.16 -6.08 0
v -12.48 -6.08 0
v -12.8 -6.08 0
v 0 -6.4 0
v -0.32 -6.4 0
v -0.64 -6.4 0
v -0.96 -6.4 0
v -1.28 -6.4 0
v -1.6 -6.4 0
v -1.92 -6.4 0
v -2.24 -6.4 0
v -2.56 -6.4 0
v -2.88 -6.4 0
v -3.2 -6.4 0
v -3.52 -6.4 0
v -3.84 -6.4 0
v -4.16 -6.4 0
v -4.48 -6.4 0
v -4.8 -6.4 0
v -5.12 -6.4 0
v -5.44 -6.4 0
v -5.76 -6.4 0
v -6.08 -6.4 0
v -6.4 -6.4 0
v -6.72 -6.4 0
v -6.72 -6.08 0
v -7.04 -6.4 0
v -7.04 -6.08 0
v -7.36 -6.4 0
v -7.36 -6.08 0
v -7.68 -6.4 0
v -7.68 -6.08 0
v -8 -6.4 0
v -8 -6.08 0
v -8.32 -6.4 0
v -8.32 -6.08 0
v -8.639999 -6.4 0
v -8.96 -6.4 0
v -9.28 -6.4 0
v -9.599999 -6.4 0
v -9.92 -6.4 0
v -10.24 -6.4 0
v -10.56 -6.4 0
v -10.88 -6.4 0
v -11.2 -6.4 0
v -11.52 -6.4 0
v -11.84 -6.4 0
v -12.16 -6.4 0
v -12.48 -6.4 0
v -12.8 -6.4 0

# Texture cooridinates (Count = 88)
vt 2.034505E-05 0.8333537
vt 0.1666463 0.8333537
vt 0.1666463 0.9999797
vt 2.034505E-05 0.9999797
vt 0.166687 0.8333537
vt 0.333313 0.8333537
vt 0.333313 0.9999797
vt 0.166687 0.9999797
vt 0.3333537 0.8333537
vt 0.4999796 0.8333537
vt 0.4999796 0.9999797
vt 0.3333537 0.9999797
vt 2.034505E-05 0.666687
vt 0.1666463 0.666687
vt 0.1666463 0.833313
vt 2.034505E-05 0.833313
vt 0.166687 0.666687
vt 0.333313 0.666687
vt 0.333313 0.833313
vt 0.166687 0.833313
vt 0.3333537 0.666687
vt 0.4999796 0.666687
vt 0.4999796 0.833313
vt 0.3333537 0.833313
vt 0.5000203 0.8333537
vt 0.6666463 0.8333537
vt 0.6666463 0.9999797
vt 0.5000203 0.9999797
vt 0.666687 0.8333537
vt 0.833313 0.8333537
vt 0.833313 0.9999797
vt 0.666687 0.9999797
vt 0.8333537 0.8333537
vt 0.9999797 0.8333537
vt 0.9999797 0.9999797
vt 0.8333537 0.9999797
vt 0.3333537 0.5000204
vt 0.4999796 0.5000204
vt 0.4999796 0.6666464
vt 0.3333537 0.6666464
vt 2.034505E-05 0.5000204
vt 0.1666463 0.5000204
vt 0.1666463 0.6666464
vt 2.034505E-05 0.6666464
vt 0.166687 0.5000204
vt 0.333313 0.5000204
vt 0.333313 0.6666464
vt 0.166687 0.6666464
vt 0.166687 0.166687
vt 0.333313 0.166687
vt 0.333313 0.333313
vt 0.166687 0.333313
vt 0.666687 0.166687
vt 0.833313 0.166687
vt 0.833313 0.333313
vt 0.666687 0.333313
vt 0.5000203 0.166687
vt 0.6666463 0.166687
vt 0.6666463 0.333313
vt 0.5000203 0.333313
vt 0.8333537 0.3333537
vt 0.9999797 0.3333537
vt 0.9999797 0.4999797
vt 0.8333537 0.4999797
vt 0.8333537 0.166687
vt 0.9999797 0.166687
vt 0.9999797 0.333313
vt 0.8333537 0.333313
vt 0.3333537 0.166687
vt 0.4999796 0.166687
vt 0.4999796 0.333313
vt 0.3333537 0.333313
vt 0.8333537 2.032518E-05
vt 0.9999797 2.032518E-05
vt 0.9999797 0.1666463
vt 0.8333537 0.1666463
vt 2.034505E-05 0.3333537
vt 0.1666463 0.3333537
vt 0.1666463 0.4999797
vt 2.034505E-05 0.4999797
vt 2.034505E-05 0.166687
vt 0.1666463 0.166687
vt 0.1666463 0.333313
vt 2.034505E-05 0.333313
vt 0.666687 2.032518E-05
vt 0.833313 2.032518E-05
vt 0.833313 0.1666463
vt 0.666687 0.1666463

# Normal
vn 0 0 -1

# Groups (Count = 2)

g mesh_0001
f 1/1/1 2/2/1 3/3/1 4/4/1
f 2/5/1 5/6/1 6/7/1 3/8/1
f 5/9/1 7/10/1 8/11/1 6/12/1
f 9/13/1 10/14/1 2/15/1 1/16/1
f 10/17/1 11/18/1 5/19/1 2/20/1
f 11/21/1 12/22/1 7/23/1 5/24/1
f 13/13/1 14/14/1 10/15/1 9/16/1
f 14/17/1 15/18/1 11/19/1 10/20/1
f 15/21/1 16/22/1 12/23/1 11/24/1
f 17/1/1 18/2/1 19/3/1 20/4/1
f 18/5/1 21/6/1 22/7/1 19/8/1
f 21/9/1 23/10/1 24/11/1 22/12/1
f 25/13/1 26/14/1 14/15/1 13/16/1
f 26/17/1 27/18/1 15/19/1 14/20/1
f 27/21/1 28/22/1 16/23/1 15/24/1
f 29/13/1 30/14/1 18/15/1 17/16/1
f 30/17/1 31/18/1 21/19/1 18/20/1
f 31/21/1 32/22/1 23/23/1 21/24/1
f 33/13/1 34/14/1 26/15/1 25/16/1
f 34/17/1 35/18/1 27/19/1 26/20/1
f 35/21/1 36/22/1 28/23/1 27/24/1
f 37/1/1 38/2/1 39/3/1 40/4/1
f 38/25/1 41/26/1 42/27/1 39/28/1
f 41/29/1 43/30/1 44/31/1 42/32/1
f 43/33/1 45/34/1 29/35/1 44/36/1
f 45/17/1 46/18/1 30/19/1 29/20/1
f 46/17/1 47/18/1 31/19/1 30/20/1
f 47/21/1 48/22/1 32/23/1 31/24/1
f 49/13/1 50/14/1 34/15/1 33/16/1
f 50/17/1 51/18/1 35/19/1 34/20/1
f 51/21/1 52/22/1 36/23/1 35/24/1
f 53/13/1 54/14/1 38/15/1 37/16/1
f 54/17/1 55/18/1 41/19/1 38/20/1
f 55/17/1 56/18/1 43/19/1 41/20/1
f 56/17/1 57/18/1 45/19/1 43/20/1
f 57/17/1 58/18/1 46/19/1 45/20/1
f 58/17/1 59/18/1 47/19/1 46/20/1
f 59/21/1 60/22/1 48/23/1 47/24/1
f 61/1/1 62/2/1 63/3/1 64/4/1
f 62/5/1 65/6/1 66/7/1 63/8/1
f 65/5/1 67/6/1 68/7/1 66/8/1
f 67/9/1 69/10/1 70/11/1 68/12/1
f 71/13/1 72/14/1 50/15/1 49/16/1
f 72/17/1 73/18/1 51/19/1 50/20/1
f 73/21/1 74/22/1 52/23/1 51/24/1
f 75/13/1 76/14/1 54/15/1 53/16/1
f 76/17/1 77/18/1 55/19/1 54/20/1
f 77/17/1 78/18/1 56/19/1 55/20/1
f 78/17/1 79/18/1 57/19/1 56/20/1
f 79/17/1 80/18/1 58/19/1 57/20/1
f 80/17/1 81/18/1 59/19/1 58/20/1
f 81/37/1 82/38/1 60/39/1 59/40/1
f 83/41/1 84/42/1 62/43/1 61/44/1
f 84/45/1 85/46/1 65/47/1 62/48/1
f 85/45/1 86/46/1 67/47/1 65/48/1
f 86/37/1 87/38/1 69/39/1 67/40/1
f 88/13/1 89/14/1 72/15/1 71/16/1
f 89/17/1 90/18/1 73/19/1 72/20/1
f 90/21/1 91/22/1 74/23/1 73/24/1
f 92/1/1 93/2/1 94/3/1 95/4/1
f 93/5/1 96/6/1 97/7/1 94/8/1
f 96/5/1 98/6/1 99/7/1 97/8/1
f 98/5/1 100/6/1 75/7/1 99/8/1
f 100/17/1 101/18/1 76/19/1 75/20/1
f 101/17/1 102/18/1 77/19/1 76/20/1
f 102/17/1 103/18/1 78/19/1 77/20/1
f 103/17/1 104/18/1 79/19/1 78/20/1
f 104/17/1 105/18/1 80/19/1 79/20/1
f 105/17/1 106/18/1 81/19/1 80/20/1
f 107/13/1 108/14/1 89/15/1 88/16/1
f 108/17/1 109/18/1 90/19/1 89/20/1
f 109/21/1 110/22/1 91/23/1 90/24/1
f 111/13/1 112/14/1 93/15/1 92/16/1
f 112/17/1 113/18/1 96/19/1 93/20/1
f 113/17/1 114/18/1 98/19/1 96/20/1
f 114/17/1 115/18/1 100/19/1 98/20/1
f 115/17/1 116/18/1 101/19/1 100/20/1
f 116/17/1 117/18/1 102/19/1 101/20/1
f 117/17/1 118/18/1 103/19/1 102/20/1
f 118/17/1 119/18/1 104/19/1 103/20/1
f 119/17/1 120/18/1 105/19/1 104/20/1
f 120/37/1 121/38/1 106/39/1 105/40/1
f 122/13/1 123/14/1 108/15/1 107/16/1
f 123/17/1 124/18/1 109/19/1 108/20/1
f 124/21/1 125/22/1 110/23/1 109/24/1
f 126/13/1 127/14/1 112/15/1 111/16/1
f 127/17/1 128/18/1 113/19/1 112/20/1
f 128/17/1 129/18/1 114/19/1 113/20/1
f 129/17/1 130/18/1 115/19/1 114/20/1
f 130/17/1 131/18/1 116/19/1 115/20/1
f 131/17/1 132/18/1 117/19/1 116/20/1
f 132/17/1 133/18/1 118/19/1 117/20/1
f 133/17/1 134/18/1 119/19/1 118/20/1
f 134/21/1 135/22/1 120/23/1 119/24/1
f 136/13/1 137/14/1 123/15/1 122/16/1
f 137/17/1 138/18/1 124/19/1 123/20/1
f 138/21/1 139/22/1 125/23/1 124/24/1
f 140/1/1 141/2/1 142/3/1 143/4/1
f 141/5/1 144/6/1 145/7/1 142/8/1
f 144/5/1 146/6/1 126/7/1 145/8/1
f 146/17/1 147/18/1 127/19/1 126/20/1
f 147/17/1 148/18/1 128/19/1 127/20/1
f 148/17/1 149/18/1 129/19/1 128/20/1
f 149/17/1 150/18/1 130/19/1 129/20/1
f 150/17/1 151/18/1 131/19/1 130/20/1
f 151/17/1 152/18/1 132/19/1 131/20/1
f 152/17/1 153/18/1 133/19/1 132/20/1
f 153/17/1 154/18/1 134/19/1 133/20/1
f 154/37/1 155/38/1 135/39/1 134/40/1
f 156/13/1 157/14/1 137/15/1 136/16/1
f 157/17/1 158/18/1 138/19/1 137/20/1
f 158/21/1 159/22/1 139/23/1 138/24/1
f 160/41/1 161/42/1 141/43/1 140/44/1
f 161/45/1 162/46/1 144/47/1 141/48/1
f 162/45/1 163/46/1 146/47/1 144/48/1
f 163/45/1 164/46/1 147/47/1 146/48/1
f 164/45/1 165/46/1 148/47/1 147/48/1
f 165/45/1 166/46/1 149/47/1 148/48/1
f 166/45/1 167/46/1 150/47/1 149/48/1
f 167/45/1 168/46/1 151/47/1 150/48/1
f 168/45/1 169/46/1 152/47/1 151/48/1
f 169/45/1 170/46/1 153/47/1 152/48/1
f 170/37/1 171/38/1 154/39/1 153/40/1
f 172/13/1 173/14/1 157/15/1 156/16/1
f 173/17/1 174/18/1 158/19/1 157/20/1
f 174/21/1 175/22/1 159/23/1 158/24/1
f 176/1/1 177/2/1 178/3/1 179/4/1
f 177/9/1 180/10/1 181/11/1 178/12/1
f 182/13/1 183/14/1 173/15/1 172/16/1
f 183/17/1 184/18/1 174/19/1 173/20/1
f 184/21/1 185/22/1 175/23/1 174/24/1
f 186/13/1 187/14/1 177/15/1 176/16/1
f 187/21/1 188/22/1 180/23/1 177/24/1
f 189/1/1 190/2/1 191/3/1 192/4/1
f 190/5/1 193/6/1 194/7/1 191/8/1
f 193/5/1 195/6/1 182/7/1 194/8/1
f 195/17/1 196/18/1 183/19/1 182/20/1
f 196/17/1 197/18/1 184/19/1 183/20/1
f 197/17/1 198/18/1 185/19/1 184/20/1
f 198/5/1 199/6/1 200/7/1 185/8/1
f 199/5/1 201/6/1 202/7/1 200/8/1
f 201/5/1 203/6/1 204/7/1 202/8/1
f 203/5/1 205/6/1 206/7/1 204/8/1
f 205/5/1 207/6/1 208/7/1 206/8/1
f 207/5/1 209/6/1 210/7/1 208/8/1
f 209/5/1 211/6/1 212/7/1 210/8/1
f 213/1/1 214/2/1 187/3/1 186/4/1
f 214/5/1 215/6/1 188/7/1 187/8/1
f 215/5/1 216/6/1 217/7/1 188/8/1
f 216/5/1 218/6/1 219/7/1 217/8/1
f 218/5/1 220/6/1 221/7/1 219/8/1
f 220/5/1 222/6/1 223/7/1 221/8/1
f 222/5/1 224/6/1 225/7/1 223/8/1
f 224/5/1 226/6/1 227/7/1 225/8/1
f 226/5/1 228/6/1 229/7/1 227/8/1
f 228/5/1 230/6/1 231/7/1 229/8/1
f 230/5/1 232/6/1 233/7/1 231/8/1
f 232/5/1 234/6/1 235/7/1 233/8/1
f 234/5/1 236/6/1 237/7/1 235/8/1
f 236/5/1 238/6/1 239/7/1 237/8/1
f 238/5/1 240/6/1 241/7/1 239/8/1
f 240/5/1 242/6/1 243/7/1 241/8/1
f 242/5/1 244/6/1 245/7/1 243/8/1
f 244/5/1 246/6/1 247/7/1 245/8/1
f 246/5/1 248/6/1 249/7/1 247/8/1
f 248/9/1 250/10/1 251/11/1 249/12/1
f 252/13/1 253/14/1 190/15/1 189/16/1
f 253/17/1 254/18/1 193/19/1 190/20/1
f 254/17/1 255/18/1 195/19/1 193/20/1
f 255/17/1 256/18/1 196/19/1 195/20/1
f 256/17/1 257/18/1 197/19/1 196/20/1
f 257/17/1 258/18/1 198/19/1 197/20/1
f 258/17/1 259/18/1 199/19/1 198/20/1
f 259/17/1 260/18/1 201/19/1 199/20/1
f 260/17/1 261/18/1 203/19/1 201/20/1
f 261/17/1 262/18/1 205/19/1 203/20/1
f 262/17/1 263/18/1 207/19/1 205/20/1
f 263/17/1 264/18/1 209/19/1 207/20/1
f 264/17/1 265/18/1 211/19/1 209/20/1
f 266/17/1 267/18/1 214/19/1 213/20/1
f 267/17/1 268/18/1 215/19/1 214/20/1
f 268/17/1 269/18/1 216/19/1 215/20/1
f 269/17/1 270/18/1 218/19/1 216/20/1
f 270/17/1 271/18/1 220/19/1 218/20/1
f 271/17/1 272/18/1 222/19/1 220/20/1
f 272/17/1 273/18/1 224/19/1 222/20/1
f 273/17/1 274/18/1 226/19/1 224/20/1
f 274/17/1 275/18/1 228/19/1 226/20/1
f 275/17/1 276/18/1 230/19/1 228/20/1
f 276/17/1 277/18/1 232/19/1 230/20/1
f 277/17/1 278/18/1 234/19/1 232/20/1
f 278/17/1 279/18/1 236/19/1 234/20/1
f 279/17/1 280/18/1 238/19/1 236/20/1
f 280/17/1 281/18/1 240/19/1 238/20/1
f 281/17/1 282/18/1 242/19/1 240/20/1
f 282/17/1 283/18/1 244/19/1 242/20/1
f 283/17/1 284/18/1 246/19/1 244/20/1
f 284/17/1 285/18/1 248/19/1 246/20/1
f 285/17/1 286/18/1 250/19/1 248/20/1
f 286/5/1 287/6/1 288/7/1 250/8/1
f 287/5/1 289/6/1 290/7/1 288/8/1
f 289/5/1 291/6/1 292/7/1 290/8/1
f 291/5/1 293/6/1 294/7/1 292/8/1
f 293/5/1 295/6/1 296/7/1 294/8/1
f 295/5/1 297/6/1 298/7/1 296/8/1
f 297/5/1 299/6/1 252/7/1 298/8/1
f 299/17/1 300/18/1 253/19/1 252/20/1
f 300/17/1 301/18/1 254/19/1 253/20/1
f 301/17/1 302/18/1 255/19/1 254/20/1
f 302/17/1 303/18/1 256/19/1 255/20/1
f 303/17/1 304/18/1 257/19/1 256/20/1
f 304/17/1 305/18/1 258/19/1 257/20/1
f 305/17/1 306/18/1 259/19/1 258/20/1
f 306/17/1 307/18/1 260/19/1 259/20/1
f 307/17/1 308/18/1 261/19/1 260/20/1
f 308/17/1 309/18/1 262/19/1 261/20/1
f 309/17/1 310/18/1 263/19/1 262/20/1
f 310/17/1 311/18/1 264/19/1 263/20/1
f 311/17/1 312/18/1 265/19/1 264/20/1

g mesh_0002
f 15/49/1 16/50/1 12/51/1 11/52/1
f 25/53/1 26/54/1 14/55/1 13/56/1
f 27/57/1 28/58/1 16/59/1 15/60/1
f 31/61/1 32/62/1 23/63/1 21/64/1
f 33/65/1 34/66/1 26/67/1 25/68/1
f 46/49/1 47/50/1 31/51/1 30/52/1
f 47/69/1 48/70/1 32/71/1 31/72/1
f 49/57/1 50/58/1 34/59/1 33/60/1
f 50/53/1 51/54/1 35/55/1 34/56/1
f 57/49/1 58/50/1 46/51/1 45/52/1
f 58/69/1 59/70/1 47/71/1 46/72/1
f 72/65/1 73/66/1 51/67/1 50/68/1
f 78/49/1 79/50/1 57/51/1 56/52/1
f 79/69/1 80/70/1 58/71/1 57/72/1
f 89/65/1 90/66/1 73/67/1 72/68/1
f 102/49/1 103/50/1 78/51/1 77/52/1
f 103/69/1 104/70/1 79/71/1 78/72/1
f 108/65/1 109/66/1 90/67/1 89/68/1
f 117/65/1 118/66/1 103/67/1 102/68/1
f 122/53/1 123/54/1 108/55/1 107/56/1
f 123/57/1 124/58/1 109/59/1 108/60/1
f 124/53/1 125/54/1 110/55/1 109/56/1
f 131/49/1 132/50/1 117/51/1 116/52/1
f 132/69/1 133/70/1 118/71/1 117/72/1
f 136/57/1 137/58/1 123/59/1 122/60/1
f 137/53/1 138/54/1 124/55/1 123/56/1
f 138/57/1 139/58/1 125/59/1 124/60/1
f 150/49/1 151/50/1 131/51/1 130/52/1
f 151/69/1 152/70/1 132/71/1 131/72/1
f 157/65/1 158/66/1 138/67/1 137/68/1
f 167/73/1 168/74/1 151/75/1 150/76/1
f 173/65/1 174/66/1 158/67/1 157/68/1
f 183/65/1 184/66/1 174/67/1 173/68/1
f 196/57/1 197/58/1 184/59/1 183/60/1
f 197/53/1 198/54/1 185/55/1 184/56/1
f 238/77/1 240/78/1 241/79/1 239/80/1
f 257/57/1 258/58/1 198/59/1 197/60/1
f 258/53/1 259/54/1 199/55/1 198/56/1
f 262/77/1 263/78/1 207/79/1 205/80/1
f 273/77/1 274/78/1 226/79/1 224/80/1
f 280/81/1 281/82/1 240/83/1 238/84/1
f 305/85/1 306/86/1 259/87/1 258/88/1
f 309/81/1 310/82/1 263/83/1 262/84/1

