# Wavefront OBJ file automatically generated by Tiled2Unity

# Vertices (Count = 159)
v -2.88 -5.44 0
v -3.2 -5.44 0
v -3.2 -5.12 0
v -2.88 -5.12 0
v -3.52 -5.44 0
v -3.52 -5.12 0
v -3.84 -5.44 0
v -3.84 -5.12 0
v -4.16 -5.44 0
v -4.16 -5.12 0
v -4.48 -5.44 0
v -4.48 -5.12 0
v -4.8 -5.44 0
v -4.8 -5.12 0
v -5.12 -5.44 0
v -5.12 -5.12 0
v -5.44 -5.44 0
v -5.44 -5.12 0
v -7.04 -5.44 0
v -7.36 -5.44 0
v -7.36 -5.12 0
v -7.04 -5.12 0
v -7.68 -5.44 0
v -7.68 -5.12 0
v -8 -5.44 0
v -8 -5.12 0
v -8.32 -5.44 0
v -8.32 -5.12 0
v -8.639999 -5.44 0
v -8.639999 -5.12 0
v -8.96 -5.44 0
v -8.96 -5.12 0
v -9.28 -5.44 0
v -9.28 -5.12 0
v -9.599999 -5.44 0
v -9.599999 -5.12 0
v -2.88 -5.76 0
v -3.2 -5.76 0
v -3.52 -5.76 0
v -3.84 -5.76 0
v -4.16 -5.76 0
v -4.48 -5.76 0
v -4.8 -5.76 0
v -5.12 -5.76 0
v -5.44 -5.76 0
v -7.04 -5.76 0
v -7.36 -5.76 0
v -7.68 -5.76 0
v -8 -5.76 0
v -8.32 -5.76 0
v -8.639999 -5.76 0
v -8.96 -5.76 0
v -9.28 -5.76 0
v -9.599999 -5.76 0
v 0 -6.08 0
v -0.32 -6.08 0
v -0.32 -5.76 0
v 0 -5.76 0
v -0.64 -6.08 0
v -0.64 -5.76 0
v -0.96 -6.08 0
v -0.96 -5.76 0
v -1.28 -6.08 0
v -1.28 -5.76 0
v -1.6 -6.08 0
v -1.6 -5.76 0
v -1.92 -6.08 0
v -1.92 -5.76 0
v -2.24 -6.08 0
v -2.24 -5.76 0
v -2.56 -6.08 0
v -2.56 -5.76 0
v -2.88 -6.08 0
v -3.2 -6.08 0
v -3.52 -6.08 0
v -3.84 -6.08 0
v -4.16 -6.08 0
v -4.48 -6.08 0
v -4.8 -6.08 0
v -5.12 -6.08 0
v -5.44 -6.08 0
v -5.76 -6.08 0
v -5.76 -5.76 0
v -6.08 -6.08 0
v -6.08 -5.76 0
v -6.4 -6.08 0
v -6.4 -5.76 0
v -6.72 -6.08 0
v -6.72 -5.76 0
v -7.04 -6.08 0
v -7.36 -6.08 0
v -7.68 -6.08 0
v -8 -6.08 0
v -8.32 -6.08 0
v -8.639999 -6.08 0
v -8.96 -6.08 0
v -9.28 -6.08 0
v -9.599999 -6.08 0
v -9.92 -6.08 0
v -9.92 -5.76 0
v -10.24 -6.08 0
v -10.24 -5.76 0
v -10.56 -6.08 0
v -10.56 -5.76 0
v -10.88 -6.08 0
v -10.88 -5.76 0
v -11.2 -6.08 0
v -11.2 -5.76 0
v -11.52 -6.08 0
v -11.52 -5.76 0
v -11.84 -6.08 0
v -11.84 -5.76 0
v -12.16 -6.08 0
v -12.16 -5.76 0
v -12.48 -6.08 0
v -12.48 -5.76 0
v -12.8 -6.08 0
v -12.8 -5.76 0
v 0 -6.4 0
v -0.32 -6.4 0
v -0.64 -6.4 0
v -0.96 -6.4 0
v -1.28 -6.4 0
v -1.6 -6.4 0
v -1.92 -6.4 0
v -2.24 -6.4 0
v -2.56 -6.4 0
v -2.88 -6.4 0
v -3.2 -6.4 0
v -3.52 -6.4 0
v -3.84 -6.4 0
v -4.16 -6.4 0
v -4.48 -6.4 0
v -4.8 -6.4 0
v -5.12 -6.4 0
v -5.44 -6.4 0
v -5.76 -6.4 0
v -6.08 -6.4 0
v -6.4 -6.4 0
v -6.72 -6.4 0
v -7.04 -6.4 0
v -7.36 -6.4 0
v -7.68 -6.4 0
v -8 -6.4 0
v -8.32 -6.4 0
v -8.639999 -6.4 0
v -8.96 -6.4 0
v -9.28 -6.4 0
v -9.599999 -6.4 0
v -9.92 -6.4 0
v -10.24 -6.4 0
v -10.56 -6.4 0
v -10.88 -6.4 0
v -11.2 -6.4 0
v -11.52 -6.4 0
v -11.84 -6.4 0
v -12.16 -6.4 0
v -12.48 -6.4 0
v -12.8 -6.4 0

# Texture cooridinates (Count = 36)
vt 2.034505E-05 0.8333537
vt 0.1666463 0.8333537
vt 0.1666463 0.9999797
vt 2.034505E-05 0.9999797
vt 0.166687 0.8333537
vt 0.333313 0.8333537
vt 0.333313 0.9999797
vt 0.166687 0.9999797
vt 0.3333537 0.8333537
vt 0.4999796 0.8333537
vt 0.4999796 0.9999797
vt 0.3333537 0.9999797
vt 2.034505E-05 0.666687
vt 0.1666463 0.666687
vt 0.1666463 0.833313
vt 2.034505E-05 0.833313
vt 0.166687 0.666687
vt 0.333313 0.666687
vt 0.333313 0.833313
vt 0.166687 0.833313
vt 0.3333537 0.666687
vt 0.4999796 0.666687
vt 0.4999796 0.833313
vt 0.3333537 0.833313
vt 0.8333537 0.166687
vt 0.9999797 0.166687
vt 0.9999797 0.333313
vt 0.8333537 0.333313
vt 0.5000203 0.166687
vt 0.6666463 0.166687
vt 0.6666463 0.333313
vt 0.5000203 0.333313
vt 0.666687 0.166687
vt 0.833313 0.166687
vt 0.833313 0.333313
vt 0.666687 0.333313

# Normal
vn 0 0 -1

# Groups (Count = 2)

g mesh_0001
f 1/1/1 2/2/1 3/3/1 4/4/1
f 2/5/1 5/6/1 6/7/1 3/8/1
f 5/5/1 7/6/1 8/7/1 6/8/1
f 7/5/1 9/6/1 10/7/1 8/8/1
f 9/5/1 11/6/1 12/7/1 10/8/1
f 11/5/1 13/6/1 14/7/1 12/8/1
f 13/5/1 15/6/1 16/7/1 14/8/1
f 15/9/1 17/10/1 18/11/1 16/12/1
f 19/1/1 20/2/1 21/3/1 22/4/1
f 20/5/1 23/6/1 24/7/1 21/8/1
f 23/5/1 25/6/1 26/7/1 24/8/1
f 25/5/1 27/6/1 28/7/1 26/8/1
f 27/5/1 29/6/1 30/7/1 28/8/1
f 29/5/1 31/6/1 32/7/1 30/8/1
f 31/5/1 33/6/1 34/7/1 32/8/1
f 33/9/1 35/10/1 36/11/1 34/12/1
f 37/13/1 38/14/1 2/15/1 1/16/1
f 38/17/1 39/18/1 5/19/1 2/20/1
f 39/17/1 40/18/1 7/19/1 5/20/1
f 40/17/1 41/18/1 9/19/1 7/20/1
f 41/17/1 42/18/1 11/19/1 9/20/1
f 42/17/1 43/18/1 13/19/1 11/20/1
f 43/17/1 44/18/1 15/19/1 13/20/1
f 44/21/1 45/22/1 17/23/1 15/24/1
f 46/13/1 47/14/1 20/15/1 19/16/1
f 47/17/1 48/18/1 23/19/1 20/20/1
f 48/17/1 49/18/1 25/19/1 23/20/1
f 49/17/1 50/18/1 27/19/1 25/20/1
f 50/17/1 51/18/1 29/19/1 27/20/1
f 51/17/1 52/18/1 31/19/1 29/20/1
f 52/17/1 53/18/1 33/19/1 31/20/1
f 53/21/1 54/22/1 35/23/1 33/24/1
f 55/1/1 56/2/1 57/3/1 58/4/1
f 56/5/1 59/6/1 60/7/1 57/8/1
f 59/5/1 61/6/1 62/7/1 60/8/1
f 61/5/1 63/6/1 64/7/1 62/8/1
f 63/5/1 65/6/1 66/7/1 64/8/1
f 65/5/1 67/6/1 68/7/1 66/8/1
f 67/5/1 69/6/1 70/7/1 68/8/1
f 69/5/1 71/6/1 72/7/1 70/8/1
f 71/5/1 73/6/1 37/7/1 72/8/1
f 73/17/1 74/18/1 38/19/1 37/20/1
f 74/17/1 75/18/1 39/19/1 38/20/1
f 75/17/1 76/18/1 40/19/1 39/20/1
f 76/17/1 77/18/1 41/19/1 40/20/1
f 77/17/1 78/18/1 42/19/1 41/20/1
f 78/17/1 79/18/1 43/19/1 42/20/1
f 79/17/1 80/18/1 44/19/1 43/20/1
f 80/17/1 81/18/1 45/19/1 44/20/1
f 81/5/1 82/6/1 83/7/1 45/8/1
f 82/5/1 84/6/1 85/7/1 83/8/1
f 84/5/1 86/6/1 87/7/1 85/8/1
f 86/5/1 88/6/1 89/7/1 87/8/1
f 88/5/1 90/6/1 46/7/1 89/8/1
f 90/17/1 91/18/1 47/19/1 46/20/1
f 91/17/1 92/18/1 48/19/1 47/20/1
f 92/17/1 93/18/1 49/19/1 48/20/1
f 93/17/1 94/18/1 50/19/1 49/20/1
f 94/17/1 95/18/1 51/19/1 50/20/1
f 95/17/1 96/18/1 52/19/1 51/20/1
f 96/17/1 97/18/1 53/19/1 52/20/1
f 97/17/1 98/18/1 54/19/1 53/20/1
f 98/5/1 99/6/1 100/7/1 54/8/1
f 99/5/1 101/6/1 102/7/1 100/8/1
f 101/5/1 103/6/1 104/7/1 102/8/1
f 103/5/1 105/6/1 106/7/1 104/8/1
f 105/5/1 107/6/1 108/7/1 106/8/1
f 107/5/1 109/6/1 110/7/1 108/8/1
f 109/5/1 111/6/1 112/7/1 110/8/1
f 111/5/1 113/6/1 114/7/1 112/8/1
f 113/5/1 115/6/1 116/7/1 114/8/1
f 115/5/1 117/6/1 118/7/1 116/8/1
f 119/17/1 120/18/1 56/19/1 55/20/1
f 120/17/1 121/18/1 59/19/1 56/20/1
f 121/17/1 122/18/1 61/19/1 59/20/1
f 122/17/1 123/18/1 63/19/1 61/20/1
f 123/17/1 124/18/1 65/19/1 63/20/1
f 124/17/1 125/18/1 67/19/1 65/20/1
f 125/17/1 126/18/1 69/19/1 67/20/1
f 126/17/1 127/18/1 71/19/1 69/20/1
f 127/17/1 128/18/1 73/19/1 71/20/1
f 128/17/1 129/18/1 74/19/1 73/20/1
f 129/17/1 130/18/1 75/19/1 74/20/1
f 130/17/1 131/18/1 76/19/1 75/20/1
f 131/17/1 132/18/1 77/19/1 76/20/1
f 132/17/1 133/18/1 78/19/1 77/20/1
f 133/17/1 134/18/1 79/19/1 78/20/1
f 134/17/1 135/18/1 80/19/1 79/20/1
f 135/17/1 136/18/1 81/19/1 80/20/1
f 136/17/1 137/18/1 82/19/1 81/20/1
f 137/17/1 138/18/1 84/19/1 82/20/1
f 138/17/1 139/18/1 86/19/1 84/20/1
f 139/17/1 140/18/1 88/19/1 86/20/1
f 140/17/1 141/18/1 90/19/1 88/20/1
f 141/17/1 142/18/1 91/19/1 90/20/1
f 142/17/1 143/18/1 92/19/1 91/20/1
f 143/17/1 144/18/1 93/19/1 92/20/1
f 144/17/1 145/18/1 94/19/1 93/20/1
f 145/17/1 146/18/1 95/19/1 94/20/1
f 146/17/1 147/18/1 96/19/1 95/20/1
f 147/17/1 148/18/1 97/19/1 96/20/1
f 148/17/1 149/18/1 98/19/1 97/20/1
f 149/17/1 150/18/1 99/19/1 98/20/1
f 150/17/1 151/18/1 101/19/1 99/20/1
f 151/17/1 152/18/1 103/19/1 101/20/1
f 152/17/1 153/18/1 105/19/1 103/20/1
f 153/17/1 154/18/1 107/19/1 105/20/1
f 154/17/1 155/18/1 109/19/1 107/20/1
f 155/17/1 156/18/1 111/19/1 109/20/1
f 156/17/1 157/18/1 113/19/1 111/20/1
f 157/17/1 158/18/1 115/19/1 113/20/1
f 158/17/1 159/18/1 117/19/1 115/20/1

g mesh_0002
f 86/25/1 88/26/1 89/27/1 87/28/1
f 91/25/1 92/26/1 48/27/1 47/28/1
f 115/25/1 117/26/1 118/27/1 116/28/1
f 139/25/1 140/26/1 88/27/1 86/28/1
f 142/29/1 143/30/1 92/31/1 91/32/1
f 143/33/1 144/34/1 93/35/1 92/36/1
f 158/25/1 159/26/1 117/27/1 115/28/1

