# Wavefront OBJ file automatically generated by Tiled2Unity

# Vertices (Count = 208)
v -6.4 -0.96 0
v -6.72 -0.96 0
v -6.72 -0.64 0
v -6.4 -0.64 0
v -7.04 -0.96 0
v -7.04 -0.64 0
v -7.36 -0.96 0
v -7.36 -0.64 0
v -7.68 -0.96 0
v -7.68 -0.64 0
v -6.4 -1.28 0
v -6.72 -1.28 0
v -7.04 -1.28 0
v -7.36 -1.28 0
v -7.68 -1.28 0
v -8.639999 -1.92 0
v -8.96 -1.92 0
v -8.96 -1.6 0
v -8.639999 -1.6 0
v -9.28 -1.92 0
v -9.28 -1.6 0
v -9.599999 -1.92 0
v -9.599999 -1.6 0
v -9.92 -1.92 0
v -9.92 -1.6 0
v -8.639999 -2.24 0
v -8.96 -2.24 0
v -9.28 -2.24 0
v -9.599999 -2.24 0
v -9.92 -2.24 0
v -10.88 -2.88 0
v -11.2 -2.88 0
v -11.2 -2.56 0
v -10.88 -2.56 0
v -11.52 -2.88 0
v -11.52 -2.56 0
v -11.84 -2.88 0
v -11.84 -2.56 0
v -12.16 -2.88 0
v -12.16 -2.56 0
v -10.88 -3.2 0
v -11.2 -3.2 0
v -11.52 -3.2 0
v -11.84 -3.2 0
v -12.16 -3.2 0
v -8.639999 -3.84 0
v -8.96 -3.84 0
v -8.96 -3.52 0
v -8.639999 -3.52 0
v -9.28 -3.84 0
v -9.28 -3.52 0
v -9.599999 -3.84 0
v -9.599999 -3.52 0
v -9.92 -3.84 0
v -9.92 -3.52 0
v -8.639999 -4.16 0
v -8.96 -4.16 0
v -9.28 -4.16 0
v -9.599999 -4.16 0
v -9.92 -4.16 0
v -6.72 -4.8 0
v -7.04 -4.8 0
v -7.04 -4.48 0
v -6.72 -4.48 0
v -7.36 -4.8 0
v -7.36 -4.48 0
v -7.68 -4.8 0
v -7.68 -4.48 0
v -8 -4.8 0
v -8 -4.48 0
v -6.72 -5.12 0
v -7.04 -5.12 0
v -7.36 -5.12 0
v -7.68 -5.12 0
v -8 -5.12 0
v -4.16 -5.44 0
v -4.48 -5.44 0
v -4.48 -5.12 0
v -4.16 -5.12 0
v -4.8 -5.44 0
v -4.8 -5.12 0
v -5.12 -5.44 0
v -5.12 -5.12 0
v -5.44 -5.44 0
v -5.44 -5.12 0
v -4.16 -5.76 0
v -4.48 -5.76 0
v -4.8 -5.76 0
v -5.12 -5.76 0
v -5.44 -5.76 0
v 0 -6.08 0
v -0.32 -6.08 0
v -0.32 -5.76 0
v 0 -5.76 0
v -0.64 -6.08 0
v -0.64 -5.76 0
v -0.96 -6.08 0
v -0.96 -5.76 0
v -1.28 -6.08 0
v -1.28 -5.76 0
v -1.6 -6.08 0
v -1.6 -5.76 0
v -1.92 -6.08 0
v -1.92 -5.76 0
v -2.24 -6.08 0
v -2.24 -5.76 0
v -2.56 -6.08 0
v -2.56 -5.76 0
v -2.88 -6.08 0
v -2.88 -5.76 0
v -3.2 -6.08 0
v -3.2 -5.76 0
v -3.52 -6.08 0
v -3.52 -5.76 0
v -3.84 -6.08 0
v -3.84 -5.76 0
v -4.16 -6.08 0
v -4.48 -6.08 0
v -4.8 -6.08 0
v -5.12 -6.08 0
v -5.44 -6.08 0
v -5.76 -6.08 0
v -5.76 -5.76 0
v -6.08 -6.08 0
v -6.08 -5.76 0
v -6.4 -6.08 0
v -6.4 -5.76 0
v -6.72 -6.08 0
v -6.72 -5.76 0
v -7.04 -6.08 0
v -7.04 -5.76 0
v -7.36 -6.08 0
v -7.36 -5.76 0
v -7.68 -6.08 0
v -7.68 -5.76 0
v -8 -6.08 0
v -8 -5.76 0
v -8.32 -6.08 0
v -8.32 -5.76 0
v -8.639999 -6.08 0
v -8.639999 -5.76 0
v -8.96 -6.08 0
v -8.96 -5.76 0
v -9.28 -6.08 0
v -9.28 -5.76 0
v -9.599999 -6.08 0
v -9.599999 -5.76 0
v -9.92 -6.08 0
v -9.92 -5.76 0
v -10.24 -6.08 0
v -10.24 -5.76 0
v -10.56 -6.08 0
v -10.56 -5.76 0
v -10.88 -6.08 0
v -10.88 -5.76 0
v -11.2 -6.08 0
v -11.2 -5.76 0
v -11.52 -6.08 0
v -11.52 -5.76 0
v -11.84 -6.08 0
v -11.84 -5.76 0
v -12.16 -6.08 0
v -12.16 -5.76 0
v -12.48 -6.08 0
v -12.48 -5.76 0
v -12.8 -6.08 0
v -12.8 -5.76 0
v 0 -6.4 0
v -0.32 -6.4 0
v -0.64 -6.4 0
v -0.96 -6.4 0
v -1.28 -6.4 0
v -1.6 -6.4 0
v -1.92 -6.4 0
v -2.24 -6.4 0
v -2.56 -6.4 0
v -2.88 -6.4 0
v -3.2 -6.4 0
v -3.52 -6.4 0
v -3.84 -6.4 0
v -4.16 -6.4 0
v -4.48 -6.4 0
v -4.8 -6.4 0
v -5.12 -6.4 0
v -5.44 -6.4 0
v -5.76 -6.4 0
v -6.08 -6.4 0
v -6.4 -6.4 0
v -6.72 -6.4 0
v -7.04 -6.4 0
v -7.36 -6.4 0
v -7.68 -6.4 0
v -8 -6.4 0
v -8.32 -6.4 0
v -8.639999 -6.4 0
v -8.96 -6.4 0
v -9.28 -6.4 0
v -9.599999 -6.4 0
v -9.92 -6.4 0
v -10.24 -6.4 0
v -10.56 -6.4 0
v -10.88 -6.4 0
v -11.2 -6.4 0
v -11.52 -6.4 0
v -11.84 -6.4 0
v -12.16 -6.4 0
v -12.48 -6.4 0
v -12.8 -6.4 0

# Texture cooridinates (Count = 36)
vt 4.069011E-05 0.6667074
vt 0.3332926 0.6667074
vt 0.3332926 0.9999593
vt 4.069011E-05 0.9999593
vt 0.333374 0.6667074
vt 0.666626 0.6667074
vt 0.666626 0.9999593
vt 0.333374 0.9999593
vt 0.6667073 0.6667074
vt 0.9999593 0.6667074
vt 0.9999593 0.9999593
vt 0.6667073 0.9999593
vt 4.069011E-05 4.070997E-05
vt 0.3332926 4.070997E-05
vt 0.3332926 0.3332927
vt 4.069011E-05 0.3332927
vt 0.333374 4.070997E-05
vt 0.666626 4.070997E-05
vt 0.666626 0.3332927
vt 0.333374 0.3332927
vt 0.6667073 4.070997E-05
vt 0.9999593 4.070997E-05
vt 0.9999593 0.3332927
vt 0.6667073 0.3332927
vt 4.069011E-05 0.333374
vt 0.3332926 0.333374
vt 0.3332926 0.666626
vt 4.069011E-05 0.666626
vt 0.333374 0.333374
vt 0.666626 0.333374
vt 0.666626 0.666626
vt 0.333374 0.666626
vt 0.6667073 0.333374
vt 0.9999593 0.333374
vt 0.9999593 0.666626
vt 0.6667073 0.666626

# Normal
vn 0 0 -1

# Groups (Count = 1)

g mesh_0001
f 1/1/1 2/2/1 3/3/1 4/4/1
f 2/5/1 5/6/1 6/7/1 3/8/1
f 5/5/1 7/6/1 8/7/1 6/8/1
f 7/9/1 9/10/1 10/11/1 8/12/1
f 11/13/1 12/14/1 2/15/1 1/16/1
f 12/17/1 13/18/1 5/19/1 2/20/1
f 13/17/1 14/18/1 7/19/1 5/20/1
f 14/21/1 15/22/1 9/23/1 7/24/1
f 16/1/1 17/2/1 18/3/1 19/4/1
f 17/5/1 20/6/1 21/7/1 18/8/1
f 20/5/1 22/6/1 23/7/1 21/8/1
f 22/9/1 24/10/1 25/11/1 23/12/1
f 26/13/1 27/14/1 17/15/1 16/16/1
f 27/17/1 28/18/1 20/19/1 17/20/1
f 28/17/1 29/18/1 22/19/1 20/20/1
f 29/21/1 30/22/1 24/23/1 22/24/1
f 31/1/1 32/2/1 33/3/1 34/4/1
f 32/5/1 35/6/1 36/7/1 33/8/1
f 35/5/1 37/6/1 38/7/1 36/8/1
f 37/9/1 39/10/1 40/11/1 38/12/1
f 41/13/1 42/14/1 32/15/1 31/16/1
f 42/17/1 43/18/1 35/19/1 32/20/1
f 43/17/1 44/18/1 37/19/1 35/20/1
f 44/21/1 45/22/1 39/23/1 37/24/1
f 46/1/1 47/2/1 48/3/1 49/4/1
f 47/5/1 50/6/1 51/7/1 48/8/1
f 50/5/1 52/6/1 53/7/1 51/8/1
f 52/9/1 54/10/1 55/11/1 53/12/1
f 56/13/1 57/14/1 47/15/1 46/16/1
f 57/17/1 58/18/1 50/19/1 47/20/1
f 58/17/1 59/18/1 52/19/1 50/20/1
f 59/21/1 60/22/1 54/23/1 52/24/1
f 61/1/1 62/2/1 63/3/1 64/4/1
f 62/5/1 65/6/1 66/7/1 63/8/1
f 65/5/1 67/6/1 68/7/1 66/8/1
f 67/9/1 69/10/1 70/11/1 68/12/1
f 71/13/1 72/14/1 62/15/1 61/16/1
f 72/17/1 73/18/1 65/19/1 62/20/1
f 73/17/1 74/18/1 67/19/1 65/20/1
f 74/21/1 75/22/1 69/23/1 67/24/1
f 76/1/1 77/2/1 78/3/1 79/4/1
f 77/5/1 80/6/1 81/7/1 78/8/1
f 80/5/1 82/6/1 83/7/1 81/8/1
f 82/9/1 84/10/1 85/11/1 83/12/1
f 86/25/1 87/26/1 77/27/1 76/28/1
f 87/29/1 88/30/1 80/31/1 77/32/1
f 88/29/1 89/30/1 82/31/1 80/32/1
f 89/33/1 90/34/1 84/35/1 82/36/1
f 91/1/1 92/2/1 93/3/1 94/4/1
f 92/5/1 95/6/1 96/7/1 93/8/1
f 95/5/1 97/6/1 98/7/1 96/8/1
f 97/5/1 99/6/1 100/7/1 98/8/1
f 99/5/1 101/6/1 102/7/1 100/8/1
f 101/5/1 103/6/1 104/7/1 102/8/1
f 103/5/1 105/6/1 106/7/1 104/8/1
f 105/5/1 107/6/1 108/7/1 106/8/1
f 107/5/1 109/6/1 110/7/1 108/8/1
f 109/5/1 111/6/1 112/7/1 110/8/1
f 111/5/1 113/6/1 114/7/1 112/8/1
f 113/5/1 115/6/1 116/7/1 114/8/1
f 115/5/1 117/6/1 86/7/1 116/8/1
f 117/5/1 118/6/1 87/7/1 86/8/1
f 118/5/1 119/6/1 88/7/1 87/8/1
f 119/5/1 120/6/1 89/7/1 88/8/1
f 120/5/1 121/6/1 90/7/1 89/8/1
f 121/5/1 122/6/1 123/7/1 90/8/1
f 122/5/1 124/6/1 125/7/1 123/8/1
f 124/5/1 126/6/1 127/7/1 125/8/1
f 126/5/1 128/6/1 129/7/1 127/8/1
f 128/5/1 130/6/1 131/7/1 129/8/1
f 130/5/1 132/6/1 133/7/1 131/8/1
f 132/5/1 134/6/1 135/7/1 133/8/1
f 134/5/1 136/6/1 137/7/1 135/8/1
f 136/5/1 138/6/1 139/7/1 137/8/1
f 138/5/1 140/6/1 141/7/1 139/8/1
f 140/5/1 142/6/1 143/7/1 141/8/1
f 142/5/1 144/6/1 145/7/1 143/8/1
f 144/5/1 146/6/1 147/7/1 145/8/1
f 146/5/1 148/6/1 149/7/1 147/8/1
f 148/5/1 150/6/1 151/7/1 149/8/1
f 150/5/1 152/6/1 153/7/1 151/8/1
f 152/5/1 154/6/1 155/7/1 153/8/1
f 154/5/1 156/6/1 157/7/1 155/8/1
f 156/5/1 158/6/1 159/7/1 157/8/1
f 158/5/1 160/6/1 161/7/1 159/8/1
f 160/5/1 162/6/1 163/7/1 161/8/1
f 162/5/1 164/6/1 165/7/1 163/8/1
f 164/9/1 166/10/1 167/11/1 165/12/1
f 168/29/1 169/30/1 92/31/1 91/32/1
f 169/29/1 170/30/1 95/31/1 92/32/1
f 170/29/1 171/30/1 97/31/1 95/32/1
f 171/29/1 172/30/1 99/31/1 97/32/1
f 172/29/1 173/30/1 101/31/1 99/32/1
f 173/29/1 174/30/1 103/31/1 101/32/1
f 174/29/1 175/30/1 105/31/1 103/32/1
f 175/29/1 176/30/1 107/31/1 105/32/1
f 176/29/1 177/30/1 109/31/1 107/32/1
f 177/29/1 178/30/1 111/31/1 109/32/1
f 178/29/1 179/30/1 113/31/1 111/32/1
f 179/29/1 180/30/1 115/31/1 113/32/1
f 180/29/1 181/30/1 117/31/1 115/32/1
f 181/29/1 182/30/1 118/31/1 117/32/1
f 182/29/1 183/30/1 119/31/1 118/32/1
f 183/29/1 184/30/1 120/31/1 119/32/1
f 184/29/1 185/30/1 121/31/1 120/32/1
f 185/29/1 186/30/1 122/31/1 121/32/1
f 186/29/1 187/30/1 124/31/1 122/32/1
f 187/29/1 188/30/1 126/31/1 124/32/1
f 188/29/1 189/30/1 128/31/1 126/32/1
f 189/29/1 190/30/1 130/31/1 128/32/1
f 190/29/1 191/30/1 132/31/1 130/32/1
f 191/29/1 192/30/1 134/31/1 132/32/1
f 192/29/1 193/30/1 136/31/1 134/32/1
f 193/29/1 194/30/1 138/31/1 136/32/1
f 194/29/1 195/30/1 140/31/1 138/32/1
f 195/29/1 196/30/1 142/31/1 140/32/1
f 196/29/1 197/30/1 144/31/1 142/32/1
f 197/29/1 198/30/1 146/31/1 144/32/1
f 198/29/1 199/30/1 148/31/1 146/32/1
f 199/29/1 200/30/1 150/31/1 148/32/1
f 200/29/1 201/30/1 152/31/1 150/32/1
f 201/29/1 202/30/1 154/31/1 152/32/1
f 202/29/1 203/30/1 156/31/1 154/32/1
f 203/29/1 204/30/1 158/31/1 156/32/1
f 204/29/1 205/30/1 160/31/1 158/32/1
f 205/29/1 206/30/1 162/31/1 160/32/1
f 206/29/1 207/30/1 164/31/1 162/32/1
f 207/29/1 208/30/1 166/31/1 164/32/1

