# Wavefront OBJ file automatically generated by Tiled2Unity

# Vertices (Count = 310)
v -9.599999 -1.28 0
v -9.92 -1.28 0
v -9.92 -0.96 0
v -9.599999 -0.96 0
v -10.24 -1.28 0
v -10.24 -0.96 0
v -10.56 -1.28 0
v -10.56 -0.96 0
v -9.599999 -1.6 0
v -9.92 -1.6 0
v -10.24 -1.6 0
v -10.56 -1.6 0
v -9.599999 -1.92 0
v -9.92 -1.92 0
v -10.24 -1.92 0
v -10.56 -1.92 0
v -4.8 -2.24 0
v -5.12 -2.24 0
v -5.12 -1.92 0
v -4.8 -1.92 0
v -5.44 -2.24 0
v -5.44 -1.92 0
v -5.76 -2.24 0
v -5.76 -1.92 0
v -9.599999 -2.24 0
v -9.92 -2.24 0
v -10.24 -2.24 0
v -10.56 -2.24 0
v -4.8 -2.56 0
v -5.12 -2.56 0
v -5.44 -2.56 0
v -5.76 -2.56 0
v -9.599999 -2.56 0
v -9.92 -2.56 0
v -10.24 -2.56 0
v -10.56 -2.56 0
v -3.52 -2.88 0
v -3.84 -2.88 0
v -3.84 -2.56 0
v -3.52 -2.56 0
v -4.16 -2.88 0
v -4.16 -2.56 0
v -4.48 -2.88 0
v -4.48 -2.56 0
v -4.8 -2.88 0
v -5.12 -2.88 0
v -5.44 -2.88 0
v -5.76 -2.88 0
v -9.599999 -2.88 0
v -9.92 -2.88 0
v -10.24 -2.88 0
v -10.56 -2.88 0
v -3.52 -3.2 0
v -3.84 -3.2 0
v -4.16 -3.2 0
v -4.48 -3.2 0
v -4.8 -3.2 0
v -5.12 -3.2 0
v -5.44 -3.2 0
v -5.76 -3.2 0
v -9.599999 -3.2 0
v -9.92 -3.2 0
v -10.24 -3.2 0
v -10.56 -3.2 0
v -2.24 -3.52 0
v -2.56 -3.52 0
v -2.56 -3.2 0
v -2.24 -3.2 0
v -2.88 -3.52 0
v -2.88 -3.2 0
v -3.2 -3.52 0
v -3.2 -3.2 0
v -3.52 -3.52 0
v -3.84 -3.52 0
v -4.16 -3.52 0
v -4.48 -3.52 0
v -4.8 -3.52 0
v -5.12 -3.52 0
v -5.44 -3.52 0
v -5.76 -3.52 0
v -9.599999 -3.52 0
v -9.92 -3.52 0
v -10.24 -3.52 0
v -10.56 -3.52 0
v -2.24 -3.84 0
v -2.56 -3.84 0
v -2.88 -3.84 0
v -3.2 -3.84 0
v -3.52 -3.84 0
v -3.84 -3.84 0
v -4.16 -3.84 0
v -4.48 -3.84 0
v -4.8 -3.84 0
v -5.12 -3.84 0
v -5.44 -3.84 0
v -9.599999 -3.84 0
v -9.92 -3.84 0
v -10.24 -3.84 0
v -10.56 -3.84 0
v -2.24 -4.16 0
v -2.56 -4.16 0
v -2.88 -4.16 0
v -3.2 -4.16 0
v -3.52 -4.16 0
v -3.84 -4.16 0
v -4.16 -4.16 0
v -4.48 -4.16 0
v -4.8 -4.16 0
v -5.12 -4.16 0
v -5.44 -4.16 0
v -7.36 -4.16 0
v -7.68 -4.16 0
v -7.68 -3.84 0
v -7.36 -3.84 0
v -8 -4.16 0
v -8 -3.84 0
v -8.32 -4.16 0
v -8.32 -3.84 0
v -9.599999 -4.16 0
v -9.92 -4.16 0
v -10.24 -4.16 0
v -10.56 -4.16 0
v -1.28 -4.48 0
v -1.6 -4.48 0
v -1.6 -4.16 0
v -1.28 -4.16 0
v -1.92 -4.48 0
v -1.92 -4.16 0
v -2.24 -4.48 0
v -2.56 -4.48 0
v -2.88 -4.48 0
v -3.2 -4.48 0
v -3.52 -4.48 0
v -3.84 -4.48 0
v -4.16 -4.48 0
v -4.48 -4.48 0
v -4.8 -4.48 0
v -5.12 -4.48 0
v -7.36 -4.48 0
v -7.68 -4.48 0
v -8 -4.48 0
v -8.32 -4.48 0
v -9.599999 -4.48 0
v -9.92 -4.48 0
v -10.24 -4.48 0
v -10.56 -4.48 0
v -1.28 -4.8 0
v -1.6 -4.8 0
v -1.92 -4.8 0
v -2.24 -4.8 0
v -2.56 -4.8 0
v -2.88 -4.8 0
v -3.2 -4.8 0
v -3.52 -4.8 0
v -3.84 -4.8 0
v -4.16 -4.8 0
v -4.48 -4.8 0
v -4.8 -4.8 0
v -5.12 -4.8 0
v -9.599999 -4.8 0
v -9.92 -4.8 0
v -10.24 -4.8 0
v -10.56 -4.8 0
v -1.28 -5.12 0
v -1.6 -5.12 0
v -1.92 -5.12 0
v -2.24 -5.12 0
v -2.56 -5.12 0
v -2.88 -5.12 0
v -3.2 -5.12 0
v -3.52 -5.12 0
v -3.84 -5.12 0
v -4.16 -5.12 0
v -4.48 -5.12 0
v -4.8 -5.12 0
v -9.599999 -5.12 0
v -9.92 -5.12 0
v -10.24 -5.12 0
v -10.56 -5.12 0
v -9.599999 -5.44 0
v -9.92 -5.44 0
v -10.24 -5.44 0
v -10.56 -5.44 0
v -8.639999 -5.76 0
v -8.96 -5.76 0
v -8.96 -5.44 0
v -8.639999 -5.44 0
v -9.28 -5.76 0
v -9.28 -5.44 0
v -9.599999 -5.76 0
v -9.92 -5.76 0
v -10.24 -5.76 0
v -10.56 -5.76 0
v -10.88 -5.76 0
v -10.88 -5.44 0
v -11.2 -5.76 0
v -11.2 -5.44 0
v -11.52 -5.76 0
v -11.52 -5.44 0
v -11.84 -5.76 0
v -11.84 -5.44 0
v -12.16 -5.76 0
v -12.16 -5.44 0
v -12.48 -5.76 0
v -12.48 -5.44 0
v -12.8 -5.76 0
v -12.8 -5.44 0
v 0 -6.08 0
v -0.32 -6.08 0
v -0.32 -5.76 0
v 0 -5.76 0
v -0.64 -6.08 0
v -0.64 -5.76 0
v -0.96 -6.08 0
v -0.96 -5.76 0
v -1.28 -6.08 0
v -1.28 -5.76 0
v -1.6 -6.08 0
v -1.6 -5.76 0
v -1.92 -6.08 0
v -1.92 -5.76 0
v -2.24 -6.08 0
v -2.24 -5.76 0
v -2.56 -6.08 0
v -2.56 -5.76 0
v -2.88 -6.08 0
v -2.88 -5.76 0
v -3.2 -6.08 0
v -3.2 -5.76 0
v -3.52 -6.08 0
v -3.52 -5.76 0
v -3.84 -6.08 0
v -3.84 -5.76 0
v -4.16 -6.08 0
v -4.16 -5.76 0
v -4.48 -6.08 0
v -4.48 -5.76 0
v -4.8 -6.08 0
v -4.8 -5.76 0
v -5.12 -6.08 0
v -5.12 -5.76 0
v -5.44 -6.08 0
v -5.44 -5.76 0
v -5.76 -6.08 0
v -5.76 -5.76 0
v -6.08 -6.08 0
v -6.08 -5.76 0
v -6.4 -6.08 0
v -6.4 -5.76 0
v -8.639999 -6.08 0
v -8.96 -6.08 0
v -9.28 -6.08 0
v -9.599999 -6.08 0
v -9.92 -6.08 0
v -10.24 -6.08 0
v -10.56 -6.08 0
v -10.88 -6.08 0
v -11.2 -6.08 0
v -11.52 -6.08 0
v -11.84 -6.08 0
v -12.16 -6.08 0
v -12.48 -6.08 0
v -12.8 -6.08 0
v 0 -6.4 0
v -0.32 -6.4 0
v -0.64 -6.4 0
v -0.96 -6.4 0
v -1.28 -6.4 0
v -1.6 -6.4 0
v -1.92 -6.4 0
v -2.24 -6.4 0
v -2.56 -6.4 0
v -2.88 -6.4 0
v -3.2 -6.4 0
v -3.52 -6.4 0
v -3.84 -6.4 0
v -4.16 -6.4 0
v -4.48 -6.4 0
v -4.8 -6.4 0
v -5.12 -6.4 0
v -5.44 -6.4 0
v -5.76 -6.4 0
v -6.08 -6.4 0
v -6.4 -6.4 0
v -6.72 -6.4 0
v -6.72 -6.08 0
v -7.04 -6.4 0
v -7.04 -6.08 0
v -7.36 -6.4 0
v -7.36 -6.08 0
v -7.68 -6.4 0
v -7.68 -6.08 0
v -8 -6.4 0
v -8 -6.08 0
v -8.32 -6.4 0
v -8.32 -6.08 0
v -8.639999 -6.4 0
v -8.96 -6.4 0
v -9.28 -6.4 0
v -9.599999 -6.4 0
v -9.92 -6.4 0
v -10.24 -6.4 0
v -10.56 -6.4 0
v -10.88 -6.4 0
v -11.2 -6.4 0
v -11.52 -6.4 0
v -11.84 -6.4 0
v -12.16 -6.4 0
v -12.48 -6.4 0
v -12.8 -6.4 0

# Texture cooridinates (Count = 48)
vt 2.034505E-05 0.6667074
vt 0.1666463 0.6667074
vt 0.1666463 0.9999593
vt 2.034505E-05 0.9999593
vt 0.166687 0.6667074
vt 0.333313 0.6667074
vt 0.333313 0.9999593
vt 0.166687 0.9999593
vt 0.3333537 0.6667074
vt 0.4999796 0.6667074
vt 0.4999796 0.9999593
vt 0.3333537 0.9999593
vt 2.034505E-05 0.333374
vt 0.1666463 0.333374
vt 0.1666463 0.666626
vt 2.034505E-05 0.666626
vt 0.166687 0.333374
vt 0.333313 0.333374
vt 0.333313 0.666626
vt 0.166687 0.666626
vt 0.3333537 0.333374
vt 0.4999796 0.333374
vt 0.4999796 0.666626
vt 0.3333537 0.666626
vt 0.5000203 0.6667074
vt 0.6666463 0.6667074
vt 0.6666463 0.9999593
vt 0.5000203 0.9999593
vt 0.666687 0.6667074
vt 0.833313 0.6667074
vt 0.833313 0.9999593
vt 0.666687 0.9999593
vt 0.8333537 0.6667074
vt 0.9999797 0.6667074
vt 0.9999797 0.9999593
vt 0.8333537 0.9999593
vt 0.3333537 4.070997E-05
vt 0.4999796 4.070997E-05
vt 0.4999796 0.3332927
vt 0.3333537 0.3332927
vt 2.034505E-05 4.070997E-05
vt 0.1666463 4.070997E-05
vt 0.1666463 0.3332927
vt 2.034505E-05 0.3332927
vt 0.166687 4.070997E-05
vt 0.333313 4.070997E-05
vt 0.333313 0.3332927
vt 0.166687 0.3332927

# Normal
vn 0 0 -1

# Groups (Count = 1)

g mesh_0001
f 1/1/1 2/2/1 3/3/1 4/4/1
f 2/5/1 5/6/1 6/7/1 3/8/1
f 5/9/1 7/10/1 8/11/1 6/12/1
f 9/13/1 10/14/1 2/15/1 1/16/1
f 10/17/1 11/18/1 5/19/1 2/20/1
f 11/21/1 12/22/1 7/23/1 5/24/1
f 13/13/1 14/14/1 10/15/1 9/16/1
f 14/17/1 15/18/1 11/19/1 10/20/1
f 15/21/1 16/22/1 12/23/1 11/24/1
f 17/1/1 18/2/1 19/3/1 20/4/1
f 18/5/1 21/6/1 22/7/1 19/8/1
f 21/9/1 23/10/1 24/11/1 22/12/1
f 25/13/1 26/14/1 14/15/1 13/16/1
f 26/17/1 27/18/1 15/19/1 14/20/1
f 27/21/1 28/22/1 16/23/1 15/24/1
f 29/13/1 30/14/1 18/15/1 17/16/1
f 30/17/1 31/18/1 21/19/1 18/20/1
f 31/21/1 32/22/1 23/23/1 21/24/1
f 33/13/1 34/14/1 26/15/1 25/16/1
f 34/17/1 35/18/1 27/19/1 26/20/1
f 35/21/1 36/22/1 28/23/1 27/24/1
f 37/1/1 38/2/1 39/3/1 40/4/1
f 38/25/1 41/26/1 42/27/1 39/28/1
f 41/29/1 43/30/1 44/31/1 42/32/1
f 43/33/1 45/34/1 29/35/1 44/36/1
f 45/17/1 46/18/1 30/19/1 29/20/1
f 46/17/1 47/18/1 31/19/1 30/20/1
f 47/21/1 48/22/1 32/23/1 31/24/1
f 49/13/1 50/14/1 34/15/1 33/16/1
f 50/17/1 51/18/1 35/19/1 34/20/1
f 51/21/1 52/22/1 36/23/1 35/24/1
f 53/13/1 54/14/1 38/15/1 37/16/1
f 54/17/1 55/18/1 41/19/1 38/20/1
f 55/17/1 56/18/1 43/19/1 41/20/1
f 56/17/1 57/18/1 45/19/1 43/20/1
f 57/17/1 58/18/1 46/19/1 45/20/1
f 58/17/1 59/18/1 47/19/1 46/20/1
f 59/21/1 60/22/1 48/23/1 47/24/1
f 61/13/1 62/14/1 50/15/1 49/16/1
f 62/17/1 63/18/1 51/19/1 50/20/1
f 63/21/1 64/22/1 52/23/1 51/24/1
f 65/1/1 66/2/1 67/3/1 68/4/1
f 66/5/1 69/6/1 70/7/1 67/8/1
f 69/5/1 71/6/1 72/7/1 70/8/1
f 71/5/1 73/6/1 53/7/1 72/8/1
f 73/17/1 74/18/1 54/19/1 53/20/1
f 74/17/1 75/18/1 55/19/1 54/20/1
f 75/17/1 76/18/1 56/19/1 55/20/1
f 76/17/1 77/18/1 57/19/1 56/20/1
f 77/17/1 78/18/1 58/19/1 57/20/1
f 78/17/1 79/18/1 59/19/1 58/20/1
f 79/37/1 80/38/1 60/39/1 59/40/1
f 81/13/1 82/14/1 62/15/1 61/16/1
f 82/17/1 83/18/1 63/19/1 62/20/1
f 83/21/1 84/22/1 64/23/1 63/24/1
f 85/13/1 86/14/1 66/15/1 65/16/1
f 86/17/1 87/18/1 69/19/1 66/20/1
f 87/17/1 88/18/1 71/19/1 69/20/1
f 88/17/1 89/18/1 73/19/1 71/20/1
f 89/17/1 90/18/1 74/19/1 73/20/1
f 90/17/1 91/18/1 75/19/1 74/20/1
f 91/17/1 92/18/1 76/19/1 75/20/1
f 92/17/1 93/18/1 77/19/1 76/20/1
f 93/17/1 94/18/1 78/19/1 77/20/1
f 94/21/1 95/22/1 79/23/1 78/24/1
f 96/13/1 97/14/1 82/15/1 81/16/1
f 97/17/1 98/18/1 83/19/1 82/20/1
f 98/21/1 99/22/1 84/23/1 83/24/1
f 100/13/1 101/14/1 86/15/1 85/16/1
f 101/17/1 102/18/1 87/19/1 86/20/1
f 102/17/1 103/18/1 88/19/1 87/20/1
f 103/17/1 104/18/1 89/19/1 88/20/1
f 104/17/1 105/18/1 90/19/1 89/20/1
f 105/17/1 106/18/1 91/19/1 90/20/1
f 106/17/1 107/18/1 92/19/1 91/20/1
f 107/17/1 108/18/1 93/19/1 92/20/1
f 108/17/1 109/18/1 94/19/1 93/20/1
f 109/37/1 110/38/1 95/39/1 94/40/1
f 111/1/1 112/2/1 113/3/1 114/4/1
f 112/5/1 115/6/1 116/7/1 113/8/1
f 115/9/1 117/10/1 118/11/1 116/12/1
f 119/13/1 120/14/1 97/15/1 96/16/1
f 120/17/1 121/18/1 98/19/1 97/20/1
f 121/21/1 122/22/1 99/23/1 98/24/1
f 123/1/1 124/2/1 125/3/1 126/4/1
f 124/5/1 127/6/1 128/7/1 125/8/1
f 127/5/1 129/6/1 100/7/1 128/8/1
f 129/17/1 130/18/1 101/19/1 100/20/1
f 130/17/1 131/18/1 102/19/1 101/20/1
f 131/17/1 132/18/1 103/19/1 102/20/1
f 132/17/1 133/18/1 104/19/1 103/20/1
f 133/17/1 134/18/1 105/19/1 104/20/1
f 134/17/1 135/18/1 106/19/1 105/20/1
f 135/17/1 136/18/1 107/19/1 106/20/1
f 136/17/1 137/18/1 108/19/1 107/20/1
f 137/21/1 138/22/1 109/23/1 108/24/1
f 139/41/1 140/42/1 112/43/1 111/44/1
f 140/17/1 141/18/1 115/19/1 112/20/1
f 141/37/1 142/38/1 117/39/1 115/40/1
f 143/13/1 144/14/1 120/15/1 119/16/1
f 144/17/1 145/18/1 121/19/1 120/20/1
f 145/21/1 146/22/1 122/23/1 121/24/1
f 147/13/1 148/14/1 124/15/1 123/16/1
f 148/17/1 149/18/1 127/19/1 124/20/1
f 149/17/1 150/18/1 129/19/1 127/20/1
f 150/17/1 151/18/1 130/19/1 129/20/1
f 151/17/1 152/18/1 131/19/1 130/20/1
f 152/17/1 153/18/1 132/19/1 131/20/1
f 153/17/1 154/18/1 133/19/1 132/20/1
f 154/17/1 155/18/1 134/19/1 133/20/1
f 155/17/1 156/18/1 135/19/1 134/20/1
f 156/17/1 157/18/1 136/19/1 135/20/1
f 157/17/1 158/18/1 137/19/1 136/20/1
f 158/37/1 159/38/1 138/39/1 137/40/1
f 160/13/1 161/14/1 144/15/1 143/16/1
f 161/17/1 162/18/1 145/19/1 144/20/1
f 162/21/1 163/22/1 146/23/1 145/24/1
f 164/41/1 165/42/1 148/43/1 147/44/1
f 165/45/1 166/46/1 149/47/1 148/48/1
f 166/45/1 167/46/1 150/47/1 149/48/1
f 167/45/1 168/46/1 151/47/1 150/48/1
f 168/45/1 169/46/1 152/47/1 151/48/1
f 169/45/1 170/46/1 153/47/1 152/48/1
f 170/45/1 171/46/1 154/47/1 153/48/1
f 171/45/1 172/46/1 155/47/1 154/48/1
f 172/45/1 173/46/1 156/47/1 155/48/1
f 173/45/1 174/46/1 157/47/1 156/48/1
f 174/37/1 175/38/1 158/39/1 157/40/1
f 176/13/1 177/14/1 161/15/1 160/16/1
f 177/17/1 178/18/1 162/19/1 161/20/1
f 178/21/1 179/22/1 163/23/1 162/24/1
f 180/13/1 181/14/1 177/15/1 176/16/1
f 181/17/1 182/18/1 178/19/1 177/20/1
f 182/21/1 183/22/1 179/23/1 178/24/1
f 184/1/1 185/2/1 186/3/1 187/4/1
f 185/5/1 188/6/1 189/7/1 186/8/1
f 188/5/1 190/6/1 180/7/1 189/8/1
f 190/17/1 191/18/1 181/19/1 180/20/1
f 191/17/1 192/18/1 182/19/1 181/20/1
f 192/17/1 193/18/1 183/19/1 182/20/1
f 193/5/1 194/6/1 195/7/1 183/8/1
f 194/5/1 196/6/1 197/7/1 195/8/1
f 196/5/1 198/6/1 199/7/1 197/8/1
f 198/5/1 200/6/1 201/7/1 199/8/1
f 200/5/1 202/6/1 203/7/1 201/8/1
f 202/5/1 204/6/1 205/7/1 203/8/1
f 204/5/1 206/6/1 207/7/1 205/8/1
f 208/1/1 209/2/1 210/3/1 211/4/1
f 209/5/1 212/6/1 213/7/1 210/8/1
f 212/5/1 214/6/1 215/7/1 213/8/1
f 214/5/1 216/6/1 217/7/1 215/8/1
f 216/5/1 218/6/1 219/7/1 217/8/1
f 218/5/1 220/6/1 221/7/1 219/8/1
f 220/5/1 222/6/1 223/7/1 221/8/1
f 222/5/1 224/6/1 225/7/1 223/8/1
f 224/5/1 226/6/1 227/7/1 225/8/1
f 226/5/1 228/6/1 229/7/1 227/8/1
f 228/5/1 230/6/1 231/7/1 229/8/1
f 230/5/1 232/6/1 233/7/1 231/8/1
f 232/5/1 234/6/1 235/7/1 233/8/1
f 234/5/1 236/6/1 237/7/1 235/8/1
f 236/5/1 238/6/1 239/7/1 237/8/1
f 238/5/1 240/6/1 241/7/1 239/8/1
f 240/5/1 242/6/1 243/7/1 241/8/1
f 242/5/1 244/6/1 245/7/1 243/8/1
f 244/5/1 246/6/1 247/7/1 245/8/1
f 246/9/1 248/10/1 249/11/1 247/12/1
f 250/13/1 251/14/1 185/15/1 184/16/1
f 251/17/1 252/18/1 188/19/1 185/20/1
f 252/17/1 253/18/1 190/19/1 188/20/1
f 253/17/1 254/18/1 191/19/1 190/20/1
f 254/17/1 255/18/1 192/19/1 191/20/1
f 255/17/1 256/18/1 193/19/1 192/20/1
f 256/17/1 257/18/1 194/19/1 193/20/1
f 257/17/1 258/18/1 196/19/1 194/20/1
f 258/17/1 259/18/1 198/19/1 196/20/1
f 259/17/1 260/18/1 200/19/1 198/20/1
f 260/17/1 261/18/1 202/19/1 200/20/1
f 261/17/1 262/18/1 204/19/1 202/20/1
f 262/17/1 263/18/1 206/19/1 204/20/1
f 264/17/1 265/18/1 209/19/1 208/20/1
f 265/17/1 266/18/1 212/19/1 209/20/1
f 266/17/1 267/18/1 214/19/1 212/20/1
f 267/17/1 268/18/1 216/19/1 214/20/1
f 268/17/1 269/18/1 218/19/1 216/20/1
f 269/17/1 270/18/1 220/19/1 218/20/1
f 270/17/1 271/18/1 222/19/1 220/20/1
f 271/17/1 272/18/1 224/19/1 222/20/1
f 272/17/1 273/18/1 226/19/1 224/20/1
f 273/17/1 274/18/1 228/19/1 226/20/1
f 274/17/1 275/18/1 230/19/1 228/20/1
f 275/17/1 276/18/1 232/19/1 230/20/1
f 276/17/1 277/18/1 234/19/1 232/20/1
f 277/17/1 278/18/1 236/19/1 234/20/1
f 278/17/1 279/18/1 238/19/1 236/20/1
f 279/17/1 280/18/1 240/19/1 238/20/1
f 280/17/1 281/18/1 242/19/1 240/20/1
f 281/17/1 282/18/1 244/19/1 242/20/1
f 282/17/1 283/18/1 246/19/1 244/20/1
f 283/17/1 284/18/1 248/19/1 246/20/1
f 284/5/1 285/6/1 286/7/1 248/8/1
f 285/5/1 287/6/1 288/7/1 286/8/1
f 287/5/1 289/6/1 290/7/1 288/8/1
f 289/5/1 291/6/1 292/7/1 290/8/1
f 291/5/1 293/6/1 294/7/1 292/8/1
f 293/5/1 295/6/1 296/7/1 294/8/1
f 295/5/1 297/6/1 250/7/1 296/8/1
f 297/17/1 298/18/1 251/19/1 250/20/1
f 298/17/1 299/18/1 252/19/1 251/20/1
f 299/17/1 300/18/1 253/19/1 252/20/1
f 300/17/1 301/18/1 254/19/1 253/20/1
f 301/17/1 302/18/1 255/19/1 254/20/1
f 302/17/1 303/18/1 256/19/1 255/20/1
f 303/17/1 304/18/1 257/19/1 256/20/1
f 304/17/1 305/18/1 258/19/1 257/20/1
f 305/17/1 306/18/1 259/19/1 258/20/1
f 306/17/1 307/18/1 260/19/1 259/20/1
f 307/17/1 308/18/1 261/19/1 260/20/1
f 308/17/1 309/18/1 262/19/1 261/20/1
f 309/17/1 310/18/1 263/19/1 262/20/1

