# Wavefront OBJ file automatically generated by Tiled2Unity

# Vertices (Count = 159)
v -8.639999 -3.52 0
v -8.96 -3.52 0
v -8.96 -3.2 0
v -8.639999 -3.2 0
v -9.28 -3.52 0
v -9.28 -3.2 0
v -9.599999 -3.52 0
v -9.599999 -3.2 0
v -8.639999 -3.84 0
v -8.96 -3.84 0
v -9.28 -3.84 0
v -9.599999 -3.84 0
v -8.639999 -4.16 0
v -8.96 -4.16 0
v -9.28 -4.16 0
v -9.599999 -4.16 0
v -8.639999 -4.48 0
v -8.96 -4.48 0
v -9.28 -4.48 0
v -9.599999 -4.48 0
v -8.639999 -4.8 0
v -8.96 -4.8 0
v -9.28 -4.8 0
v -9.599999 -4.8 0
v -8.639999 -5.12 0
v -8.96 -5.12 0
v -9.28 -5.12 0
v -9.599999 -5.12 0
v -8.639999 -5.44 0
v -8.96 -5.44 0
v -9.28 -5.44 0
v -9.599999 -5.44 0
v -8.639999 -5.76 0
v -8.96 -5.76 0
v -9.28 -5.76 0
v -9.599999 -5.76 0
v -9.92 -5.76 0
v -9.92 -5.44 0
v -10.24 -5.76 0
v -10.24 -5.44 0
v -10.56 -5.76 0
v -10.56 -5.44 0
v -10.88 -5.76 0
v -10.88 -5.44 0
v -11.2 -5.76 0
v -11.2 -5.44 0
v -11.52 -5.76 0
v -11.52 -5.44 0
v -11.84 -5.76 0
v -11.84 -5.44 0
v -12.16 -5.76 0
v -12.16 -5.44 0
v -12.48 -5.76 0
v -12.48 -5.44 0
v -12.8 -5.76 0
v -12.8 -5.44 0
v 0 -6.08 0
v -0.32 -6.08 0
v -0.32 -5.76 0
v 0 -5.76 0
v -0.64 -6.08 0
v -0.64 -5.76 0
v -0.96 -6.08 0
v -0.96 -5.76 0
v -1.28 -6.08 0
v -1.28 -5.76 0
v -1.6 -6.08 0
v -1.6 -5.76 0
v -1.92 -6.08 0
v -1.92 -5.76 0
v -2.24 -6.08 0
v -2.24 -5.76 0
v -2.56 -6.08 0
v -2.56 -5.76 0
v -2.88 -6.08 0
v -2.88 -5.76 0
v -3.2 -6.08 0
v -3.2 -5.76 0
v -3.52 -6.08 0
v -3.52 -5.76 0
v -3.84 -6.08 0
v -3.84 -5.76 0
v -4.16 -6.08 0
v -4.16 -5.76 0
v -4.48 -6.08 0
v -4.48 -5.76 0
v -4.8 -6.08 0
v -4.8 -5.76 0
v -5.12 -6.08 0
v -5.12 -5.76 0
v -5.44 -6.08 0
v -5.44 -5.76 0
v -5.76 -6.08 0
v -5.76 -5.76 0
v -6.08 -6.08 0
v -6.08 -5.76 0
v -6.4 -6.08 0
v -6.4 -5.76 0
v -8.639999 -6.08 0
v -8.96 -6.08 0
v -9.28 -6.08 0
v -9.599999 -6.08 0
v -9.92 -6.08 0
v -10.24 -6.08 0
v -10.56 -6.08 0
v -10.88 -6.08 0
v -11.2 -6.08 0
v -11.52 -6.08 0
v -11.84 -6.08 0
v -12.16 -6.08 0
v -12.48 -6.08 0
v -12.8 -6.08 0
v 0 -6.4 0
v -0.32 -6.4 0
v -0.64 -6.4 0
v -0.96 -6.4 0
v -1.28 -6.4 0
v -1.6 -6.4 0
v -1.92 -6.4 0
v -2.24 -6.4 0
v -2.56 -6.4 0
v -2.88 -6.4 0
v -3.2 -6.4 0
v -3.52 -6.4 0
v -3.84 -6.4 0
v -4.16 -6.4 0
v -4.48 -6.4 0
v -4.8 -6.4 0
v -5.12 -6.4 0
v -5.44 -6.4 0
v -5.76 -6.4 0
v -6.08 -6.4 0
v -6.4 -6.4 0
v -6.72 -6.4 0
v -6.72 -6.08 0
v -7.04 -6.4 0
v -7.04 -6.08 0
v -7.36 -6.4 0
v -7.36 -6.08 0
v -7.68 -6.4 0
v -7.68 -6.08 0
v -8 -6.4 0
v -8 -6.08 0
v -8.32 -6.4 0
v -8.32 -6.08 0
v -8.639999 -6.4 0
v -8.96 -6.4 0
v -9.28 -6.4 0
v -9.599999 -6.4 0
v -9.92 -6.4 0
v -10.24 -6.4 0
v -10.56 -6.4 0
v -10.88 -6.4 0
v -11.2 -6.4 0
v -11.52 -6.4 0
v -11.84 -6.4 0
v -12.16 -6.4 0
v -12.48 -6.4 0
v -12.8 -6.4 0

# Texture cooridinates (Count = 28)
vt 2.034505E-05 0.6667074
vt 0.1666463 0.6667074
vt 0.1666463 0.9999593
vt 2.034505E-05 0.9999593
vt 0.166687 0.6667074
vt 0.333313 0.6667074
vt 0.333313 0.9999593
vt 0.166687 0.9999593
vt 0.3333537 0.6667074
vt 0.4999796 0.6667074
vt 0.4999796 0.9999593
vt 0.3333537 0.9999593
vt 2.034505E-05 0.333374
vt 0.1666463 0.333374
vt 0.1666463 0.666626
vt 2.034505E-05 0.666626
vt 0.166687 0.333374
vt 0.333313 0.333374
vt 0.333313 0.666626
vt 0.166687 0.666626
vt 0.3333537 0.333374
vt 0.4999796 0.333374
vt 0.4999796 0.666626
vt 0.3333537 0.666626
vt 0.666687 0.6667074
vt 0.833313 0.6667074
vt 0.833313 0.9999593
vt 0.666687 0.9999593

# Normal
vn 0 0 -1

# Groups (Count = 1)

g mesh_0001
f 1/1/1 2/2/1 3/3/1 4/4/1
f 2/5/1 5/6/1 6/7/1 3/8/1
f 5/9/1 7/10/1 8/11/1 6/12/1
f 9/13/1 10/14/1 2/15/1 1/16/1
f 10/17/1 11/18/1 5/19/1 2/20/1
f 11/21/1 12/22/1 7/23/1 5/24/1
f 13/13/1 14/14/1 10/15/1 9/16/1
f 14/17/1 15/18/1 11/19/1 10/20/1
f 15/21/1 16/22/1 12/23/1 11/24/1
f 17/13/1 18/14/1 14/15/1 13/16/1
f 18/17/1 19/18/1 15/19/1 14/20/1
f 19/21/1 20/22/1 16/23/1 15/24/1
f 21/13/1 22/14/1 18/15/1 17/16/1
f 22/17/1 23/18/1 19/19/1 18/20/1
f 23/21/1 24/22/1 20/23/1 19/24/1
f 25/13/1 26/14/1 22/15/1 21/16/1
f 26/17/1 27/18/1 23/19/1 22/20/1
f 27/21/1 28/22/1 24/23/1 23/24/1
f 29/13/1 30/14/1 26/15/1 25/16/1
f 30/17/1 31/18/1 27/19/1 26/20/1
f 31/21/1 32/22/1 28/23/1 27/24/1
f 33/13/1 34/14/1 30/15/1 29/16/1
f 34/17/1 35/18/1 31/19/1 30/20/1
f 35/17/1 36/18/1 32/19/1 31/20/1
f 36/5/1 37/6/1 38/7/1 32/8/1
f 37/5/1 39/6/1 40/7/1 38/8/1
f 39/5/1 41/6/1 42/7/1 40/8/1
f 41/5/1 43/6/1 44/7/1 42/8/1
f 43/5/1 45/6/1 46/7/1 44/8/1
f 45/5/1 47/6/1 48/7/1 46/8/1
f 47/5/1 49/6/1 50/7/1 48/8/1
f 49/5/1 51/6/1 52/7/1 50/8/1
f 51/5/1 53/6/1 54/7/1 52/8/1
f 53/5/1 55/6/1 56/7/1 54/8/1
f 57/1/1 58/2/1 59/3/1 60/4/1
f 58/5/1 61/6/1 62/7/1 59/8/1
f 61/5/1 63/6/1 64/7/1 62/8/1
f 63/5/1 65/6/1 66/7/1 64/8/1
f 65/5/1 67/6/1 68/7/1 66/8/1
f 67/5/1 69/6/1 70/7/1 68/8/1
f 69/5/1 71/6/1 72/7/1 70/8/1
f 71/5/1 73/6/1 74/7/1 72/8/1
f 73/5/1 75/6/1 76/7/1 74/8/1
f 75/25/1 77/26/1 78/27/1 76/28/1
f 77/25/1 79/26/1 80/27/1 78/28/1
f 79/25/1 81/26/1 82/27/1 80/28/1
f 81/25/1 83/26/1 84/27/1 82/28/1
f 83/25/1 85/26/1 86/27/1 84/28/1
f 85/25/1 87/26/1 88/27/1 86/28/1
f 87/5/1 89/6/1 90/7/1 88/8/1
f 89/5/1 91/6/1 92/7/1 90/8/1
f 91/5/1 93/6/1 94/7/1 92/8/1
f 93/5/1 95/6/1 96/7/1 94/8/1
f 95/9/1 97/10/1 98/11/1 96/12/1
f 99/13/1 100/14/1 34/15/1 33/16/1
f 100/17/1 101/18/1 35/19/1 34/20/1
f 101/17/1 102/18/1 36/19/1 35/20/1
f 102/17/1 103/18/1 37/19/1 36/20/1
f 103/17/1 104/18/1 39/19/1 37/20/1
f 104/17/1 105/18/1 41/19/1 39/20/1
f 105/17/1 106/18/1 43/19/1 41/20/1
f 106/17/1 107/18/1 45/19/1 43/20/1
f 107/17/1 108/18/1 47/19/1 45/20/1
f 108/17/1 109/18/1 49/19/1 47/20/1
f 109/17/1 110/18/1 51/19/1 49/20/1
f 110/17/1 111/18/1 53/19/1 51/20/1
f 111/17/1 112/18/1 55/19/1 53/20/1
f 113/17/1 114/18/1 58/19/1 57/20/1
f 114/17/1 115/18/1 61/19/1 58/20/1
f 115/17/1 116/18/1 63/19/1 61/20/1
f 116/17/1 117/18/1 65/19/1 63/20/1
f 117/17/1 118/18/1 67/19/1 65/20/1
f 118/17/1 119/18/1 69/19/1 67/20/1
f 119/17/1 120/18/1 71/19/1 69/20/1
f 120/17/1 121/18/1 73/19/1 71/20/1
f 121/17/1 122/18/1 75/19/1 73/20/1
f 122/17/1 123/18/1 77/19/1 75/20/1
f 123/17/1 124/18/1 79/19/1 77/20/1
f 124/17/1 125/18/1 81/19/1 79/20/1
f 125/17/1 126/18/1 83/19/1 81/20/1
f 126/17/1 127/18/1 85/19/1 83/20/1
f 127/17/1 128/18/1 87/19/1 85/20/1
f 128/17/1 129/18/1 89/19/1 87/20/1
f 129/17/1 130/18/1 91/19/1 89/20/1
f 130/17/1 131/18/1 93/19/1 91/20/1
f 131/17/1 132/18/1 95/19/1 93/20/1
f 132/17/1 133/18/1 97/19/1 95/20/1
f 133/5/1 134/6/1 135/7/1 97/8/1
f 134/5/1 136/6/1 137/7/1 135/8/1
f 136/5/1 138/6/1 139/7/1 137/8/1
f 138/5/1 140/6/1 141/7/1 139/8/1
f 140/5/1 142/6/1 143/7/1 141/8/1
f 142/5/1 144/6/1 145/7/1 143/8/1
f 144/5/1 146/6/1 99/7/1 145/8/1
f 146/17/1 147/18/1 100/19/1 99/20/1
f 147/17/1 148/18/1 101/19/1 100/20/1
f 148/17/1 149/18/1 102/19/1 101/20/1
f 149/17/1 150/18/1 103/19/1 102/20/1
f 150/17/1 151/18/1 104/19/1 103/20/1
f 151/17/1 152/18/1 105/19/1 104/20/1
f 152/17/1 153/18/1 106/19/1 105/20/1
f 153/17/1 154/18/1 107/19/1 106/20/1
f 154/17/1 155/18/1 108/19/1 107/20/1
f 155/17/1 156/18/1 109/19/1 108/20/1
f 156/17/1 157/18/1 110/19/1 109/20/1
f 157/17/1 158/18/1 111/19/1 110/20/1
f 158/17/1 159/18/1 112/19/1 111/20/1

