# Wavefront OBJ file automatically generated by Tiled2Unity

# Vertices (Count = 329)
v -8 -3.2 0
v -8.32 -3.2 0
v -8.32 -2.88 0
v -8 -2.88 0
v -8 -3.52 0
v -8.32 -3.52 0
v -7.68 -3.84 0
v -8 -3.84 0
v -7.68 -3.52 0
v -8.32 -3.84 0
v -7.36 -4.16 0
v -7.68 -4.16 0
v -7.36 -3.84 0
v -8 -4.16 0
v -8.32 -4.16 0
v -7.36 -4.48 0
v -7.68 -4.48 0
v -8 -4.48 0
v -8.32 -4.48 0
v 0 -4.8 0
v -0.32 -4.8 0
v -0.32 -4.48 0
v 0 -4.48 0
v -7.04 -4.8 0
v -7.36 -4.8 0
v -7.04 -4.48 0
v -7.68 -4.8 0
v -8 -4.8 0
v -8.32 -4.8 0
v 0 -5.12 0
v -0.32 -5.12 0
v -0.64 -5.12 0
v -0.64 -4.8 0
v -7.04 -5.12 0
v -7.36 -5.12 0
v -7.68 -5.12 0
v -8 -5.12 0
v -8.32 -5.12 0
v 0 -5.44 0
v -0.32 -5.44 0
v -0.64 -5.44 0
v -7.04 -5.44 0
v -7.36 -5.44 0
v -7.68 -5.44 0
v -8 -5.44 0
v -8.32 -5.44 0
v 0 -5.76 0
v -0.32 -5.76 0
v -0.64 -5.76 0
v -7.04 -5.76 0
v -7.36 -5.76 0
v -7.68 -5.76 0
v -8 -5.76 0
v -8.32 -5.76 0
v 0 -6.08 0
v -0.32 -6.08 0
v -0.64 -6.08 0
v -0.96 -6.08 0
v -0.96 -5.76 0
v -7.04 -6.08 0
v -7.36 -6.08 0
v -7.68 -6.08 0
v -8 -6.08 0
v -8.32 -6.08 0
v 0 -6.4 0
v -0.32 -6.4 0
v -0.64 -6.4 0
v -0.96 -6.4 0
v -7.04 -6.4 0
v -7.36 -6.4 0
v -7.68 -6.4 0
v -8 -6.4 0
v -8.32 -6.4 0
v 0 -6.72 0
v -0.32 -6.72 0
v -0.64 -6.72 0
v -0.96 -6.72 0
v -7.04 -6.72 0
v -7.36 -6.72 0
v -7.68 -6.72 0
v -8 -6.72 0
v -8.32 -6.72 0
v 0 -7.04 0
v -0.32 -7.04 0
v -0.64 -7.04 0
v -6.72 -7.04 0
v -7.04 -7.04 0
v -6.72 -6.72 0
v -7.36 -7.04 0
v -7.68 -7.04 0
v -8 -7.04 0
v -8.32 -7.04 0
v 0 -7.36 0
v -0.32 -7.36 0
v -0.64 -7.36 0
v -6.72 -7.36 0
v -7.04 -7.36 0
v -7.36 -7.36 0
v -7.68 -7.36 0
v -8 -7.36 0
v -8.32 -7.36 0
v 0 -7.68 0
v -0.32 -7.68 0
v -0.64 -7.68 0
v -6.72 -7.68 0
v -7.04 -7.68 0
v -7.36 -7.68 0
v -7.68 -7.68 0
v -8 -7.68 0
v -8.32 -7.68 0
v 0 -8 0
v -0.32 -8 0
v -0.64 -8 0
v -6.72 -8 0
v -7.04 -8 0
v -7.36 -8 0
v -7.68 -8 0
v -8 -8 0
v -8.32 -8 0
v 0 -8.32 0
v -0.32 -8.32 0
v -0.64 -8.32 0
v -6.72 -8.32 0
v -7.04 -8.32 0
v -7.36 -8.32 0
v -7.68 -8.32 0
v -8 -8.32 0
v -8.32 -8.32 0
v 0 -8.639999 0
v -0.32 -8.639999 0
v -6.72 -8.639999 0
v -7.04 -8.639999 0
v -7.36 -8.639999 0
v -7.68 -8.639999 0
v -8 -8.639999 0
v -8.32 -8.639999 0
v 0 -8.96 0
v -0.32 -8.96 0
v -6.72 -8.96 0
v -7.04 -8.96 0
v -7.36 -8.96 0
v -7.68 -8.96 0
v -8 -8.96 0
v -8.32 -8.96 0
v 0 -9.28 0
v -0.32 -9.28 0
v -7.04 -9.28 0
v -7.36 -9.28 0
v -7.68 -9.28 0
v -8 -9.28 0
v -8.32 -9.28 0
v 0 -9.599999 0
v -0.32 -9.599999 0
v -7.36 -9.599999 0
v -7.68 -9.599999 0
v -8 -9.599999 0
v -8.32 -9.599999 0
v 0 -9.92 0
v -0.32 -9.92 0
v -7.68 -9.92 0
v -8 -9.92 0
v -8.32 -9.92 0
v 0 -10.24 0
v -0.32 -10.24 0
v -7.68 -10.24 0
v -8 -10.24 0
v -8.32 -10.24 0
v 0 -10.56 0
v -0.32 -10.56 0
v -0.64 -10.56 0
v -0.64 -10.24 0
v -7.68 -10.56 0
v -8 -10.56 0
v -8.32 -10.56 0
v 0 -10.88 0
v -0.32 -10.88 0
v -0.64 -10.88 0
v -7.68 -10.88 0
v -8 -10.88 0
v -8.32 -10.88 0
v 0 -11.2 0
v -0.32 -11.2 0
v -0.64 -11.2 0
v -7.04 -11.2 0
v -7.36 -11.2 0
v -7.36 -10.88 0
v -7.04 -10.88 0
v -7.68 -11.2 0
v -8 -11.2 0
v -8.32 -11.2 0
v 0 -11.52 0
v -0.32 -11.52 0
v -0.64 -11.52 0
v -0.96 -11.52 0
v -0.96 -11.2 0
v -2.88 -11.52 0
v -3.2 -11.52 0
v -3.2 -11.2 0
v -2.88 -11.2 0
v -3.52 -11.52 0
v -3.52 -11.2 0
v -3.84 -11.52 0
v -3.84 -11.2 0
v -4.16 -11.52 0
v -4.16 -11.2 0
v -4.48 -11.52 0
v -4.48 -11.2 0
v -6.72 -11.52 0
v -7.04 -11.52 0
v -6.72 -11.2 0
v -7.36 -11.52 0
v -7.68 -11.52 0
v -8 -11.52 0
v -8.32 -11.52 0
v 0 -11.84 0
v -0.32 -11.84 0
v -0.64 -11.84 0
v -0.96 -11.84 0
v -2.24 -11.84 0
v -2.56 -11.84 0
v -2.56 -11.52 0
v -2.24 -11.52 0
v -2.88 -11.84 0
v -3.2 -11.84 0
v -3.52 -11.84 0
v -3.84 -11.84 0
v -4.16 -11.84 0
v -4.48 -11.84 0
v -4.8 -11.84 0
v -4.8 -11.52 0
v -5.12 -11.84 0
v -5.12 -11.52 0
v -5.44 -11.84 0
v -5.44 -11.52 0
v -5.76 -11.84 0
v -5.76 -11.52 0
v -6.08 -11.84 0
v -6.08 -11.52 0
v -6.4 -11.84 0
v -6.4 -11.52 0
v -6.72 -11.84 0
v -7.04 -11.84 0
v -7.36 -11.84 0
v -7.68 -11.84 0
v -8 -11.84 0
v -8.32 -11.84 0
v 0 -12.16 0
v -0.32 -12.16 0
v -0.64 -12.16 0
v -0.96 -12.16 0
v -1.28 -12.16 0
v -1.28 -11.84 0
v -1.92 -12.16 0
v -2.24 -12.16 0
v -1.92 -11.84 0
v -2.56 -12.16 0
v -2.88 -12.16 0
v -3.2 -12.16 0
v -3.52 -12.16 0
v -3.84 -12.16 0
v -4.16 -12.16 0
v -4.48 -12.16 0
v -4.8 -12.16 0
v -5.12 -12.16 0
v -5.44 -12.16 0
v -5.76 -12.16 0
v -6.08 -12.16 0
v -6.4 -12.16 0
v -6.72 -12.16 0
v -7.04 -12.16 0
v -7.36 -12.16 0
v -7.68 -12.16 0
v -8 -12.16 0
v -8.32 -12.16 0
v 0 -12.48 0
v -0.32 -12.48 0
v -0.64 -12.48 0
v -0.96 -12.48 0
v -1.28 -12.48 0
v -1.6 -12.48 0
v -1.6 -12.16 0
v -1.92 -12.48 0
v -2.24 -12.48 0
v -2.56 -12.48 0
v -2.88 -12.48 0
v -3.2 -12.48 0
v -3.52 -12.48 0
v -3.84 -12.48 0
v -4.16 -12.48 0
v -4.48 -12.48 0
v -4.8 -12.48 0
v -5.12 -12.48 0
v -5.44 -12.48 0
v -5.76 -12.48 0
v -6.08 -12.48 0
v -6.4 -12.48 0
v -6.72 -12.48 0
v -7.04 -12.48 0
v -7.36 -12.48 0
v -7.68 -12.48 0
v -8 -12.48 0
v -8.32 -12.48 0
v 0 -12.8 0
v -0.32 -12.8 0
v -0.64 -12.8 0
v -0.96 -12.8 0
v -1.28 -12.8 0
v -1.6 -12.8 0
v -1.92 -12.8 0
v -2.24 -12.8 0
v -2.56 -12.8 0
v -2.88 -12.8 0
v -3.2 -12.8 0
v -3.52 -12.8 0
v -3.84 -12.8 0
v -4.16 -12.8 0
v -4.48 -12.8 0
v -4.8 -12.8 0
v -5.12 -12.8 0
v -5.44 -12.8 0
v -5.76 -12.8 0
v -6.08 -12.8 0
v -6.4 -12.8 0
v -6.72 -12.8 0
v -7.04 -12.8 0
v -7.36 -12.8 0
v -7.68 -12.8 0
v -8 -12.8 0
v -8.32 -12.8 0

# Texture cooridinates (Count = 44)
vt 2.034505E-05 0.8333537
vt 0.1666463 0.8333537
vt 0.1666463 0.9999797
vt 2.034505E-05 0.9999797
vt 2.034505E-05 0.666687
vt 0.1666463 0.666687
vt 0.1666463 0.833313
vt 2.034505E-05 0.833313
vt 0.166687 0.666687
vt 0.333313 0.666687
vt 0.333313 0.833313
vt 0.166687 0.833313
vt 0.3333537 0.8333537
vt 0.4999796 0.8333537
vt 0.4999796 0.9999797
vt 0.3333537 0.9999797
vt 0.3333537 0.666687
vt 0.4999796 0.666687
vt 0.4999796 0.833313
vt 0.3333537 0.833313
vt 0.3333537 0.5000204
vt 0.4999796 0.5000204
vt 0.4999796 0.6666464
vt 0.3333537 0.6666464
vt 2.034505E-05 0.5000204
vt 0.1666463 0.5000204
vt 0.1666463 0.6666464
vt 2.034505E-05 0.6666464
vt 0.166687 0.8333537
vt 0.333313 0.8333537
vt 0.333313 0.9999797
vt 0.166687 0.9999797
vt 0.5000203 0.8333537
vt 0.6666463 0.8333537
vt 0.6666463 0.9999797
vt 0.5000203 0.9999797
vt 0.666687 0.8333537
vt 0.833313 0.8333537
vt 0.833313 0.9999797
vt 0.666687 0.9999797
vt 0.8333537 0.8333537
vt 0.9999797 0.8333537
vt 0.9999797 0.9999797
vt 0.8333537 0.9999797

# Normal
vn 0 0 -1

# Groups (Count = 3)

g mesh_0001
f 1/1/1 2/2/1 3/3/1 4/4/1
f 5/5/1 6/6/1 2/7/1 1/8/1
f 7/1/1 8/2/1 5/3/1 9/4/1
f 8/9/1 10/10/1 6/11/1 5/12/1
f 11/1/1 12/2/1 7/3/1 13/4/1
f 12/9/1 14/10/1 8/11/1 7/12/1
f 14/9/1 15/10/1 10/11/1 8/12/1
f 16/5/1 17/6/1 12/7/1 11/8/1
f 17/9/1 18/10/1 14/11/1 12/12/1
f 18/9/1 19/10/1 15/11/1 14/12/1
f 20/13/1 21/14/1 22/15/1 23/16/1
f 24/1/1 25/2/1 16/3/1 26/4/1
f 25/9/1 27/10/1 17/11/1 16/12/1
f 27/9/1 28/10/1 18/11/1 17/12/1
f 28/9/1 29/10/1 19/11/1 18/12/1
f 30/9/1 31/10/1 21/11/1 20/12/1
f 31/13/1 32/14/1 33/15/1 21/16/1
f 34/5/1 35/6/1 25/7/1 24/8/1
f 35/9/1 36/10/1 27/11/1 25/12/1
f 36/9/1 37/10/1 28/11/1 27/12/1
f 37/9/1 38/10/1 29/11/1 28/12/1
f 39/9/1 40/10/1 31/11/1 30/12/1
f 40/17/1 41/18/1 32/19/1 31/20/1
f 42/5/1 43/6/1 35/7/1 34/8/1
f 43/9/1 44/10/1 36/11/1 35/12/1
f 44/9/1 45/10/1 37/11/1 36/12/1
f 45/9/1 46/10/1 38/11/1 37/12/1
f 47/9/1 48/10/1 40/11/1 39/12/1
f 48/17/1 49/18/1 41/19/1 40/20/1
f 50/5/1 51/6/1 43/7/1 42/8/1
f 51/9/1 52/10/1 44/11/1 43/12/1
f 52/9/1 53/10/1 45/11/1 44/12/1
f 53/9/1 54/10/1 46/11/1 45/12/1
f 55/9/1 56/10/1 48/11/1 47/12/1
f 56/9/1 57/10/1 49/11/1 48/12/1
f 57/13/1 58/14/1 59/15/1 49/16/1
f 60/5/1 61/6/1 51/7/1 50/8/1
f 61/9/1 62/10/1 52/11/1 51/12/1
f 62/9/1 63/10/1 53/11/1 52/12/1
f 63/9/1 64/10/1 54/11/1 53/12/1
f 65/9/1 66/10/1 56/11/1 55/12/1
f 66/9/1 67/10/1 57/11/1 56/12/1
f 67/17/1 68/18/1 58/19/1 57/20/1
f 69/5/1 70/6/1 61/7/1 60/8/1
f 70/9/1 71/10/1 62/11/1 61/12/1
f 71/9/1 72/10/1 63/11/1 62/12/1
f 72/9/1 73/10/1 64/11/1 63/12/1
f 74/9/1 75/10/1 66/11/1 65/12/1
f 75/9/1 76/10/1 67/11/1 66/12/1
f 76/21/1 77/22/1 68/23/1 67/24/1
f 78/5/1 79/6/1 70/7/1 69/8/1
f 79/9/1 80/10/1 71/11/1 70/12/1
f 80/9/1 81/10/1 72/11/1 71/12/1
f 81/9/1 82/10/1 73/11/1 72/12/1
f 83/9/1 84/10/1 75/11/1 74/12/1
f 84/17/1 85/18/1 76/19/1 75/20/1
f 86/1/1 87/2/1 78/3/1 88/4/1
f 87/9/1 89/10/1 79/11/1 78/12/1
f 89/9/1 90/10/1 80/11/1 79/12/1
f 90/9/1 91/10/1 81/11/1 80/12/1
f 91/9/1 92/10/1 82/11/1 81/12/1
f 93/9/1 94/10/1 84/11/1 83/12/1
f 94/17/1 95/18/1 85/19/1 84/20/1
f 96/5/1 97/6/1 87/7/1 86/8/1
f 97/9/1 98/10/1 89/11/1 87/12/1
f 98/9/1 99/10/1 90/11/1 89/12/1
f 99/9/1 100/10/1 91/11/1 90/12/1
f 100/9/1 101/10/1 92/11/1 91/12/1
f 102/9/1 103/10/1 94/11/1 93/12/1
f 103/17/1 104/18/1 95/19/1 94/20/1
f 105/5/1 106/6/1 97/7/1 96/8/1
f 106/9/1 107/10/1 98/11/1 97/12/1
f 107/9/1 108/10/1 99/11/1 98/12/1
f 108/9/1 109/10/1 100/11/1 99/12/1
f 109/9/1 110/10/1 101/11/1 100/12/1
f 111/9/1 112/10/1 103/11/1 102/12/1
f 112/17/1 113/18/1 104/19/1 103/20/1
f 114/5/1 115/6/1 106/7/1 105/8/1
f 115/9/1 116/10/1 107/11/1 106/12/1
f 116/9/1 117/10/1 108/11/1 107/12/1
f 117/9/1 118/10/1 109/11/1 108/12/1
f 118/9/1 119/10/1 110/11/1 109/12/1
f 120/9/1 121/10/1 112/11/1 111/12/1
f 121/21/1 122/22/1 113/23/1 112/24/1
f 123/5/1 124/6/1 115/7/1 114/8/1
f 124/9/1 125/10/1 116/11/1 115/12/1
f 125/9/1 126/10/1 117/11/1 116/12/1
f 126/9/1 127/10/1 118/11/1 117/12/1
f 127/9/1 128/10/1 119/11/1 118/12/1
f 129/17/1 130/18/1 121/19/1 120/20/1
f 131/5/1 132/6/1 124/7/1 123/8/1
f 132/9/1 133/10/1 125/11/1 124/12/1
f 133/9/1 134/10/1 126/11/1 125/12/1
f 134/9/1 135/10/1 127/11/1 126/12/1
f 135/9/1 136/10/1 128/11/1 127/12/1
f 137/17/1 138/18/1 130/19/1 129/20/1
f 139/25/1 140/26/1 132/27/1 131/28/1
f 140/9/1 141/10/1 133/11/1 132/12/1
f 141/9/1 142/10/1 134/11/1 133/12/1
f 142/9/1 143/10/1 135/11/1 134/12/1
f 143/9/1 144/10/1 136/11/1 135/12/1
f 145/17/1 146/18/1 138/19/1 137/20/1
f 147/25/1 148/26/1 141/27/1 140/28/1
f 148/9/1 149/10/1 142/11/1 141/12/1
f 149/9/1 150/10/1 143/11/1 142/12/1
f 150/9/1 151/10/1 144/11/1 143/12/1
f 152/17/1 153/18/1 146/19/1 145/20/1
f 154/25/1 155/26/1 149/27/1 148/28/1
f 155/9/1 156/10/1 150/11/1 149/12/1
f 156/9/1 157/10/1 151/11/1 150/12/1
f 158/17/1 159/18/1 153/19/1 152/20/1
f 160/5/1 161/6/1 156/7/1 155/8/1
f 161/9/1 162/10/1 157/11/1 156/12/1
f 163/17/1 164/18/1 159/19/1 158/20/1
f 165/5/1 166/6/1 161/7/1 160/8/1
f 166/9/1 167/10/1 162/11/1 161/12/1
f 168/9/1 169/10/1 164/11/1 163/12/1
f 169/13/1 170/14/1 171/15/1 164/16/1
f 172/5/1 173/6/1 166/7/1 165/8/1
f 173/9/1 174/10/1 167/11/1 166/12/1
f 175/9/1 176/10/1 169/11/1 168/12/1
f 176/17/1 177/18/1 170/19/1 169/20/1
f 178/5/1 179/6/1 173/7/1 172/8/1
f 179/9/1 180/10/1 174/11/1 173/12/1
f 181/9/1 182/10/1 176/11/1 175/12/1
f 182/17/1 183/18/1 177/19/1 176/20/1
f 184/1/1 185/2/1 186/3/1 187/4/1
f 185/29/1 188/30/1 178/31/1 186/32/1
f 188/9/1 189/10/1 179/11/1 178/12/1
f 189/9/1 190/10/1 180/11/1 179/12/1
f 191/9/1 192/10/1 182/11/1 181/12/1
f 192/9/1 193/10/1 183/11/1 182/12/1
f 193/13/1 194/14/1 195/15/1 183/16/1
f 196/1/1 197/2/1 198/3/1 199/4/1
f 197/29/1 200/30/1 201/31/1 198/32/1
f 200/29/1 202/30/1 203/31/1 201/32/1
f 202/29/1 204/30/1 205/31/1 203/32/1
f 204/13/1 206/14/1 207/15/1 205/16/1
f 208/1/1 209/2/1 184/3/1 210/4/1
f 209/9/1 211/10/1 185/11/1 184/12/1
f 211/9/1 212/10/1 188/11/1 185/12/1
f 212/9/1 213/10/1 189/11/1 188/12/1
f 213/9/1 214/10/1 190/11/1 189/12/1
f 215/9/1 216/10/1 192/11/1 191/12/1
f 216/9/1 217/10/1 193/11/1 192/12/1
f 217/17/1 218/18/1 194/19/1 193/20/1
f 219/1/1 220/2/1 221/3/1 222/4/1
f 220/29/1 223/30/1 196/31/1 221/32/1
f 223/9/1 224/10/1 197/11/1 196/12/1
f 224/9/1 225/10/1 200/11/1 197/12/1
f 225/9/1 226/10/1 202/11/1 200/12/1
f 226/9/1 227/10/1 204/11/1 202/12/1
f 227/9/1 228/10/1 206/11/1 204/12/1
f 228/29/1 229/30/1 230/31/1 206/32/1
f 229/29/1 231/30/1 232/31/1 230/32/1
f 231/29/1 233/30/1 234/31/1 232/32/1
f 233/29/1 235/30/1 236/31/1 234/32/1
f 235/29/1 237/30/1 238/31/1 236/32/1
f 237/29/1 239/30/1 240/31/1 238/32/1
f 239/29/1 241/30/1 208/31/1 240/32/1
f 241/9/1 242/10/1 209/11/1 208/12/1
f 242/9/1 243/10/1 211/11/1 209/12/1
f 243/9/1 244/10/1 212/11/1 211/12/1
f 244/9/1 245/10/1 213/11/1 212/12/1
f 245/9/1 246/10/1 214/11/1 213/12/1
f 247/9/1 248/10/1 216/11/1 215/12/1
f 248/9/1 249/10/1 217/11/1 216/12/1
f 249/9/1 250/10/1 218/11/1 217/12/1
f 250/13/1 251/14/1 252/15/1 218/16/1
f 253/1/1 254/2/1 219/3/1 255/4/1
f 254/9/1 256/10/1 220/11/1 219/12/1
f 256/9/1 257/10/1 223/11/1 220/12/1
f 257/9/1 258/10/1 224/11/1 223/12/1
f 258/9/1 259/10/1 225/11/1 224/12/1
f 259/9/1 260/10/1 226/11/1 225/12/1
f 260/9/1 261/10/1 227/11/1 226/12/1
f 261/9/1 262/10/1 228/11/1 227/12/1
f 262/9/1 263/10/1 229/11/1 228/12/1
f 263/9/1 264/10/1 231/11/1 229/12/1
f 264/9/1 265/10/1 233/11/1 231/12/1
f 265/9/1 266/10/1 235/11/1 233/12/1
f 266/9/1 267/10/1 237/11/1 235/12/1
f 267/9/1 268/10/1 239/11/1 237/12/1
f 268/9/1 269/10/1 241/11/1 239/12/1
f 269/9/1 270/10/1 242/11/1 241/12/1
f 270/9/1 271/10/1 243/11/1 242/12/1
f 271/9/1 272/10/1 244/11/1 243/12/1
f 272/9/1 273/10/1 245/11/1 244/12/1
f 273/9/1 274/10/1 246/11/1 245/12/1
f 275/9/1 276/10/1 248/11/1 247/12/1
f 276/9/1 277/10/1 249/11/1 248/12/1
f 277/9/1 278/10/1 250/11/1 249/12/1
f 278/9/1 279/10/1 251/11/1 250/12/1
f 279/29/1 280/30/1 281/31/1 251/32/1
f 280/29/1 282/30/1 253/31/1 281/32/1
f 282/9/1 283/10/1 254/11/1 253/12/1
f 283/9/1 284/10/1 256/11/1 254/12/1
f 284/9/1 285/10/1 257/11/1 256/12/1
f 285/9/1 286/10/1 258/11/1 257/12/1
f 286/9/1 287/10/1 259/11/1 258/12/1
f 287/9/1 288/10/1 260/11/1 259/12/1
f 288/9/1 289/10/1 261/11/1 260/12/1
f 289/9/1 290/10/1 262/11/1 261/12/1
f 290/9/1 291/10/1 263/11/1 262/12/1
f 291/9/1 292/10/1 264/11/1 263/12/1
f 292/9/1 293/10/1 265/11/1 264/12/1
f 293/9/1 294/10/1 266/11/1 265/12/1
f 294/9/1 295/10/1 267/11/1 266/12/1
f 295/9/1 296/10/1 268/11/1 267/12/1
f 296/9/1 297/10/1 269/11/1 268/12/1
f 297/9/1 298/10/1 270/11/1 269/12/1
f 298/9/1 299/10/1 271/11/1 270/12/1
f 299/9/1 300/10/1 272/11/1 271/12/1
f 300/9/1 301/10/1 273/11/1 272/12/1
f 301/9/1 302/10/1 274/11/1 273/12/1
f 303/9/1 304/10/1 276/11/1 275/12/1
f 304/9/1 305/10/1 277/11/1 276/12/1
f 305/9/1 306/10/1 278/11/1 277/12/1
f 306/9/1 307/10/1 279/11/1 278/12/1
f 307/9/1 308/10/1 280/11/1 279/12/1
f 308/9/1 309/10/1 282/11/1 280/12/1
f 309/9/1 310/10/1 283/11/1 282/12/1
f 310/9/1 311/10/1 284/11/1 283/12/1
f 311/9/1 312/10/1 285/11/1 284/12/1
f 312/9/1 313/10/1 286/11/1 285/12/1
f 313/9/1 314/10/1 287/11/1 286/12/1
f 314/9/1 315/10/1 288/11/1 287/12/1
f 315/9/1 316/10/1 289/11/1 288/12/1
f 316/9/1 317/10/1 290/11/1 289/12/1
f 317/9/1 318/10/1 291/11/1 290/12/1
f 318/9/1 319/10/1 292/11/1 291/12/1
f 319/9/1 320/10/1 293/11/1 292/12/1
f 320/9/1 321/10/1 294/11/1 293/12/1
f 321/9/1 322/10/1 295/11/1 294/12/1
f 322/9/1 323/10/1 296/11/1 295/12/1
f 323/9/1 324/10/1 297/11/1 296/12/1
f 324/9/1 325/10/1 298/11/1 297/12/1
f 325/9/1 326/10/1 299/11/1 298/12/1
f 326/9/1 327/10/1 300/11/1 299/12/1
f 327/9/1 328/10/1 301/11/1 300/12/1
f 328/9/1 329/10/1 302/11/1 301/12/1

g mesh_0002
f 233/33/1 235/34/1 236/35/1 234/36/1
f 235/37/1 237/38/1 238/39/1 236/40/1
f 237/41/1 239/42/1 240/43/1 238/44/1

